<?xml version="1.0" encoding="utf-8"?>
<!-- Generator: Adobe Illustrator 26.0.0, SVG Export Plug-In . SVG Version: 6.00 Build 0)  -->
<svg version="1.1" id="图层_1" xmlns="http://www.w3.org/2000/svg" xmlns:xlink="http://www.w3.org/1999/xlink" x="0px" y="0px"
	 viewBox="0 0 200 200" style="enable-background:new 0 0 200 200;" xml:space="preserve">
<style type="text/css">
	.st0{fill:#474747;}
	.st1{fill:#3871FE;}
</style>
<path class="st0" d="M100,165.1c-36,0-65.1-29.2-65.1-65.1S64,34.9,100,34.9S165.1,64,165.1,100S136,165.1,100,165.1L100,165.1z
	 M100,178.2c43.2,0,78.2-35,78.2-78.2s-35-78.2-78.2-78.2s-78.2,35-78.2,78.2S56.8,178.2,100,178.2z"/>
<path class="st1" d="M100,87c3.6,0,6.5,2.9,6.5,6.5l0,0v52.1c0,3.6-2.9,6.5-6.5,6.5s-6.5-2.9-6.5-6.5V93.5C93.5,89.9,96.4,87,100,87
	z M106.5,67.4c0,3.6-2.9,6.5-6.5,6.5s-6.5-2.9-6.5-6.5c0-3.6,2.9-6.5,6.5-6.5S106.5,63.8,106.5,67.4z"/>
</svg>
