<svg id="图层_1" data-name="图层 1" xmlns="http://www.w3.org/2000/svg" viewBox="0 0 263.48 242.33"><path d="M241.11,216.56l-55.83-74.79-.29-117,55.83,74.78Z" style="fill:#fff"/><path d="M213.12,149.91l.09,29.25-14-18.7-.08-29.24ZM241,187.31l.08,29.25-14-18.7-.09-29.24Zm-14-47.94.09,29.25-14-18.71-.09-29.24Zm13.82-10.56.09,29.25L227,139.37l-.09-29.25ZM198.91,43.47,199,72.72,185.05,54,185,24.78Z" style="fill:#808fa1"/><path d="M199.18,131.22l.08,29.24-13.95-18.69-.08-29.25ZM213,91.42l.08,29.25-13.95-18.73L199,72.69Zm13.86-10.55.08,29.25L213,91.42l0-29.24Z" style="fill:#808fa1;isolation:isolate;opacity:0.15299999713897705"/><path d="M227.07,168.62l.09,29.42-13.95-18.7-.09-29.43Zm-28-66.68.1,29.25-14-18.7-.09-29.25ZM240.94,158l.08,29.24-14-18.69L227,139.33Zm-14.05-47.95.1,29.25-14-18.7L213,91.38Z" style="fill:#5d6d7e;isolation:isolate;opacity:0.30000001192092896"/><path d="M243.08,102.68l.35,117c0,2.7-1,3.49-2.31,1.76L185.3,146.64a15.51,15.51,0,0,1-2.35-8l-.31-117c0-2.69,1-3.46,2.35-1.77l55.83,74.79A16.38,16.38,0,0,1,243.08,102.68ZM185,24.78l.35,117,55.82,74.79-.34-117Z" style="fill:#5d6d7e"/><path d="M214.1,215.81,158.27,141l-.34-117,55.82,74.79Z" style="fill:#fff"/><path d="M186.11,149.17l.09,29.25-13.95-18.7-.09-29.25ZM214,186.56l.09,29.25-13.94-18.7-.1-29.25Zm-14-47.95.08,29.25-13.94-18.69L186,119.92Zm13.86-10.54.09,29.25L200,138.61l-.09-29.25ZM171.9,42.73,172,72,158,53.28,157.93,24Z" style="fill:#808fa1"/><path d="M172.16,130.47l.09,29.25L158.3,141l-.09-29.24Zm13.78-39.76L186,120l-13.94-18.74L172,72Zm13.85-10.59.1,29.24L185.94,90.67l-.1-29.25Z" style="fill:#808fa1;isolation:isolate;opacity:0.15299999713897705"/><path d="M200.06,167.86l.09,29.43-14-18.69-.09-29.43Zm-28-66.64.08,29.25-13.95-18.69-.08-29.25Zm41.84,56.1.08,29.24-13.94-18.7L200,138.61Zm-14-48,.08,29.25L186,119.92l-.08-29.25Z" style="fill:#5d6d7e;isolation:isolate;opacity:0.30000001192092896"/><path d="M216.07,101.94l.35,117c0,2.69-1,3.48-2.31,1.76L158.28,145.9a15.55,15.55,0,0,1-2.33-8l-.33-117c0-2.72,1-3.49,2.31-1.76l55.82,74.78A15.83,15.83,0,0,1,216.07,101.94ZM157.93,24l.34,117,55.83,74.79-.35-117Z" style="fill:#5d6d7e"/><path d="M187.08,216l-55.82-74.79-.32-117L186.77,99Z" style="fill:#fff"/><path d="M159.1,149.31l.09,29.24-13.95-18.69-.09-29.25ZM187,186.7,187.1,216l-13.95-18.69L173.07,168Zm-14-47.95.09,29.25-14-18.69L159,120.06Zm13.86-10.55.09,29.25-14-18.7-.11-29.2Zm-42-85.33L145,72.12,131,53.42l-.09-29.25Z" style="fill:#808fa1"/><path d="M145.15,130.61l.09,29.25-14-18.69-.08-29.25Zm13.77-39.79.09,29.24-13.95-18.7L145,72.12Zm13.87-10.55.08,29.25-14-18.7-.08-29.25Z" style="fill:#808fa1;isolation:isolate;opacity:0.15299999713897705"/><path d="M173.05,168l.08,29.42-13.94-18.69-.09-29.43Zm-28-66.65.09,29.25-13.94-18.69-.1-29.25Zm41.85,56.1.09,29.25L173.05,168,173,138.76Zm-14-47.91.09,29.24L159,120.1l-.09-29.25Z" style="fill:#5d6d7e;isolation:isolate;opacity:0.30000001192092896"/><path d="M189.06,102.08l.35,117c0,2.69-1,3.48-2.31,1.76L131.27,146a15.61,15.61,0,0,1-2.34-8l-.31-117c0-2.69,1-3.49,2.31-1.76l55.82,74.79A16,16,0,0,1,189.06,102.08ZM130.94,24.17l.35,117L187.12,216l-.35-117Z" style="fill:#5d6d7e"/><path d="M160.07,216.13l-55.82-74.79-.32-117L159.75,99.1Z" style="fill:#fff"/><path d="M132.08,149.46l.1,29.25-14-18.7-.08-29.25ZM160,186.85l.09,29.25-14-18.7-.09-29.25Zm-14-47.94.08,29.24-14-18.69L132,120.21Zm13.86-10.56.08,29.25L146,138.91l-.09-29.25ZM117.87,43,118,72.27,104,53.56l-.08-29.24Z" style="fill:#808fa1"/><path d="M118.17,130.76l.09,29.25-14-18.7-.09-29.25ZM132,91l.08,29.25-14-18.73L118,72.27ZM145.8,80.45l.1,29.25-14-18.76-.1-29.25Z" style="fill:#808fa1;isolation:isolate;opacity:0.15299999713897705"/><path d="M146,168.15l.1,29.44-13.95-18.68-.1-29.43Zm-28-66.63.09,29.24-14-18.67-.09-29.25ZM159.9,157.6l.08,29.25L146,168.15,146,138.91Zm-14-47.94.09,29.25L132,120.21l-.08-29.27Z" style="fill:#5d6d7e;isolation:isolate;opacity:0.30000001192092896"/><path d="M162,102.23l.36,117c0,2.69-1,3.49-2.32,1.76l-55.82-74.79a15.52,15.52,0,0,1-2.35-8l-.31-117c0-2.69,1-3.47,2.31-1.76l55.83,74.79A15.82,15.82,0,0,1,162,102.23ZM103.93,24.32l.34,117L160.1,216.1l-.36-117Z" style="fill:#5d6d7e"/><path d="M133.06,217.13,77.23,142.35l-.31-117,55.82,74.78Z" style="fill:#fff"/><path d="M105.08,150.5l.08,29.25-14-18.7L91.1,131.8ZM133,187.89l.08,29.24-13.94-18.69L119,169.19Zm-14-47.95.09,29.25-14-18.69L105,121.25Zm13.86-10.55.08,29.22-14-18.7-.08-29.25ZM90.87,44.06,91,73.3,77,54.57l-.08-29.25Z" style="fill:#808fa1"/><path d="M91.1,131.8l.09,29.25-14-18.7-.08-29.25ZM104.87,92l.09,29.25L91,102.55,91,73.3Zm13.89-10.55.09,29.24L104.9,92l-.09-29.25Z" style="fill:#808fa1;isolation:isolate;opacity:0.15299999713897705"/><path d="M119,169.19l.08,29.43-13.95-18.7-.08-29.42ZM91,102.55l.06,29.25L77.18,113.1l-.09-29.25Zm41.85,56.06.08,29.25-14-18.67-.1-29.25Zm-14-48,.08,29.25-14-18.7L104.9,92Z" style="fill:#5d6d7e;isolation:isolate;opacity:0.30000001192092896"/><path d="M135,103.26l.34,117c0,2.69-1,3.48-2.31,1.76L77.25,147.22a15.45,15.45,0,0,1-2.34-8l-.32-117c0-2.7,1-3.48,2.31-1.76l55.83,74.79A16,16,0,0,1,135,103.26ZM76.92,25.36l.35,117,55.82,74.78-.35-117Z" style="fill:#5d6d7e"/><path d="M106.05,217.29l-55.8-74.75-.35-117,55.83,74.79Z" style="fill:#fff"/><path d="M78.06,150.64l.09,29.25-14-18.7-.09-29.25ZM106,188l.1,29.25-14-18.71L92,169.33ZM92,140.09,92,169.33,78.09,150.64,78,121.39Zm13.86-10.55.09,29.25-14-18.7-.08-29.25Zm-42-85.34.09,29.25L50,54.75,49.9,25.5Z" style="fill:#808fa1"/><path d="M64.11,131.94l.09,29.25-14-18.65-.08-29.25ZM77.89,92.19,78,121.43,64,102.69l-.1-29.24ZM91.75,81.64l.09,29.25-14-18.75L77.8,62.89Z" style="fill:#808fa1;isolation:isolate;opacity:0.15299999713897705"/><path d="M92,169.33l.09,29.43L78.15,180.07l-.09-29.43ZM64,102.69l.08,29.25-14-18.69L50.08,84Zm41.84,56.1L106,188,92,169.33,92,140.09Zm-14-47.95L92,140.09l-14-18.7-.09-29.25Z" style="fill:#5d6d7e;isolation:isolate;opacity:0.30000001192092896"/><path d="M108,103.41l.36,117c0,2.69-1,3.47-2.32,1.76L50.23,147.37a15.65,15.65,0,0,1-2.34-8L47.58,22.43c0-2.69,1-3.49,2.31-1.76l55.82,74.79A15.49,15.49,0,0,1,108,103.41ZM49.9,25.5l.35,117,55.83,74.79-.36-117Z" style="fill:#5d6d7e"/><path d="M79,217.43,23.21,142.64l-.31-117,55.82,74.79Z" style="fill:#fff"/><path d="M51.05,150.79,51.14,180l-14-18.7-.08-29.25ZM79,188.18l.08,29.25-14-18.7L65,169.48ZM64.88,140.24l.1,29.24L51,150.79l-.1-29.25Zm13.89-10.56.09,29.25-14-18.69L64.8,111ZM36.84,44.34,37,73.59,23,54.89,22.9,25.64Z" style="fill:#808fa1"/><path d="M37.11,132.08l.08,29.25L23.24,142.64l-.09-29.25ZM50.88,92.33,51,121.58,37,102.89l0-29.3ZM64.74,81.74,64.82,111,50.88,92.29,50.79,63Z" style="fill:#808fa1;isolation:isolate;opacity:0.15299999713897705"/><path d="M65,169.48l.09,29.43-14-18.7-.09-29.42ZM37,102.84l.1,29.24-14-18.69-.09-29.21Zm41.85,56.09L79,188.18l-14-18.7-.12-29.24ZM64.82,111l.09,29.25L51,121.54l-.08-29.25Z" style="fill:#5d6d7e;isolation:isolate;opacity:0.30000001192092896"/><path d="M81,103.55l.35,117c0,2.69-1,3.49-2.31,1.76L23.23,147.51a15.52,15.52,0,0,1-2.35-8l-.31-117c0-2.69,1-3.48,2.31-1.79L78.7,95.53A16.12,16.12,0,0,1,81,103.55ZM22.9,25.64l.34,117,55.83,74.79-.38-117Z" style="fill:#5d6d7e"/></svg>