<svg id="图层_1" data-name="图层 1" xmlns="http://www.w3.org/2000/svg" viewBox="0 0 266.72 244.23"><path d="M82.05,207,30.72,137.14l.44-108.69L82.5,98.3Z" style="fill:#fff"/><path d="M56.49,144.89l-.11,27.17L43.55,154.6l.11-27.17Zm25.67,34.92L82.05,207,69.22,189.52l.11-27.16ZM69.44,135.18l-.11,27.18L56.49,144.89l.12-27.17Zm13-9.71-.12,27.17L69.44,135.18l.1-27.17ZM44,45.92l-.11,27.16L31,55.63l.12-27.18Z" style="fill:#808fa1"/><path d="M43.66,127.43l-.11,27.17L30.72,137.14,30.83,110ZM56.72,90.55l-.11,27.17L43.77,100.26l.12-27.18Zm13-9.71L69.54,108,56.72,90.55l.11-27.17Z" style="fill:#808fa1;isolation:isolate;opacity:0.15299999713897705"/><path d="M69.33,162.36l-.12,27.33L56.38,172.22l.11-27.33ZM43.77,100.28l-.11,27.17L30.83,110l.11-27.2Zm38.5,52.39-.11,27.17L69.33,162.36l.11-27.18ZM69.54,108l-.11,27.17L56.61,117.72l.11-27.17Z" style="fill:#5d6d7e;isolation:isolate;opacity:0.30000001192092896"/><path d="M84.63,101.21l-.44,108.68c0,2.5-1,3.23-2.16,1.62L30.69,141.7a14.48,14.48,0,0,1-2.12-7.44L29,25.55c0-2.5,1-3.23,2.16-1.62L82.51,93.77A14.59,14.59,0,0,1,84.63,101.21ZM31.2,28.45l-.48,108.69L82.05,207,82.5,98.3Z" style="fill:#5d6d7e"/><path d="M158.8,207l-51.33-69.85.45-108.69L159.25,98.3Z" style="fill:#fff"/><path d="M133.25,144.89l-.11,27.17L120.3,154.6l.12-27.17Zm25.67,34.92L158.8,207,146,189.52l.11-27.16ZM146.2,135.18l-.12,27.18-12.83-17.47.11-27.17Zm12.92-9.71L159,152.64l-12.83-17.46.11-27.17ZM120.75,45.92l-.14,27.16-12.8-17.45.11-27.18Z" style="fill:#808fa1"/><path d="M120.42,127.43l-.12,27.17-12.83-17.46.11-27.17Zm13-36.88-.11,27.17-12.83-17.46.08-27.18Zm12.95-9.71L146.31,108,133.47,90.55l.12-27.17Z" style="fill:#808fa1;isolation:isolate;opacity:0.15299999713897705"/><path d="M146.08,162.36,146,189.69l-12.83-17.47.11-27.33Zm-25.55-62.08-.11,27.17L107.58,110l.12-27.22ZM159,152.67l-.11,27.17-12.84-17.46.12-27.17ZM146.31,108l-.11,27.17-12.84-17.46.11-27.17Z" style="fill:#5d6d7e;isolation:isolate;opacity:0.30000001192092896"/><path d="M161.4,101.21,161,209.89c0,2.5-1,3.23-2.16,1.62L107.45,141.7a14.48,14.48,0,0,1-2.12-7.44l.45-108.68c0-2.5,1-3.22,2.15-1.62l51.34,69.81A14.69,14.69,0,0,1,161.4,101.21ZM107.92,28.45l-.45,108.69L158.8,207l.45-108.69Z" style="fill:#5d6d7e"/><path d="M235.56,209.6l-51.3-69.84.46-108.69,51.33,69.85Z" style="fill:#fff"/><path d="M210,147.5l-.11,27.2-12.83-17.46.11-27.17Zm25.67,34.92-.11,27.18-12.8-17.46.12-27.18ZM223,137.77l-.11,27.17L210,147.48l.12-27.17Zm13-9.71-.12,27.18L223,137.77l.11-27.16ZM197.51,48.53l-.11,27.16L184.56,58.24l.12-27.17Z" style="fill:#808fa1"/><path d="M197.17,130l-.11,27.18-12.8-17.46.08-27.14Zm13.06-36.88-.11,27.17-12.84-17.46.12-27.18Zm13-9.7-.12,27.17L210.23,93.16,210.34,66Z" style="fill:#808fa1;isolation:isolate;opacity:0.15299999713897705"/><path d="M222.84,165l-.08,27.34-12.83-17.46L210,147.5Zm-25.56-62.07-.11,27.17-12.83-17.44.11-27.17Zm38.5,52.39-.11,27.16L222.84,165l.11-27.17Zm-12.72-44.64L223,137.77l-12.83-17.46.11-27.17Z" style="fill:#5d6d7e;isolation:isolate;opacity:0.30000001192092896"/><path d="M238.15,103.82l-.46,108.69c0,2.5-1,3.22-2.16,1.62L184.2,144.28a14.56,14.56,0,0,1-2.12-7.44l.45-108.68c0-2.5,1-3.23,2.16-1.62L236,96.39A14.56,14.56,0,0,1,238.15,103.82ZM184.72,31.07l-.46,108.69L235.6,209.6l.45-108.68Z" style="fill:#5d6d7e"/></svg>