<svg id="图层_1" data-name="图层 1" xmlns="http://www.w3.org/2000/svg" viewBox="0 0 200 200"><path d="M28.12,21.87H171.88q6.24,0,6.24,6.25V171.87q0,6.25-6.24,6.25H28.12q-6.24,0-6.24-6.25V28.12Q21.88,21.88,28.12,21.87Z" style="fill:#fff"/><path d="M78.31,101c2-28.39,20.31-55.57,54.66-81.57l3.77,5c-34.3,26-51.63,52.65-52.34,80.08,31.29,19,60.57,45.16,83,71.28l-4.75,4.07c-22.34-26.08-51.72-52.24-83-70.92Q63.14,99.06,20.52,84.2l2.06-5.9Q60.47,91.5,78.31,101Z" style="fill:#acb4c0"/><path d="M37.5,150a18.75,18.75,0,1,0,18.75-18.75A18.74,18.74,0,0,0,37.5,150Z" style="fill:#30ad98"/><path d="M40.61,53.11A18.75,18.75,0,1,0,59.36,34.36,18.75,18.75,0,0,0,40.61,53.11Z" style="fill:#c49f74"/><path d="M25,18.75H175A6.25,6.25,0,0,1,181.25,25V175a6.25,6.25,0,0,1-6.25,6.25H25A6.25,6.25,0,0,1,18.75,175V25A6.25,6.25,0,0,1,25,18.75ZM25,25V175H175V25Z" style="fill:#5d6d7e"/><circle cx="137.36" cy="81.25" r="18.75" style="fill:#3f85ff"/></svg>