<?xml version="1.0" encoding="utf-8"?>
<!-- Generator: Adobe Illustrator 26.0.0, SVG Export Plug-In . SVG Version: 6.00 Build 0)  -->
<svg version="1.1" id="图层_1" xmlns="http://www.w3.org/2000/svg" xmlns:xlink="http://www.w3.org/1999/xlink" x="0px" y="0px"
	 viewBox="0 0 200 200" style="enable-background:new 0 0 200 200;" xml:space="preserve">
<style type="text/css">
	.st0{fill:#FFFFFF;}
	.st1{fill:#5D6D7E;}
	.st2{opacity:0.78;fill:#5D6D7E;enable-background:new    ;}
</style>
<path class="st0" d="M37.7,162.5h-19V50h75V37.5h19c1.7-12,12.8-20.3,24.7-18.6c9.6,1.4,17.2,8.9,18.6,18.6h25.2V150H100v12.5H81
	c-1.7,12-12.8,20.3-24.7,18.6C46.7,179.7,39.1,172.1,37.7,162.5z"/>
<path class="st1" d="M18.8,162.5V50h75V37.5h19c1.7-12,12.8-20.3,24.7-18.6c9.6,1.4,17.2,8.9,18.6,18.6h25.2V150H100v12.5H81
	c-1.7,12-12.8,20.3-24.7,18.6c-9.6-1.4-17.2-8.9-18.6-18.6H18.8z M25,156.2h18.1l0.8,5.4c1.2,8.5,9.1,14.5,17.7,13.3
	c6.9-1,12.3-6.4,13.3-13.3l0.8-5.4h18.1v-12.5H175v-100h-24.4l-0.8-5.4c-1.2-8.5-9.1-14.5-17.7-13.3c-6.9,1-12.3,6.4-13.3,13.3
	l-0.8,5.4H100v12.5H25V156.2z"/>
<path class="st2" d="M93.8,112.5h6.2c6.9,0,12.5-5.6,12.5-12.5c0-6.9-5.6-12.5-12.5-12.5h-6.2V56.2h6.2v25
	c10.4,0,18.8,8.4,18.8,18.8s-8.4,18.8-18.8,18.8v25h-6.2V112.5z"/>
</svg>
