<?xml version="1.0" standalone="no"?><!DOCTYPE svg PUBLIC "-//W3C//DTD SVG 1.1//EN" "http://www.w3.org/Graphics/SVG/1.1/DTD/svg11.dtd"><svg t="1715948535308" class="icon" viewBox="0 0 1024 1024" version="1.1" xmlns="http://www.w3.org/2000/svg" p-id="28836" xmlns:xlink="http://www.w3.org/1999/xlink" width="200" height="200"><path d="M384.864 96.576a32 32 0 0 1 32 32v255.36l244.416-244.352a32 32 0 0 1 45.28 0l180.992 180.992a32 32 0 0 1 0 45.28L645.376 608H896a32 32 0 0 1 32 32v256a32 32 0 0 1-32 32l-505.408 0.064c-1.856 0.32-3.776 0.512-5.728 0.512h-256a31.84 31.84 0 0 1-17.664-5.344A32 32 0 0 1 96 896v-256c0-2.56 0.32-5.056 0.864-7.424V128.576a32 32 0 0 1 32-32h256z" fill="#FFFFFF" p-id="28837"></path><path d="M896 608a32 32 0 0 1 32 32v256a32 32 0 0 1-32 32H128a32 32 0 0 1-32-32v-256a32 32 0 0 1 32-32h768z m0 32H128v256h768v-256zM256 704a64 64 0 1 1 0 128 64 64 0 0 1 0-128z m0 32a32 32 0 1 0 0 64 32 32 0 0 0 0-64z m128.288-639.776a32 32 0 0 1 31.776 28.256l0.224 3.744v175.264a16 16 0 0 1-31.744 2.88l-0.256-2.88V128.224H128.16V560a16 16 0 0 1-31.744 2.88l-0.256-2.88V128.224a32 32 0 0 1 28.256-31.776l3.744-0.224h256.128z m319.104 40l2.88 2.592 181.12 181.12a32 32 0 0 1 2.56 42.336l-2.464 2.784-204.128 206.176a16 16 0 0 1-24.576-20.288l1.856-2.24 204.096-206.144-181.184-181.184-409.376 409.92a16 16 0 0 1-24.48-20.384l1.856-2.24 409.376-409.92a32 32 0 0 1 42.464-2.496z" fill="#5D6D7E" p-id="28838"></path><path d="M480 672a32 32 0 0 1 32 32v128a32 32 0 0 1-32 32h-64a32 32 0 0 1-32-32v-128a32 32 0 0 1 32-32h64z m160 0a32 32 0 0 1 32 32v128a32 32 0 0 1-32 32h-64a32 32 0 0 1-32-32v-128a32 32 0 0 1 32-32h64z m160 0a32 32 0 0 1 32 32v128a32 32 0 0 1-32 32h-64a32 32 0 0 1-32-32v-128a32 32 0 0 1 32-32h64z" fill="#C49F74" fill-opacity=".3" p-id="28839"></path><path d="M480 672a32 32 0 0 1 32 32v128a32 32 0 0 1-32 32h-64a32 32 0 0 1-32-32v-128a32 32 0 0 1 32-32h64z m160 0a32 32 0 0 1 32 32v128a32 32 0 0 1-32 32h-64a32 32 0 0 1-32-32v-128a32 32 0 0 1 32-32h64z m160 0a32 32 0 0 1 32 32v128a32 32 0 0 1-32 32h-64a32 32 0 0 1-32-32v-128a32 32 0 0 1 32-32h64z m-320 32h-64v128h64v-128z m160 0h-64v128h64v-128z m160 0h-64v128h64v-128z" fill="#C49F74" p-id="28840"></path><path d="M544.224 364.352l2.208 1.856 113.152 113.12a16 16 0 0 1-20.416 24.48l-2.24-1.824-113.12-113.152a16 16 0 0 1 20.416-24.48z m113.12-113.152l2.24 1.856 113.12 113.152a16 16 0 0 1-20.416 24.48l-2.208-1.856-113.152-113.152a16 16 0 0 1 20.416-24.48z m-321.088 101.824a16 16 0 0 1 2.88 31.744l-2.88 0.256h-160a16 16 0 0 1-2.88-31.744l2.88-0.256h160z m0-128a16 16 0 0 1 2.88 31.744l-2.88 0.256h-160a16 16 0 0 1-2.88-31.744l2.88-0.256h160z" fill="#808FA1" p-id="28841"></path></svg>