<svg id="图层_1" data-name="图层 1" xmlns="http://www.w3.org/2000/svg" viewBox="0 0 290 298"><path d="M23.25,31.47h125v125h-125Z" style="fill:#fff;isolation:isolate;opacity:0.30300000309944153"/><path d="M148.25,25.22a6.25,6.25,0,0,1,6.25,6.25v6.25h-6.25V31.47h-125v125H29.5v6.25H23.25A6.25,6.25,0,0,1,17,156.47h0v-125a6.25,6.25,0,0,1,6.25-6.25Z" style="fill:#5d6d7e;isolation:isolate;opacity:0.30300000309944153"/><path d="M35.75,44h125V169h-125Z" style="fill:#fff;isolation:isolate;opacity:0.6520000100135803"/><path d="M160.75,37.72A6.25,6.25,0,0,1,167,44V169a6.25,6.25,0,0,1-6.25,6.25h-125A6.25,6.25,0,0,1,29.5,169h0V44a6.25,6.25,0,0,1,6.25-6.25ZM35.75,169h125V44h-125Z" style="fill:#5d6d7e;isolation:isolate;opacity:0.6520000100135803"/><path d="M48.75,56.73h127V183.66h-127Z" style="fill:#fff"/><path d="M144,151.93v31.73H112.25V151.93Zm-63.46,0v31.73H48.75V151.93Zm31.71-31.71V152H80.52V120.22ZM80.52,88.46v31.76H48.75V88.46Zm95.23-31.73V88.46H144V56.73Z" style="fill:#808fa1"/><path d="M175.75,151.93v31.73H144V151.93ZM144,88.46v31.76H112.25V88.46ZM112.25,56.73V88.46H80.52V56.73Z" style="fill:#808fa1;isolation:isolate;opacity:0.15299999713897705"/><path d="M112.25,151.93v31.92H80.52V151.93Zm63.5-31.71V152H144V120.22Zm-95.19,0V152H48.75V120.22Zm31.69-31.73v31.73H80.52V88.46Z" style="fill:#5d6d7e;isolation:isolate;opacity:0.30000001192092896"/><path d="M48.75,51.44h127A5.28,5.28,0,0,1,181,56.73V183.66a5.27,5.27,0,0,1-5.26,5.28h-127a5.27,5.27,0,0,1-5.29-5.25h0v-127a5.29,5.29,0,0,1,5.29-5.29h0Zm0,5.29V183.66h127V56.73Z" style="fill:#5d6d7e"/><path d="M115.75,113.94h150v150h-150Z" style="fill:#fff"/><path d="M228.25,226.44v37.5h-37.5v-37.5Zm-75,0v37.5h-37.5v-37.5Zm37.5-37.5v37.5h-37.5v-37.5Zm-37.5-37.5v37.5h-37.5v-37.5Zm112.5-37.5v37.5h-37.5v-37.5Z" style="fill:#808fa1"/><path d="M265.75,226.44v37.5h-37.5v-37.5Zm-37.5-75v37.5h-37.5v-37.5Zm-37.5-37.5v37.5h-37.5v-37.5Z" style="fill:#808fa1;isolation:isolate;opacity:0.15299999713897705"/><path d="M190.75,226.44v37.78h-37.5V226.44Zm75-37.5v37.5h-37.5v-37.5Zm-112.5,0v37.5h-37.5v-37.5Zm37.5-37.5v37.5h-37.5v-37.5Z" style="fill:#5d6d7e;isolation:isolate;opacity:0.30000001192092896"/><path d="M115.75,107.69h150a6.25,6.25,0,0,1,6.25,6.25h0v150a6.25,6.25,0,0,1-6.25,6.25h-150a6.25,6.25,0,0,1-6.25-6.25v-150a6.25,6.25,0,0,1,6.25-6.25Zm0,6.25v150h150v-150Z" style="fill:#5d6d7e"/><path d="M211.38,79.83V58.11Q204,48.53,195.75,43.75V40a2.1,2.1,0,0,1,2.08-2.12h0a2,2,0,0,1,1.17.34,73.2,73.2,0,0,1,18,16.89l.63.83v23.9l8.83-8a3.35,3.35,0,0,1,4.54,0,2.84,2.84,0,0,1,.14,4A1.37,1.37,0,0,1,231,76L214.51,91,198,76.11a2.85,2.85,0,0,1-.19-4c.05,0,.1-.11.16-.16a3.35,3.35,0,0,1,4.54,0l8.83,8Z" style="fill:#27a2df"/></svg>