<?xml version="1.0" encoding="utf-8"?>
<!-- Generator: Adobe Illustrator 26.0.0, SVG Export Plug-In . SVG Version: 6.00 Build 0)  -->
<svg version="1.1" id="图层_1" xmlns="http://www.w3.org/2000/svg" xmlns:xlink="http://www.w3.org/1999/xlink" x="0px" y="0px"
	 viewBox="0 0 218.8 236.2" style="enable-background:new 0 0 218.8 236.2;" xml:space="preserve">
<style type="text/css">
	.st0{fill:none;}
	.st1{fill:none;stroke:#5D6D7E;stroke-width:8;stroke-linejoin:round;}
</style>
<path class="st0" d="M0,236.2h218.8V0H0V236.2z"/>
<g id="PolyCollection_1">
	<rect x="7.2" y="7.2" class="st0" width="204.4" height="221.8"/>
	<path class="st1" d="M152.3,123.4l-64.5,93.6L16.5,77.1L152.3,123.4z"/>
	<rect x="7.2" y="7.2" class="st0" width="204.4" height="221.8"/>
	<path class="st1" d="M76,17.3l76.3,106.1L16.5,77.1L76,17.3z"/>
	<rect x="7.2" y="7.2" class="st0" width="204.4" height="221.8"/>
	<path class="st1" d="M184.4,88.8l-32.1,34.6L76,17.3L184.4,88.8z"/>
	<rect x="7.2" y="7.2" class="st0" width="204.4" height="221.8"/>
	<path class="st1" d="M202.3,155.2l-50-31.9l32.1-34.6L202.3,155.2z"/>
	<rect x="7.2" y="7.2" class="st0" width="204.4" height="221.8"/>
	<path class="st1" d="M152.3,123.4l50,31.9l-45.2,63.6L152.3,123.4z"/>
	<rect x="7.2" y="7.2" class="st0" width="204.4" height="221.8"/>
	<path class="st1" d="M87.8,216.9l64.5-93.6l4.8,95.5L87.8,216.9z"/>
</g>
</svg>
