<?xml version="1.0" encoding="utf-8"?>
<!-- Generator: Adobe Illustrator 26.0.0, SVG Export Plug-In . SVG Version: 6.00 Build 0)  -->
<svg version="1.1" id="图层_1" xmlns="http://www.w3.org/2000/svg" xmlns:xlink="http://www.w3.org/1999/xlink" x="0px" y="0px"
	 viewBox="0 0 200 200" style="enable-background:new 0 0 200 200;" xml:space="preserve">
<style type="text/css">
	.st0{fill:#FFFFFF;}
	.st1{fill:#5D6D7E;}
	.st2{fill:#C49F74;}
</style>
<path class="st0" d="M81.2,18.7l26.1,41.7L125.2,50l56.2,32.8v65.6l-56.2,32.8L69,148.4v-29.7H18.8L81.2,18.7z"/>
<path class="st1" d="M81.2,18.7l26.1,41.7L125.2,50l56.2,32.8v65.6l-56.2,32.8L69,148.4v-29.7H18.8L81.2,18.7z M125.2,57.2
	l-14.6,8.5l33.1,53H75.2v26.1l50,29.2l50-29.2V86.4L125.2,57.2z M81.2,30.5l-51.2,82h39V82.8l32.9-19.2L81.2,30.5z M105.2,68.9
	l-30,17.5v26.1h57.2L105.2,68.9L105.2,68.9z"/>
<polygon class="st2" points="110.8,65.8 125.4,57.3 175.4,86.4 175.4,144.9 125.4,174.1 75.4,144.9 75.4,118.8 143.9,118.8 "/>
</svg>
