<?xml version="1.0" encoding="utf-8"?>
<!-- Generator: Adobe Illustrator 26.0.0, SVG Export Plug-In . SVG Version: 6.00 Build 0)  -->
<svg version="1.1" id="图层_1" xmlns="http://www.w3.org/2000/svg" xmlns:xlink="http://www.w3.org/1999/xlink" x="0px" y="0px"
	 viewBox="0 0 292.9 280.5" style="enable-background:new 0 0 292.9 280.5;" xml:space="preserve">
<style type="text/css">
	.st0{fill:none;}
	.st1{fill:none;stroke:#5D6D7E;stroke-width:8;stroke-linejoin:round;}
</style>
<g id="patch_1">
	<path class="st0" d="M0,280.5h292.9V0H0V280.5z"/>
</g>
<g id="axes_1">
	<g id="PolyCollection_1">
		<rect x="7.2" y="7.2" class="st0" width="278.5" height="266.1"/>
		<path class="st1" d="M46.1,176.2l0.6-1l0,0.6L46.1,176.2z"/>
		<rect x="7.2" y="7.2" class="st0" width="278.5" height="266.1"/>
		<path class="st1" d="M226.1,31.6l-1.4,2.8l-0.2,2.8l-3.7,2.3l0.5,2.8l-1.3,4.4l1.1,1.7l6.2-5.4l5.4-1.8l6.4-4l2,0.2l5.8-2.3
			l2.4-2.6l1.5-0.3l-2.1,6.9l-5.3,0.5l-0.4,1.7l-1.4,0.7l0.7,0.8l-0.5,1.6l-2.4,1l-1.7-0.5l-1.6,1.1l-1.3,1.4l-0.4,2.7l-7.3,1.3
			l-2.3,2.5l0.5,0.4l-1.8,0.5l1.1,0.3l-0.8,0.5l0.3,0.9l-1.1-0.2l-0.2,1.5l-2,1.4l-0.1,3.5l-3.3,1.4l-1.5,2.1l-4-0.2l-0.6,1.6l0-1.4
			l-0.2,1.2l-1.1-0.8l-0.6,1.8l-2.1,0.4l0,2.3l-3.6,3.9l-0.1,2.4l-3.3,1.4l1.5,3.1l-0.5,0.9l-2.2,0.6l0.1,1.3l1.3,0.5l-1.8,1.3
			l1.8,0.5l0.8-1.2l0.2,1.4l1.8,1.4l1.2-1.2l3.1,1.3l1-1.3l2.7-0.6l1.2,2.3l2.3,0l-1,2.2l2.6,0.3L216,93l0.3,2l2.9-0.9l2.3,1.7
			l1.1-0.2l1.2,1.4l0.8,2.9l-0.9,0.6l1,1.7l-0.3,1.8l3.8,4.1l3.2-0.1l2.4,0.9l0.9-2.1l5.3,1.9l5.8-1.3l1.2-1.7l1.4,1.5l2.6-0.6
			l1.3,2.2l2.3-0.9l0.3,3.1l-1.6,2.4l2.3,3l-0.1,1l2.3,0.4l3.7,2.7l0,2.2l3.3-1l0.8,1l1.5-1.2l3.1,1l-1.5,2l1.1,2.8l-1.4,1.3
			l-0.3,1.7l1.5,1.2l1.5,4.1l2,2.2l-0.4,3.5l-3.1-0.8l-1.7,1.8l-3.2,0.9l-0.2,2.4l-4.1,1.4l-2.8,2.2l-3.9,1.1l-3.7-3.7l-1.1-2.3
			l0.6-1.5l-3.1-2.2l0.7-2.7l-1.7-2.1l-2.1-0.1l-0.9-1.1l-1.3,1.4l-1.6-3.2l-6.5,0.3l-0.6,1.3l-1.4,0.3l-2.1,7.2l3.4,0.6l-0.6,4.3
			l-2,0.3l2.9,9.3l-2.5,0.4l-0.7,1l-2.8,0.2l-1.2-0.7l-1.8,0.6l-0.6,2.6l-1-0.8l-1.1,0.9l0,2.4l-1.3,0.7l0.7,2l-0.7,1.1l1.1,0.2
			l0.9,2l-1.5,4.8l-1.2,1.3l-0.2,3.1l-4.4,0.7l-0.8,1.4l-2.1,0.4l-4.7-1l-1.4-2.5l-1.1-0.2l-1.2,1.4l-0.4,2l1.4,3.2l-1.4,0.3l-0.1,2
			l2,1.8l3.9,0.3l-0.2,1l4,0.2l1.3,1.9l1.4,0.3l-0.7,8.1l0.1,1l1.2,0.3l-1,1.8l0.4,1.5l4.2,0.1l0,1.6l4.2-1.1l0,1.1l2.8,1.5l1.5,3.5
			l2,1.3l-0.5,0.7l1.3-1l1.8,0.8l0.9-0.8l0.4,0.8l1.2-4l2.5,0.9l0.5-1.3l0.6,1.8l4.7-5.3l1.2,0.4l-3.3,2.9l1.5,0.9l-0.6,1.2l0.9,2.2
			l0.3,5.9l0.9,1.2l-0.4,2.3l1.2,2.6l-0.7,12.2l-1.1,1.5l0.8,3.8l-3.9,1.7l-1.9-1.2l-1.7,1.1l-1.8-0.9l-7.3,5l-0.4,3l-1.8,1.2
			l-0.7,2.3l-2,1.7l0.3,3.8l-3,1.7l-0.7-0.9l-1.4,0.4l-0.1-1.2l-1.8-1.2l1.2-5.2l-1.7-0.5l-1.3-1.9l-1.5,0.4l-0.9,1.4l0.4,1.7
			l-0.8,1l-2.9-0.9l-1.1,2.7l-0.9-1.4l-1.4,1.3l-3.2-0.3l-1.2,1l-2-1.3l0.2-1.7l-3.6-0.1l0-1l-1.1,0l-1-1.7l-3.5,1.1l-0.4-2.9
			l1.7-3.6l-0.5-3.3l-1.1,0l-0.6,1.3l-0.9-1.3l-0.6,1.5l-2.1,0.4l-1.7-1l-4.4-0.3l-2.4-4l-2.6-0.6l-1.7,0.6l-1.6,2.5l-4.3,1.6
			l-1.4-2.2l0.3-2.5l-1-1.2l-1.7,1.4l-1.7,0.1l-0.4-2.9l-1.3-1.1l0.5-1.7l-2.5-1.1l1.4-2.3l-2.7-2.4l-0.1-1.8l0.8,0.6l0.7-0.7l1-2.8
			l-1.8-2.8l0.3-2.3l1.1-0.5l-0.8-1.3l0.7-1.9l-0.9,0.3l-0.6-2.5l-3.1,0.1l-1.2,2.6l-1.2-0.3l0.4,0.7l-1.8,0.5l0.4,1.8l-1.7-1.4
			l-4.2,2.7l-2.8-1.1l-1.4-1.5l0.5-0.8l-1.1-0.1l-3.6-3.7l-2.2,0.4l-1.3,2l-4.2-2.3l-1.3,0.7l-0.2,2l-1-0.3l0-0.9l-0.8,0.6l-1.6-0.7
			l-0.9,0.9l-0.4-1l-4.2,2.5l-1.4-1l-0.8,0.7l-5.4-1.5l-1.2-1.1l-0.6,1.3l-1.9,0l-1.5,1.2l-3.4-0.7l-1.4,2l-3.8-3.1l-2.3,0.4l0-1.1
			l-1-0.1l0.3,1.6l-1.4-0.8l-1.6-1.1l-0.8-2.6l-2.3,1.1l-2.1-3.2l-2.5,0.7l-6.8-4.8l-2.1-0.8l-1,0.7l-0.2-1.4l-2.5,2l-0.7-0.3
			l-3.7-5.6l-1.8-0.7l1.4,0.1l0.1-2.1l-0.9,1.1l-1.1-0.2l-1.4-3.6l-3.5-1.5l-0.5-2.2l-1.2,1l-0.3-2.2l1.2-2l-1.4-3.1l-3.5-0.1
			l1.8-1.5l-0.8-2.1l-3.5-3.2l-2.1,1.4l0.9-1.9l-3.1-3.2l0.7-3.2l1.1-0.5l-1.3-4.9l1.2-1.6l-1-5.4l-2.9-2.1l-2-0.4l-2-2l-2.2-6.1
			l-1.8-0.1l-3-2.6l-2.1-0.1l-0.5-2.1l3.2-2.5l-2.2-3.7l-1.4-0.2l0.1-3.4l1.7-1.5l0.5-2l-8-3.6l-0.6-2l2.9-2.3l-0.8-3.8l-2,0.2
			l-2.6-4.8l-0.2-1.3l1.8-1.3l-1.6-0.3l0.3-1.6l1.4,0.6l2.4-1.5l2.6,1.7l3.1-1.4l2.3,1.1l3.2-3.2l2.9,1.4l1.7-0.8l1.7-2.1l0.4-2.4
			l1.3,0l0.9,1.4l3.3-2.2l2-0.2l2-2.5l3.1,0.6l1.2-1.1l3.3-0.8l1.9,0.8l2.2-1.1l2.3,0.2l1.7-1.2l1.3,0.4l2.1-3.6l2-1.3l-0.1-2l5.2-2
			l1-2l5.1-0.5l2.4,0.8l0.8,1.6l1.1-1.5l0.2-5.1l-0.9-0.9l1.3-2.1l-0.4-2.6l5.7,1.3l0.3,1.2l2.8-1.1l0.2,1.8l2.7-0.1l1.6-1.3
			l6.7,1.8l3-1l-0.9-1l0.5-0.9l3.1,2.7l0.1,1.5L115,77l1.3,0.3l0.8-1.8l1.6-0.7l4.5,0.2l0.6-1.9l2.3-0.8l-0.3-2.3l0.8-0.4l4.2,1.3
			l2-3.9l1.7-1.4l3.6,0.8l0-2.6l2,0.1l2-1.8l1.9,0.1l2-1.1l2.2-5.8l3,0.6l-2-8.8l3.2-0.9l-0.7-7.8l2,0.1l-0.2-1.4l0.7-0.4l-1.6-0.6
			l1-1.5l-1.3-3l2-0.4l0-0.9l-1.9-0.8l1.6-0.8l-1-0.9l1.2-0.4l-0.7-0.6l0.4-1.6l1.7-3.6l-0.2-1.8l0.9-0.7l2.1,1.8l1.5,0.2l0.3-1.2
			l1.2,0l1.2,2.1l1.8-2.2l0.9,1.8l0.6-0.5l-0.8-1.3l2,0.2l0.7,2.9l1.2,1l2.9-0.3l2.2,1.3l0.9-0.8l1,0.8l0.8-0.6l5.9,2l0.4,0.9
			l4.8,1.9l2.5,2.4l5.9-1.3l1.4,0.9l4.9-0.4l0.7,1.8l-0.7,1.9l0.9,0.7l0.8-1.1l2.8-0.4l1.4-1.9l0.4-2.8l2.1-0.1l0.6-1.9l4.9,1l2.2,3
			l0.2,1.7l0.9,0.4l6-4.1L226.1,31.6z M157.2,218.7l-0.5-0.6l-0.2,0.8L157.2,218.7z"/>
	</g>
</g>
</svg>
