<?xml version="1.0" standalone="no"?><!DOCTYPE svg PUBLIC "-//W3C//DTD SVG 1.1//EN" "http://www.w3.org/Graphics/SVG/1.1/DTD/svg11.dtd"><svg t="1715878477552" class="icon" viewBox="0 0 1024 1024" version="1.1" xmlns="http://www.w3.org/2000/svg" p-id="93667" xmlns:xlink="http://www.w3.org/1999/xlink" width="200" height="200"><path d="M166.4 166.4h691.2v691.2h-691.2z" fill="#FFFFFF" p-id="93668"></path><path d="M844.8 179.2v665.6H179.2V179.2h665.6m25.6-25.6H153.6v716.8h716.8V153.6z" fill="#777677" p-id="93669"></path><path d="M691.2 332.8m-102.4 0a102.4 102.4 0 1 0 204.8 0 102.4 102.4 0 1 0-204.8 0Z" fill="#FBEAAE" p-id="93670"></path><path d="M678.4 665.6c-91.904 0-166.4-45.824-166.4-102.4s-74.496-102.4-166.4-102.4S179.2 506.624 179.2 563.2v281.6h665.6V563.2c0 56.576-74.496 102.4-166.4 102.4z" fill="#C8DAF4" p-id="93671"></path><path d="M204.8 230.4h25.6V204.8H204.8v25.6z m51.2 0h25.6V204.8h-25.6v25.6z m51.2 0h25.6V204.8h-25.6v25.6z m51.2 0h25.6V204.8h-25.6v25.6z m51.2 0h25.6V204.8h-25.6v25.6z m51.2-25.6v25.6h25.6V204.8h-25.6zM204.8 281.6h25.6v-25.6H204.8v25.6z m51.2 0h25.6v-25.6h-25.6v25.6z m51.2 0h25.6v-25.6h-25.6v25.6z m51.2 0h25.6v-25.6h-25.6v25.6z m51.2 0h25.6v-25.6h-25.6v25.6z m51.2 0h25.6v-25.6h-25.6v25.6zM204.8 332.8h25.6v-25.6H204.8v25.6z m51.2 0h25.6v-25.6h-25.6v25.6z m51.2 0h25.6v-25.6h-25.6v25.6z m51.2 0h25.6v-25.6h-25.6v25.6z m51.2 0h25.6v-25.6h-25.6v25.6z m51.2 0h25.6v-25.6h-25.6v25.6zM204.8 384h25.6v-25.6H204.8v25.6z m51.2 0h25.6v-25.6h-25.6v25.6z m51.2 0h25.6v-25.6h-25.6v25.6z m51.2 0h25.6v-25.6h-25.6v25.6z m51.2 0h25.6v-25.6h-25.6v25.6z m51.2 0h25.6v-25.6h-25.6v25.6zM204.8 435.2h25.6v-25.6H204.8v25.6z m51.2 0h25.6v-25.6h-25.6v25.6z m51.2 0h25.6v-25.6h-25.6v25.6z m51.2 0h25.6v-25.6h-25.6v25.6z m51.2 0h25.6v-25.6h-25.6v25.6z m51.2 0h25.6v-25.6h-25.6v25.6zM204.8 486.4h25.6v-25.6H204.8v25.6z m51.2 0h25.6v-25.6h-25.6v25.6z m51.2 0h25.6v-25.6h-25.6v25.6z m51.2 0h25.6v-25.6h-25.6v25.6z m51.2 0h25.6v-25.6h-25.6v25.6z m51.2 0h25.6v-25.6h-25.6v25.6zM204.8 537.6h25.6v-25.6H204.8v25.6z m51.2 0h25.6v-25.6h-25.6v25.6z m51.2 0h25.6v-25.6h-25.6v25.6z m51.2 0h25.6v-25.6h-25.6v25.6z m51.2 0h25.6v-25.6h-25.6v25.6z m51.2 0h25.6v-25.6h-25.6v25.6zM204.8 588.8h25.6v-25.6H204.8v25.6z m51.2 0h25.6v-25.6h-25.6v25.6z m51.2 0h25.6v-25.6h-25.6v25.6z m51.2 0h25.6v-25.6h-25.6v25.6z m51.2 0h25.6v-25.6h-25.6v25.6z m51.2 0h25.6v-25.6h-25.6v25.6zM204.8 640h25.6v-25.6H204.8v25.6z m51.2 0h25.6v-25.6h-25.6v25.6z m51.2 0h25.6v-25.6h-25.6v25.6z m51.2 0h25.6v-25.6h-25.6v25.6z m51.2 0h25.6v-25.6h-25.6v25.6z m51.2 0h25.6v-25.6h-25.6v25.6zM204.8 691.2h25.6v-25.6H204.8v25.6z m51.2 0h25.6v-25.6h-25.6v25.6z m51.2 0h25.6v-25.6h-25.6v25.6z m51.2 0h25.6v-25.6h-25.6v25.6z m51.2 0h25.6v-25.6h-25.6v25.6z m51.2 0h25.6v-25.6h-25.6v25.6zM204.8 742.4h25.6v-25.6H204.8v25.6z m51.2 0h25.6v-25.6h-25.6v25.6z m51.2 0h25.6v-25.6h-25.6v25.6z m51.2 0h25.6v-25.6h-25.6v25.6z m51.2 0h25.6v-25.6h-25.6v25.6z m51.2 0h25.6v-25.6h-25.6v25.6zM204.8 793.6h25.6v-25.6H204.8v25.6z m51.2 0h25.6v-25.6h-25.6v25.6z m51.2 0h25.6v-25.6h-25.6v25.6z m51.2 0h25.6v-25.6h-25.6v25.6z m51.2 0h25.6v-25.6h-25.6v25.6z m51.2 0h25.6v-25.6h-25.6v25.6zM204.8 844.8h25.6v-25.6H204.8v25.6z m51.2 0h25.6v-25.6h-25.6v25.6z m51.2 0h25.6v-25.6h-25.6v25.6z m51.2 0h25.6v-25.6h-25.6v25.6z m51.2 0h25.6v-25.6h-25.6v25.6z m51.2 0h25.6v-25.6h-25.6v25.6z" fill="#777677" p-id="93672"></path><path d="M460.8 179.2h25.6v665.6h-25.6z" fill="#777677" p-id="93673"></path><path d="M537.6 179.2h25.6v665.6h-25.6z" fill="#777677" p-id="93674"></path><path d="M486.4 153.6h51.2v716.8h-51.2z" fill="#FFFFFF" p-id="93675"></path><path d="M332.8 641.024h205.824v128H332.8z" fill="#FFFFFF" p-id="93676"></path><path d="M512.256 564.224V849.92l165.376-142.848z" fill="#FFFFFF" p-id="93677"></path><path d="M358.656 666.112h186.624v76.8h-186.624z" fill="#FF806C" p-id="93678"></path><path d="M538.624 616.448v178.176l101.632-90.112z" fill="#FF806C" p-id="93679"></path></svg>