<svg id="图层_1" data-name="图层 1" xmlns="http://www.w3.org/2000/svg" viewBox="0 0 230 223"><polygon points="144.83 106.09 154.06 109.34 180.15 98.48 165.49 156.62 140.48 167.48 107.34 156.62 75.81 167.48 49.74 156.62 64.41 98.48 87.23 108.26 85.05 118.57 71.48 111.52 60.06 151.73 75.82 158.79 106.8 148.46 139.95 158.79 157.88 151.73 170.92 111.52 154.06 119.67 147 116.4 144.83 106.09" style="fill:#3c84db"/><path d="M108.42,132.16h-7.06c0-16.85,3.25-33.14,6.51-48.9-7.06,10.86-12,34.24-12,48.41l-9.78,7.07L70.93,142c0-1.1,16.84-12,16.84-13C90,104,98.1,57.23,115,56.68c17.38-1.09,27.71,49.45,29.34,74.45,0,.54,10.33,9.29,10.33,9.77l-10.33-1.62s-9.73-6.57-9.73-7.12c0-14.13-4.9-38-12-48.9,3.25,16.3,6.52,31.51,6.52,49.45h-7.07c0-19-2.72-34.24-6.53-51.08C111.68,97.93,108.42,114.77,108.42,132.16Z" style="fill:#7896db"/><path d="M186.36,209H43.53A25.26,25.26,0,0,1,18,184V40.65A25.26,25.26,0,0,1,43,15.12H186.36a25.26,25.26,0,0,1,25.53,25h0V183.47a25.26,25.26,0,0,1-25,25.53h-.52ZM43.53,25.34A15,15,0,0,0,28.23,40.1V183.47A15,15,0,0,0,43,198.77H186.36A15,15,0,0,0,201.67,184V40.65A15.05,15.05,0,0,0,186.9,25.34Z" style="fill:#5d6d7e"/></svg>