<?xml version="1.0" standalone="no"?><!DOCTYPE svg PUBLIC "-//W3C//DTD SVG 1.1//EN" "http://www.w3.org/Graphics/SVG/1.1/DTD/svg11.dtd"><svg t="1715958598523" class="icon" viewBox="0 0 1024 1024" version="1.1" xmlns="http://www.w3.org/2000/svg" p-id="22007" xmlns:xlink="http://www.w3.org/1999/xlink" width="200" height="200"><path d="M512 1024l-418.856032-241.83786A56.785892 56.785892 0 0 1 64.785355 733.06672V282.14417a56.785892 56.785892 0 0 1 28.358613-49.095421L483.641387 7.553142a56.923221 56.923221 0 0 1 56.717226 0l390.497419 225.495607a56.785892 56.785892 0 0 1 28.358613 49.095421v450.92255a56.785892 56.785892 0 0 1-28.358613 49.09542zM512 34.332462a22.384765 22.384765 0 0 0-11.192382 2.952591L110.310199 262.780661A22.3161 22.3161 0 0 0 99.117817 282.14417v450.92255a22.3161 22.3161 0 0 0 11.192382 19.363509l401.689801 231.881445 401.689801-231.881445a22.522095 22.522095 0 0 0 11.192382-19.363509V282.14417a22.522095 22.522095 0 0 0-11.192382-19.363509L523.192382 37.285053A22.384765 22.384765 0 0 0 512 34.332462z" fill="#3B4C5A" p-id="22008"></path><path d="M251.965936 508.669751h-41.198954a17.166231 17.166231 0 0 1 0-34.332461h41.198954a17.166231 17.166231 0 1 1 0 34.332461zM714.286864 508.669751H637.24482a17.166231 17.166231 0 0 1 0-34.332461h77.042044a17.166231 17.166231 0 0 1 0 34.332461z m-154.152753 0H483.092067a17.166231 17.166231 0 0 1 0-34.332461h77.042044a17.166231 17.166231 0 0 1 0 34.332461z m-154.084088 0H329.00798a17.166231 17.166231 0 0 1 0-34.332461H406.050023a17.166231 17.166231 0 0 1 0 34.332461zM832.527862 508.669751h-41.198954a17.166231 17.166231 0 0 1 0-34.332461h41.198954a17.166231 17.166231 0 0 1 0 34.332461zM671.508617 736.019312c-4.05123 0-7.965131 0-11.604372-0.549319a145.020318 145.020318 0 0 1-107.117281-63.652384c-12.428351-19.226179-20.599477-54.313954-25.886676-113.915108a17.166231 17.166231 0 1 1 34.332462-3.089921c4.73788 51.567357 11.604372 84.595185 20.599477 98.259505a111.44317 111.44317 0 0 0 81.230604 48.065446c40.786964 3.501911 83.565212-17.44089 123.596862-60.493797a17.166231 17.166231 0 1 1 25.200027 23.277409c-54.176624 58.15919-104.508013 72.098169-140.351103 72.098169zM536.170053 452.639174a17.166231 17.166231 0 0 1-17.097566-16.067592c-1.029974-15.930262-3.364581-53.28398-7.965131-66.192986-13.732985-39.070341-35.156441-63.103064-63.721049-71.27419-70.587541-20.599477-165.757125 54.931939-166.718433 55.755917a17.166231 17.166231 0 0 1-21.492121-26.77932c4.46322-3.570576 109.863877-87.067123 197.617649-61.798431 39.89432 11.192382 69.076913 42.709582 86.723798 92.697647 5.081204 14.488299 7.621806 40.58097 9.819084 75.531415a17.097566 17.097566 0 0 1-16.067592 18.196205z" fill="#23896D" p-id="22009"></path></svg>