<?xml version="1.0" encoding="utf-8"?>
<!-- Generator: Adobe Illustrator 26.0.0, SVG Export Plug-In . SVG Version: 6.00 Build 0)  -->
<svg version="1.1" id="图层_1" xmlns="http://www.w3.org/2000/svg" xmlns:xlink="http://www.w3.org/1999/xlink" x="0px" y="0px"
	 viewBox="0 0 280.5 280.5" style="enable-background:new 0 0 280.5 280.5;" xml:space="preserve">
<style type="text/css">
	.st0{display:none;}
	.st1{display:inline;fill:none;}
	.st2{fill:none;}
	.st3{fill:none;stroke:#5D6D7E;stroke-width:8;stroke-linejoin:round;}
</style>
<g id="patch_1" class="st0">
	<path class="st1" d="M0,280.5h280.5V0H0V280.5z"/>
</g>
<g id="axes_1">
	<g id="PolyCollection_1">
		<rect x="7.2" y="7.2" class="st2" width="266.1" height="266.1"/>
		<path class="st3" d="M99.9,220.9h40.3v40.3H99.9V220.9z"/>
		<rect x="7.2" y="7.2" class="st2" width="266.1" height="266.1"/>
		<path class="st3" d="M140.3,220.9h40.3v40.3h-40.3V220.9z"/>
		<rect x="7.2" y="7.2" class="st2" width="266.1" height="266.1"/>
		<path class="st3" d="M180.6,220.9h40.3v40.3h-40.3V220.9z"/>
		<rect x="7.2" y="7.2" class="st2" width="266.1" height="266.1"/>
		<path class="st3" d="M59.6,180.6h40.3v40.3H59.6V180.6z"/>
		<rect x="7.2" y="7.2" class="st2" width="266.1" height="266.1"/>
		<path class="st3" d="M99.9,180.6h40.3v40.3H99.9V180.6z"/>
		<rect x="7.2" y="7.2" class="st2" width="266.1" height="266.1"/>
		<path class="st3" d="M140.3,180.6h40.3v40.3h-40.3V180.6z"/>
		<rect x="7.2" y="7.2" class="st2" width="266.1" height="266.1"/>
		<path class="st3" d="M180.6,180.6h40.3v40.3h-40.3V180.6z"/>
		<rect x="7.2" y="7.2" class="st2" width="266.1" height="266.1"/>
		<path class="st3" d="M220.9,180.6h40.3v40.3h-40.3V180.6z"/>
		<rect x="7.2" y="7.2" class="st2" width="266.1" height="266.1"/>
		<path class="st3" d="M59.6,140.3h40.3v40.3H59.6V140.3z"/>
		<rect x="7.2" y="7.2" class="st2" width="266.1" height="266.1"/>
		<path class="st3" d="M99.9,140.3h40.3v40.3H99.9V140.3z"/>
		<rect x="7.2" y="7.2" class="st2" width="266.1" height="266.1"/>
		<path class="st3" d="M140.3,140.3h40.3v40.3h-40.3V140.3z"/>
		<rect x="7.2" y="7.2" class="st2" width="266.1" height="266.1"/>
		<path class="st3" d="M180.6,140.3h40.3v40.3h-40.3V140.3z"/>
		<rect x="7.2" y="7.2" class="st2" width="266.1" height="266.1"/>
		<path class="st3" d="M220.9,140.3h40.3v40.3h-40.3V140.3z"/>
		<rect x="7.2" y="7.2" class="st2" width="266.1" height="266.1"/>
		<path class="st3" d="M19.3,99.9h40.3v40.3H19.3V99.9z"/>
		<rect x="7.2" y="7.2" class="st2" width="266.1" height="266.1"/>
		<path class="st3" d="M59.6,99.9h40.3v40.3H59.6V99.9z"/>
		<rect x="7.2" y="7.2" class="st2" width="266.1" height="266.1"/>
		<path class="st3" d="M99.9,99.9h40.3v40.3H99.9V99.9z"/>
		<rect x="7.2" y="7.2" class="st2" width="266.1" height="266.1"/>
		<path class="st3" d="M140.3,99.9h40.3v40.3h-40.3V99.9z"/>
		<rect x="7.2" y="7.2" class="st2" width="266.1" height="266.1"/>
		<path class="st3" d="M180.6,99.9h40.3v40.3h-40.3V99.9z"/>
		<rect x="7.2" y="7.2" class="st2" width="266.1" height="266.1"/>
		<path class="st3" d="M220.9,99.9h40.3v40.3h-40.3V99.9z"/>
		<rect x="7.2" y="7.2" class="st2" width="266.1" height="266.1"/>
		<path class="st3" d="M19.3,59.6h40.3v40.3H19.3V59.6z"/>
		<rect x="7.2" y="7.2" class="st2" width="266.1" height="266.1"/>
		<path class="st3" d="M59.6,59.6h40.3v40.3H59.6V59.6z"/>
		<rect x="7.2" y="7.2" class="st2" width="266.1" height="266.1"/>
		<path class="st3" d="M99.9,59.6h40.3v40.3H99.9V59.6z"/>
		<rect x="7.2" y="7.2" class="st2" width="266.1" height="266.1"/>
		<path class="st3" d="M140.3,59.6h40.3v40.3h-40.3V59.6z"/>
		<rect x="7.2" y="7.2" class="st2" width="266.1" height="266.1"/>
		<path class="st3" d="M180.6,59.6h40.3v40.3h-40.3V59.6z"/>
		<rect x="7.2" y="7.2" class="st2" width="266.1" height="266.1"/>
		<path class="st3" d="M59.6,19.3h40.3v40.3H59.6V19.3z"/>
		<rect x="7.2" y="7.2" class="st2" width="266.1" height="266.1"/>
		<path class="st3" d="M99.9,19.3h40.3v40.3H99.9V19.3z"/>
		<rect x="7.2" y="7.2" class="st2" width="266.1" height="266.1"/>
		<path class="st3" d="M140.3,19.3h40.3v40.3h-40.3V19.3z"/>
	</g>
</g>
</svg>
