<?xml version="1.0" encoding="utf-8"?>
<!-- Generator: Adobe Illustrator 26.0.0, SVG Export Plug-In . SVG Version: 6.00 Build 0)  -->
<svg version="1.1" id="图层_1" xmlns="http://www.w3.org/2000/svg" xmlns:xlink="http://www.w3.org/1999/xlink" x="0px" y="0px"
	 viewBox="0 0 300 300" style="enable-background:new 0 0 300 300;" xml:space="preserve">
<style type="text/css">
	.st0{fill:#DEDEDE;}
	.st1{fill:#A6A6A6;}
</style>
<g>
	<path class="st0" d="M228.5,55c3.1,0,5.6-2.5,5.6-5.6s-2.5-5.6-5.6-5.6h-5.6v-5.6c0-3.1-2.5-5.6-5.6-5.6s-5.6,2.5-5.6,5.6v5.6
		h-22.4v-5.6c0-3.1-2.5-5.6-5.6-5.6c-3.1,0-5.6,2.5-5.6,5.6v5.6h-22.4v-5.6c0-3.1-2.5-5.6-5.6-5.6c-3.1,0-5.6,2.5-5.6,5.6v5.6h-22.4
		v-5.6c0-3.1-2.5-5.6-5.6-5.6c-3.1,0-5.6,2.5-5.6,5.6v5.6H88.2v-5.6c0-3.1-2.5-5.6-5.6-5.6c-3.1,0-5.6,2.5-5.6,5.6v5.6H54.6v-5.6
		c0-3.1-2.5-5.6-5.6-5.6s-5.6,2.5-5.6,5.6v5.6h-5.6c-3.1,0-5.6,2.5-5.6,5.6s2.5,5.6,5.6,5.6h5.6v22.4h-5.6c-3.1,0-5.6,2.5-5.6,5.6
		c0,3.1,2.5,5.6,5.6,5.6h5.6v22.4h-5.6c-3.1,0-5.6,2.5-5.6,5.6c0,3.1,2.5,5.6,5.6,5.6h5.6v22.4h-5.6c-3.1,0-5.6,2.5-5.6,5.6
		c0,3.1,2.5,5.6,5.6,5.6h5.6v22.4h-5.6c-3.1,0-5.6,2.5-5.6,5.6s2.5,5.6,5.6,5.6h5.6v22.4h-5.6c-3.1,0-5.6,2.5-5.6,5.6
		s2.5,5.6,5.6,5.6h5.6v5.6c0,3.1,2.5,5.6,5.6,5.6s5.6-2.5,5.6-5.6v-5.6H77v5.6c0,3.1,2.5,5.6,5.6,5.6c3.1,0,5.6-2.5,5.6-5.6v-5.6
		h22.4v5.6c0,3.1,2.5,5.6,5.6,5.6c3.1,0,5.6-2.5,5.6-5.6v-5.6h22.4v5.6c0,3.1,2.5,5.6,5.6,5.6c3.1,0,5.6-2.5,5.6-5.6v-5.6H178v5.6
		c0,3.1,2.5,5.6,5.6,5.6c3.1,0,5.6-2.5,5.6-5.6v-5.6h22.4v5.6c0,3.1,2.5,5.6,5.6,5.6s5.6-2.5,5.6-5.6v-5.6h5.6
		c3.1,0,5.6-2.5,5.6-5.6s-2.5-5.6-5.6-5.6h-5.6v-22.4h5.6c3.1,0,5.6-2.5,5.6-5.6s-2.5-5.6-5.6-5.6h-5.6V156h5.6
		c3.1,0,5.6-2.5,5.6-5.6c0-3.1-2.5-5.6-5.6-5.6h-5.6v-22.4h5.6c3.1,0,5.6-2.5,5.6-5.6c0-3.1-2.5-5.6-5.6-5.6h-5.6V88.7h5.6
		c3.1,0,5.6-2.5,5.6-5.6c0-3.1-2.5-5.6-5.6-5.6h-5.6V55H228.5z M178,55v22.4h-22.4V55H178z M144.3,178.4h-22.4V156h22.4V178.4z
		 M110.7,111.1H88.2V88.7h22.4V111.1z M121.9,88.7h22.4v22.4h-22.4V88.7z M110.7,122.3v22.4H88.2v-22.4H110.7z M110.7,156v22.4H88.2
		V156H110.7z M121.9,144.8v-22.4h22.4v22.4H121.9z M155.5,122.3H178v22.4h-22.4V122.3z M155.5,111.1V88.7H178v22.4H155.5z M144.3,55
		v22.4h-22.4V55H144.3z M54.6,55H77c0,3.1,2.5,5.6,5.6,5.6c3.1,0,5.6-2.5,5.6-5.6h22.4v22.4H88.2c0-3.1-2.5-5.6-5.6-5.6
		c-3.1,0-5.6,2.5-5.6,5.6H54.6V55z M54.6,88.7H77v22.4H54.6V88.7z M54.6,122.3H77v22.4H54.6V122.3z M54.6,156H77v22.4H54.6V156z
		 M54.6,212.1v-22.4H77v22.4H54.6z M88.2,212.1v-22.4h22.4v22.4H88.2z M121.9,212.1v-22.4h22.4v22.4H121.9z M155.5,212.1V156H178
		v22.4h-5.6c-3.1,0-5.6,2.5-5.6,5.6s2.5,5.6,5.6,5.6h5.6v22.4H155.5z M211.6,212.1h-22.4v-22.4h22.4V212.1z M211.6,178.4h-22.4V156
		h22.4V178.4z M211.6,144.8h-22.4v-22.4h22.4V144.8z M211.6,111.1h-22.4V88.7h22.4V111.1z M211.6,77.5h-22.4V55h22.4V77.5z"/>
	<path class="st1" d="M262.3,87.9c3.1,0,5.6-2.5,5.6-5.6c0-3.1-2.5-5.6-5.6-5.6h-5.6v-5.6c0-3.1-2.5-5.6-5.6-5.6s-5.6,2.5-5.6,5.6
		v5.6H223v-5.6c0-3.1-2.5-5.6-5.6-5.6c-3.1,0-5.6,2.5-5.6,5.6v5.6h-22.4v-5.6c0-3.1-2.5-5.6-5.6-5.6s-5.6,2.5-5.6,5.6v5.6h-22.4
		v-5.6c0-3.1-2.5-5.6-5.6-5.6c-3.1,0-5.6,2.5-5.6,5.6v5.6H122v-5.6c0-3.1-2.5-5.6-5.6-5.6c-3.1,0-5.6,2.5-5.6,5.6v5.6H88.4v-5.6
		c0-3.1-2.5-5.6-5.6-5.6c-3.1,0-5.6,2.5-5.6,5.6v5.6h-5.6c-3.1,0-5.6,2.5-5.6,5.6c0,3.1,2.5,5.6,5.6,5.6h5.6v22.4h-5.6
		c-3.1,0-5.6,2.5-5.6,5.6c0,3.1,2.5,5.6,5.6,5.6h5.6V144h-5.6c-3.1,0-5.6,2.5-5.6,5.6c0,3.1,2.5,5.6,5.6,5.6h5.6v22.4h-5.6
		c-3.1,0-5.6,2.5-5.6,5.6s2.5,5.6,5.6,5.6h5.6v22.4h-5.6c-3.1,0-5.6,2.5-5.6,5.6c0,3.1,2.5,5.6,5.6,5.6h5.6V245h-5.6
		c-3.1,0-5.6,2.5-5.6,5.6c0,3.1,2.5,5.6,5.6,5.6h5.6v5.6c0,3.1,2.5,5.6,5.6,5.6c3.1,0,5.6-2.5,5.6-5.6v-5.6h22.4v5.6
		c0,3.1,2.5,5.6,5.6,5.6c3.1,0,5.6-2.5,5.6-5.6v-5.6h22.4v5.6c0,3.1,2.5,5.6,5.6,5.6c3.1,0,5.6-2.5,5.6-5.6v-5.6h22.4v5.6
		c0,3.1,2.5,5.6,5.6,5.6s5.6-2.5,5.6-5.6v-5.6h22.4v5.6c0,3.1,2.5,5.6,5.6,5.6c3.1,0,5.6-2.5,5.6-5.6v-5.6h22.4v5.6
		c0,3.1,2.5,5.6,5.6,5.6s5.6-2.5,5.6-5.6v-5.6h5.6c3.1,0,5.6-2.5,5.6-5.6c0-3.1-2.5-5.6-5.6-5.6h-5.6v-22.4h5.6
		c3.1,0,5.6-2.5,5.6-5.6c0-3.1-2.5-5.6-5.6-5.6h-5.6v-22.4h5.6c3.1,0,5.6-2.5,5.6-5.6s-2.5-5.6-5.6-5.6h-5.6v-22.4h5.6
		c3.1,0,5.6-2.5,5.6-5.6c0-3.1-2.5-5.6-5.6-5.6h-5.6v-22.4h5.6c3.1,0,5.6-2.5,5.6-5.6c0-3.1-2.5-5.6-5.6-5.6h-5.6V87.9H262.3z
		 M211.8,87.9v22.4h-22.4V87.9H211.8z M178.1,211.3h-22.4v-22.4h22.4V211.3z M144.5,144H122v-22.4h22.4V144z M155.7,121.6h22.4V144
		h-22.4V121.6z M144.5,155.2v22.4H122v-22.4H144.5z M144.5,188.9v22.4H122v-22.4H144.5z M155.7,177.7v-22.4h22.4v22.4H155.7z
		 M189.3,155.2h22.4v22.4h-22.4V155.2z M189.3,144v-22.4h22.4V144H189.3z M178.1,87.9v22.4h-22.4V87.9H178.1z M88.4,87.9h22.4
		c0,3.1,2.5,5.6,5.6,5.6c3.1,0,5.6-2.5,5.6-5.6h22.4v22.4H122c0-3.1-2.5-5.6-5.6-5.6c-3.1,0-5.6,2.5-5.6,5.6H88.4V87.9z M88.4,121.6
		h22.4V144H88.4V121.6z M88.4,155.2h22.4v22.4H88.4V155.2z M88.4,188.9h22.4v22.4H88.4V188.9z M88.4,245v-22.4h22.4V245H88.4z
		 M122,245v-22.4h22.4V245H122z M155.7,245v-22.4h22.4V245H155.7z M189.3,245v-56.1h22.4v22.4h-5.6c-3.1,0-5.6,2.5-5.6,5.6
		c0,3.1,2.5,5.6,5.6,5.6h5.6V245H189.3z M245.4,245H223v-22.4h22.4V245z M245.4,211.3H223v-22.4h22.4V211.3z M245.4,177.7H223v-22.4
		h22.4V177.7z M245.4,144H223v-22.4h22.4V144z M245.4,110.4H223V87.9h22.4V110.4z"/>
</g>
</svg>
