<svg id="图层_1" data-name="图层 1" xmlns="http://www.w3.org/2000/svg" viewBox="0 0 152.78 152.78"><path d="M148.57,41a76.67,76.67,0,1,0,19.09,23.55A76.2,76.2,0,0,0,148.57,41ZM88.79,72.14a112.21,112.21,0,0,0,21.51-15.6.27.27,0,0,1,.4,0A106.69,106.69,0,0,1,129.6,81a.31.31,0,0,1-.13.4L101.35,96.14A.3.3,0,0,1,101,96L88.67,72.53A.3.3,0,0,1,88.79,72.14Zm-3-5.06L71,38.8a.29.29,0,0,1,.14-.4,68.48,68.48,0,0,1,7.5-3,.34.34,0,0,1,.2,0,105.87,105.87,0,0,1,27.25,17,.29.29,0,0,1,0,.44,106.63,106.63,0,0,1-19.9,14.38A.26.26,0,0,1,85.82,67.08Zm-5.06,3a105.47,105.47,0,0,1-23,8.06.3.3,0,0,1-.36-.26A106,106,0,0,1,59,45.8a.23.23,0,0,1,.11-.17,64.58,64.58,0,0,1,6.57-4.37.3.3,0,0,1,.42.12L80.9,69.65A.33.33,0,0,1,80.76,70.06Zm3,5L96,98.61a.3.3,0,0,1-.12.4L68,113.63a.28.28,0,0,1-.39-.12A106.94,106.94,0,0,1,58.23,84a.28.28,0,0,1,.22-.33A112.19,112.19,0,0,0,83.35,75,.27.27,0,0,1,83.74,75.11ZM62.5,116.47,38.76,128.89a.3.3,0,0,1-.41-.14,67.82,67.82,0,0,1-5-42.22.3.3,0,0,1,.29-.24,112.07,112.07,0,0,0,18.75-1.45.29.29,0,0,1,.33.25,112.12,112.12,0,0,0,9.9,31A.27.27,0,0,1,62.5,116.47Zm3,5.06A110.66,110.66,0,0,0,85.3,147.35a.3.3,0,0,1,0,.41,110.14,110.14,0,0,0-11.88,14.57.32.32,0,0,1-.37.11,67.62,67.62,0,0,1-31.83-28.19.29.29,0,0,1,.12-.41l23.72-12.41a.28.28,0,0,1,.39.1Zm5.08-3,27.95-14.63a.31.31,0,0,1,.4.13l12.29,23.5a.27.27,0,0,1-.12.39,111.89,111.89,0,0,0-21.35,15.52.3.3,0,0,1-.41,0A106.86,106.86,0,0,1,70.41,119a.31.31,0,0,1,.13-.42ZM114,133l14.79,28.28a.29.29,0,0,1-.14.4,63.62,63.62,0,0,1-7.34,2.91.34.34,0,0,1-.2,0,106.24,106.24,0,0,1-27.23-17,.29.29,0,0,1,0-.44,106.87,106.87,0,0,1,19.74-14.3A.28.28,0,0,1,114,133Zm5-3a107.36,107.36,0,0,1,23.16-8.15.29.29,0,0,1,.35.26A105.77,105.77,0,0,1,141,154.19a.18.18,0,0,1-.11.16,65.84,65.84,0,0,1-6.73,4.45.3.3,0,0,1-.41-.11l-14.79-28.26A.33.33,0,0,1,119.08,130Zm-3-5.05-12.3-23.5a.31.31,0,0,1,.12-.4L132,86.37a.28.28,0,0,1,.39.12A105,105,0,0,1,141.77,116a.28.28,0,0,1-.22.33,112.29,112.29,0,0,0-25.07,8.78.26.26,0,0,1-.37-.11ZM137.5,83.53l23.72-12.41a.29.29,0,0,1,.41.14,67.58,67.58,0,0,1,5,42.21.31.31,0,0,1-.29.25,108.89,108.89,0,0,0-18.74,1.47.28.28,0,0,1-.32-.25,112,112,0,0,0-9.91-31,.31.31,0,0,1,.13-.4Zm-3-5.06a111.39,111.39,0,0,0-19.82-25.83.31.31,0,0,1,0-.41,111.31,111.31,0,0,0,11.89-14.57.29.29,0,0,1,.36-.1,67.5,67.5,0,0,1,31.83,28.18.3.3,0,0,1-.11.41L134.91,78.58a.27.27,0,0,1-.37-.11ZM121.13,35.78A108.62,108.62,0,0,1,110.59,48.5a.3.3,0,0,1-.41,0A112,112,0,0,0,88,33.56a.29.29,0,0,1,.09-.55A68,68,0,0,1,121,35.32.31.31,0,0,1,121.13,35.78ZM52.24,52.29A110.58,110.58,0,0,0,51.9,79a.32.32,0,0,1-.25.33A105.48,105.48,0,0,1,35.2,80.76a.3.3,0,0,1-.29-.38A68.36,68.36,0,0,1,51.75,52.06.28.28,0,0,1,52.24,52.29ZM78.87,164.22A108.62,108.62,0,0,1,89.41,151.5a.3.3,0,0,1,.41,0A112,112,0,0,0,112,166.44a.29.29,0,0,1-.09.55A68,68,0,0,1,79,164.68.31.31,0,0,1,78.87,164.22Zm68.89-16.51a110.92,110.92,0,0,0,.35-26.7.32.32,0,0,1,.25-.33,104.18,104.18,0,0,1,16.45-1.42.3.3,0,0,1,.29.38A68.27,68.27,0,0,1,148.26,148a.29.29,0,0,1-.5-.24Z" transform="translate(-23.61 -23.61)" style="fill:#10a3f1"/></svg>