<?xml version="1.0" encoding="utf-8"?>
<!-- Generator: Adobe Illustrator 26.0.0, SVG Export Plug-In . SVG Version: 6.00 Build 0)  -->
<svg version="1.1" id="图层_1" xmlns="http://www.w3.org/2000/svg" xmlns:xlink="http://www.w3.org/1999/xlink" x="0px" y="0px"
	 viewBox="0 0 200 200" style="enable-background:new 0 0 200 200;" xml:space="preserve">
<style type="text/css">
	.st0{fill:#5D6D7E;}
	.st1{fill:#CCCCCC;}
</style>
<path class="st0" d="M121.9,90.8c-0.2-0.9,0.1-1.7,0.6-2.4c11-14.7,21.5-19.9,31-14.4c7.9,4.7,17.9,12.6,29.9,23.7
	c1.3,1.2,1.3,3.2,0.2,4.4s-3.2,1.3-4.4,0.2l0,0c-11.7-10.9-21.4-18.5-28.8-22.9c-5.9-3.5-13.4,0.3-22.8,12.7
	c-0.5,0.7-1.2,1.1-2.1,1.2c12.8,9.8,30,27.5,52,53.5c1.1,1.3,0.9,3.3-0.4,4.4s-3.3,0.9-4.4-0.4l0,0c-32.9-38.9-55.2-59.1-65.4-60.2
	c-7.6-0.8-13.5,6.8-21.6,25.1c-0.7,1.5-2.9,6.6-2.9,6.4c-1.1,2.6-2,4.4-2.8,6.2c-0.8,1.7-1.7,3.4-2.6,5.1
	c-19,34.5-40.6,34.5-61.3,0.1c-0.9-1.5-0.4-3.4,1.1-4.3c1.5-0.9,3.4-0.4,4.3,1.1l0,0c18.2,30.3,33.8,30.3,50.4,0.1
	c0.8-1.4,1.6-3,2.4-4.8c0.8-1.7,1.6-3.5,2.7-6l2.9-6.5c9.3-20.9,16.4-29.9,28-28.7C111.6,84.8,116.3,86.9,121.9,90.8L121.9,90.8z
	 M16.2,46.9c-1-1.4-0.7-3.3,0.7-4.4s3.3-0.7,4.4,0.7l0,0C34.8,61.5,45.6,64,55.5,52l3.9-4.7c1.6-1.9,2.8-3.4,4.1-4.9
	c23.9-28.1,42.3-36.3,63.4-16.2c26,24.7,36.5,31.4,48.2,31.4c1.7,0,3.1,1.4,3.1,3.1c0,1.7-1.4,3.1-3.1,3.1
	c-13.8,0-25.3-7.3-52.5-33.1c-17.5-16.6-32.4-10-54.3,15.7c-1.2,1.4-2.4,2.9-4,4.8c-0.1,0.1-3,3.7-3.9,4.7
	C47.3,71.6,31.9,68.1,16.2,46.9L16.2,46.9z"/>
<path class="st1" d="M33.9,81.1c0,0-20.9,6.6-20.9,19.6c0,11.4,7.4,22,16.3,23.8c12.1,0,15.4,1.6,22.9-3.7s18.6-8.6,26.6-19.4
	s13.3-16.7,15-20.2s8.4-23.7,6.3-31.6S82.6,44.8,80,46.9C77.3,49,62.9,67.2,58.4,70.7S33.9,81.1,33.9,81.1z"/>
</svg>
