<?xml version="1.0" encoding="utf-8"?>
<!-- Generator: Adobe Illustrator 26.0.0, SVG Export Plug-In . SVG Version: 6.00 Build 0)  -->
<svg version="1.1" id="图层_1" xmlns="http://www.w3.org/2000/svg" xmlns:xlink="http://www.w3.org/1999/xlink" x="0px" y="0px"
	 viewBox="0 0 200 200" style="enable-background:new 0 0 200 200;" xml:space="preserve">
<style type="text/css">
	.st0{fill:#FFFFFF;}
	.st1{fill:#5D6D7E;}
	.st2{fill:#30AD98;}
	.st3{fill:#C49F74;}
</style>
<path class="st0" d="M137.5,181.2V62.5h43.8v118.8H137.5z M18.8,181.2V62.5h43.8v118.8H18.8z M75,118.7V12.5h50v106.2H75z"/>
<path class="st1" d="M137.5,181.2V62.5h43.8v118.8H137.5z M143.8,175H175V68.7h-31.2V175z M18.8,181.2V62.5h43.8v118.8H18.8z
	 M25,175h31.2V68.7H25V175z M25,125v-6.2h31.2v6.2H25z M143.8,125v-6.2H175v6.2H143.8z"/>
<path class="st2" d="M75,118.7V12.5h50v106.2H75z M81.2,112.5h37.5V18.7H81.2V112.5z"/>
<path class="st3" d="M93.8,162.5h-25V150h25v-25h12.5v25h25v12.5h-25v25H93.8V162.5z"/>
</svg>
