<?xml version="1.0" encoding="utf-8"?>
<!-- Generator: Adobe Illustrator 26.0.0, SVG Export Plug-In . SVG Version: 6.00 Build 0)  -->
<svg version="1.1" id="图层_1" xmlns="http://www.w3.org/2000/svg" xmlns:xlink="http://www.w3.org/1999/xlink" x="0px" y="0px"
	 viewBox="0 0 200 200" style="enable-background:new 0 0 200 200;" xml:space="preserve">
<style type="text/css">
	.st0{fill:#FFFFFF;}
	.st1{fill:#5D6D7E;}
	.st2{fill:#27A2DF;}
</style>
<path class="st0" d="M19,73h162c5.1,0,7.7,2.6,7.7,7.7v108c0,5.1-2.6,7.7-7.7,7.7H19c-5.1,0-7.7-2.6-7.7-7.7v-108
	C11.3,75.5,13.9,73,19,73z"/>
<path class="st1" d="M15.2,69.1h169.7c4.3,0,7.7,3.5,7.7,7.7v115.7c0,4.3-3.5,7.7-7.7,7.7H15.2c-4.3,0-7.7-3.5-7.7-7.7V76.8
	C7.5,72.6,10.9,69.1,15.2,69.1z M15.2,76.8v115.7h169.7V76.8H15.2z"/>
<path class="st2" d="M96.1,147.5V3.6c0-2.1,1.7-3.9,3.9-3.9s3.9,1.7,3.9,3.9v143.8l31.9-34.7c1.4-1.6,3.9-1.7,5.4-0.2
	c1.6,1.4,1.7,3.9,0.2,5.4l0,0l-41.4,45l-41.4-45c-1.4-1.6-1.3-4,0.2-5.4c1.6-1.4,4-1.3,5.4,0.2L96.1,147.5z"/>
</svg>
