<?xml version="1.0" standalone="no"?><!DOCTYPE svg PUBLIC "-//W3C//DTD SVG 1.1//EN" "http://www.w3.org/Graphics/SVG/1.1/DTD/svg11.dtd"><svg t="1715951499939" class="icon" viewBox="0 0 1024 1024" version="1.1" xmlns="http://www.w3.org/2000/svg" p-id="42154" xmlns:xlink="http://www.w3.org/1999/xlink" width="200" height="200"><path d="M387.84 988.8A217.6 217.6 0 0 1 280.96 960a172.8 172.8 0 0 1-81.92-211.2c7.68-22.4-21.76-67.2-50.56-110.08C96 561.92 31.36 464 76.8 364.8c64-139.52 160.64-161.28 339.2-155.52a154.24 154.24 0 0 0 151.04-64 168.32 168.32 0 0 1 112.64-74.88 256 256 0 0 1 220.8 57.6 339.84 339.84 0 0 1 87.68 282.24c-23.68 398.72-119.68 429.44-252.16 430.08a171.52 171.52 0 0 0-150.4 51.84 259.2 259.2 0 0 1-197.76 96.64zM112 384c-37.12 80 19.2 163.84 68.48 238.08 37.12 55.04 68.48 103.04 55.04 143.36a135.04 135.04 0 0 0 64 165.76 204.16 204.16 0 0 0 256-64 205.44 205.44 0 0 1 179.2-64c102.4 0 192 0 213.76-393.6a305.28 305.28 0 0 0-73.6-256 224 224 0 0 0-188.8-45.44 133.76 133.76 0 0 0-89.6 59.52 192 192 0 0 1-181.76 80c-187.52-6.4-252.16 22.4-303.36 136.32z" fill="#839DB1" p-id="42155"></path><path d="M426.24 815.36a178.56 178.56 0 0 1-96.64-27.52 103.68 103.68 0 0 1-43.52-128c0-8.96-21.12-39.68-35.84-58.24-37.12-46.72-87.68-111.36-51.84-176.64C245.76 336.64 316.16 320 448 326.4a115.84 115.84 0 0 0 105.6-39.04 131.84 131.84 0 0 1 83.84-45.44 209.28 209.28 0 0 1 173.44 44.16 204.16 204.16 0 0 1 54.4 168.96c-17.28 248.96-88.32 268.16-186.88 268.16a135.04 135.04 0 0 0-105.6 30.08 203.52 203.52 0 0 1-146.56 62.08z m-192-373.12c-23.04 43.52 15.36 92.16 48.64 135.04s53.12 64 41.6 96a64 64 0 0 0 29.44 82.56 158.08 158.08 0 0 0 192-29.44 170.88 170.88 0 0 1 132.48-41.6c73.6 0 132.48 0 148.48-232.32a163.2 163.2 0 0 0-42.24-138.24A172.16 172.16 0 0 0 640 279.68a90.88 90.88 0 0 0-64 34.56 149.12 149.12 0 0 1-128 50.56c-133.12-3.84-179.2 12.8-214.4 77.44z" fill="#839DB1" p-id="42156"></path><path d="M486.4 666.88a108.16 108.16 0 0 1-64-20.48 51.84 51.84 0 0 1-19.2-60.8 119.68 119.68 0 0 0-19.2-17.28c-19.84-21.12-53.76-56.32-29.44-93.44s69.76-50.56 142.08-48.64a64 64 0 0 0 51.84-15.36 81.92 81.92 0 0 1 49.28-22.4 133.12 133.12 0 0 1 106.24 28.16 94.08 94.08 0 0 1 26.24 79.36c-10.24 119.68-55.68 128-110.08 128a76.8 76.8 0 0 0-51.84 11.52 135.68 135.68 0 0 1-81.92 31.36z m-7.04-202.24c-55.04 0-76.16 7.68-91.52 30.72-6.4 10.24 3.2 23.68 25.6 46.08s33.92 35.84 23.68 56.32c0 3.2-4.48 10.24 6.4 18.56a90.24 90.24 0 0 0 102.4-8.32 110.08 110.08 0 0 1 76.16-20.48c38.4 0 64 0 71.68-94.72a56.96 56.96 0 0 0-14.72-48.64 94.08 94.08 0 0 0-75.52-17.28 45.44 45.44 0 0 0-27.52 13.44 98.56 98.56 0 0 1-78.08 24.32z m-107.52 20.48z" fill="#839DB1" p-id="42157"></path></svg>