<?xml version="1.0" standalone="no"?><!DOCTYPE svg PUBLIC "-//W3C//DTD SVG 1.1//EN" "http://www.w3.org/Graphics/SVG/1.1/DTD/svg11.dtd"><svg t="1716031411356" class="icon" viewBox="0 0 1024 1024" version="1.1" xmlns="http://www.w3.org/2000/svg" p-id="13845" xmlns:xlink="http://www.w3.org/1999/xlink" width="200" height="200"><path d="M176 112m32 0l608 0q32 0 32 32l0 736q0 32-32 32l-608 0q-32 0-32-32l0-736q0-32 32-32Z" fill="#FFFFFF" p-id="13846"></path><path d="M192 96h640a32 32 0 0 1 32 32v768a32 32 0 0 1-32 32H192a32 32 0 0 1-32-32V128a32 32 0 0 1 32-32z m0 32v768h640V128H192z" fill="#5D6D7E" p-id="13847"></path><path d="M368.032 320.48a16 16 0 0 1 0-32H528a16 16 0 1 1 0 32H368.032z m0 128a16 16 0 0 1 0-32h384a16 16 0 1 1 0 32h-384z m0 352a16 16 0 0 1 0-32H624a16 16 0 1 1 0 32H368.032zM368 544a16 16 0 1 1 0-32h385.408a16 16 0 1 1 0 32H368z m0 160a16 16 0 1 1 0-32h385.408a16 16 0 1 1 0 32H368zM272.032 320.48a16 16 0 0 1 0-32H304a16 16 0 1 1 0 32h-31.968z m0 128a16 16 0 0 1 0-32h32a16 16 0 1 1 0 32h-32z m0 352a16 16 0 0 1 0-32H304a16 16 0 1 1 0 32h-31.968zM272 544a16 16 0 1 1 0-32h33.408a16 16 0 1 1 0 32H272z m0 160a16 16 0 1 1 0-32h33.408a16 16 0 1 1 0 32H272z" fill="#C49F74" p-id="13848"></path></svg>