<svg id="图层_1" data-name="图层 1" xmlns="http://www.w3.org/2000/svg" xmlns:xlink="http://www.w3.org/1999/xlink" viewBox="0 0 167.86 167.86"><defs><clipPath id="clip-path" transform="translate(0.05 0.05)"><path d="M162.73,83.88a78.8,78.8,0,1,0-6,30.17,78.87,78.87,0,0,0,6-30.17m-78.85,0Z" style="fill:none"/></clipPath></defs><g id="figure_1" data-name="figure 1"><g id="axes_1" data-name="axes 1"><g id="patch_2" data-name="patch 2"><path d="M83.88,83.88h83.93a84,84,0,1,1-6.39-32.12,83.89,83.89,0,0,1,6.39,32.12Z" transform="translate(0.05 0.05)" style="fill:#fff;fill-opacity:0.8999999761581421"/></g><g id="matplotlib.axis_1" data-name="matplotlib.axis 1"><g id="xtick_1" data-name="xtick 1"><g id="line2d_1" data-name="line2d 1"><g style="clip-path:url(#clip-path)"><path d="M83.88,83.88h78.85" transform="translate(0.05 0.05)" style="fill:none;stroke:#e6e6e6;stroke-linecap:square;stroke-linejoin:round"/></g></g></g><g id="xtick_2" data-name="xtick 2"><g id="line2d_2" data-name="line2d 2"><g style="clip-path:url(#clip-path)"><path d="M83.88,83.88l55.75-55.75" transform="translate(0.05 0.05)" style="fill:none;stroke:#e6e6e6;stroke-linecap:square;stroke-linejoin:round"/></g></g></g><g id="xtick_3" data-name="xtick 3"><g id="line2d_3" data-name="line2d 3"><g style="clip-path:url(#clip-path)"><path d="M83.88,83.88V5" transform="translate(0.05 0.05)" style="fill:none;stroke:#e6e6e6;stroke-linecap:square;stroke-linejoin:round"/></g></g></g><g id="xtick_4" data-name="xtick 4"><g id="line2d_4" data-name="line2d 4"><g style="clip-path:url(#clip-path)"><path d="M83.88,83.88,28.13,28.13" transform="translate(0.05 0.05)" style="fill:none;stroke:#e6e6e6;stroke-linecap:square;stroke-linejoin:round"/></g></g></g><g id="xtick_5" data-name="xtick 5"><g id="line2d_5" data-name="line2d 5"><g style="clip-path:url(#clip-path)"><path d="M83.88,83.88H5" transform="translate(0.05 0.05)" style="fill:none;stroke:#e6e6e6;stroke-linecap:square;stroke-linejoin:round"/></g></g></g><g id="xtick_6" data-name="xtick 6"><g id="line2d_6" data-name="line2d 6"><g style="clip-path:url(#clip-path)"><path d="M83.88,83.88,28.13,139.63" transform="translate(0.05 0.05)" style="fill:none;stroke:#e6e6e6;stroke-linecap:square;stroke-linejoin:round"/></g></g></g><g id="xtick_7" data-name="xtick 7"><g id="line2d_7" data-name="line2d 7"><g style="clip-path:url(#clip-path)"><path d="M83.88,83.88v78.85" transform="translate(0.05 0.05)" style="fill:none;stroke:#e6e6e6;stroke-linecap:square;stroke-linejoin:round"/></g></g></g><g id="xtick_8" data-name="xtick 8"><g id="line2d_8" data-name="line2d 8"><g style="clip-path:url(#clip-path)"><path d="M83.88,83.88l55.75,55.75" transform="translate(0.05 0.05)" style="fill:none;stroke:#e6e6e6;stroke-linecap:square;stroke-linejoin:round"/></g></g></g></g><g id="matplotlib.axis_2" data-name="matplotlib.axis 2"><g id="ytick_1" data-name="ytick 1"><g id="line2d_9" data-name="line2d 9"><g style="clip-path:url(#clip-path)"><path d="M92.64,83.88A8.75,8.75,0,0,0,92,80.53a8.78,8.78,0,0,0-4.74-4.74,8.71,8.71,0,0,0-6.7,0,8.78,8.78,0,0,0-4.74,4.74,8.71,8.71,0,0,0,0,6.7A8.78,8.78,0,0,0,80.53,92a8.71,8.71,0,0,0,6.7,0A8.78,8.78,0,0,0,92,87.23a8.75,8.75,0,0,0,.67-3.35" transform="translate(0.05 0.05)" style="fill:none;stroke:#e6e6e6;stroke-linecap:square;stroke-linejoin:round"/></g></g></g><g id="ytick_2" data-name="ytick 2"><g id="line2d_10" data-name="line2d 10"><g style="clip-path:url(#clip-path)"><path d="M110.16,83.88a26.24,26.24,0,1,0-2,10.06,26.32,26.32,0,0,0,2-10.06" transform="translate(0.05 0.05)" style="fill:none;stroke:#e6e6e6;stroke-linecap:square;stroke-linejoin:round"/></g></g></g><g id="ytick_3" data-name="ytick 3"><g id="line2d_11" data-name="line2d 11"><g style="clip-path:url(#clip-path)"><path d="M127.68,83.88a43.75,43.75,0,1,0-3.33,16.76,43.8,43.8,0,0,0,3.33-16.76" transform="translate(0.05 0.05)" style="fill:none;stroke:#e6e6e6;stroke-linecap:square;stroke-linejoin:round"/></g></g></g><g id="ytick_4" data-name="ytick 4"><g id="line2d_12" data-name="line2d 12"><g style="clip-path:url(#clip-path)"><path d="M145.21,83.88a61.28,61.28,0,1,0-4.67,23.47,61.38,61.38,0,0,0,4.67-23.47" transform="translate(0.05 0.05)" style="fill:none;stroke:#e6e6e6;stroke-linecap:square;stroke-linejoin:round"/></g></g></g></g><g id="patch_3" data-name="patch 3"><g style="clip-path:url(#clip-path)"><path d="M83.88,83.88h0l16.66-5.41a17.33,17.33,0,0,1,.65,2.67,18,18,0,0,1,.21,2.74Z" transform="translate(0.05 0.05)" style="fill:#004cff;fill-opacity:0.6000000238418579;stroke:#4c4c4c;stroke-width:1.5px"/></g></g><g id="patch_4" data-name="patch 4"><g style="clip-path:url(#clip-path)"><path d="M83.88,83.88h0l18.47-49.21a51.26,51.26,0,0,1,7.47,3.49,52.79,52.79,0,0,1,6.83,4.62Z" transform="translate(0.05 0.05)" style="fill:#ceff29;fill-opacity:0.6000000238418579;stroke:#4c4c4c;stroke-width:1.5px"/></g></g><g id="patch_5" data-name="patch 5"><g style="clip-path:url(#clip-path)"><path d="M83.88,83.88h0L39,30.08A70.09,70.09,0,0,1,68.28,15.55Z" transform="translate(0.05 0.05)" style="fill:#ff6800;fill-opacity:0.6000000238418579;stroke:#4c4c4c;stroke-width:1.5px"/></g></g><g id="patch_6" data-name="patch 6"><g style="clip-path:url(#clip-path)"><path d="M83.88,83.88h0l-60.34,11a61.33,61.33,0,0,1,5.09-37.56Z" transform="translate(0.05 0.05)" style="fill:#ffc400;fill-opacity:0.6000000238418579;stroke:#4c4c4c;stroke-width:1.5px"/></g></g><g id="patch_7" data-name="patch 7"><g style="clip-path:url(#clip-path)"><path d="M83.88,83.88h0l-28.81,20c-.52-.76-1-1.53-1.47-2.33s-.89-1.6-1.29-2.43Z" transform="translate(0.05 0.05)" style="fill:#29ffce;fill-opacity:0.6000000238418579;stroke:#4c4c4c;stroke-width:1.5px"/></g></g><g id="patch_8" data-name="patch 8"><g style="clip-path:url(#clip-path)"><path d="M83.88,83.88h0l7.34,43.19a43.93,43.93,0,0,1-8.57.6,44.45,44.45,0,0,1-8.52-1.08Z" transform="translate(0.05 0.05)" style="fill:#7dff7a;fill-opacity:0.6000000238418579;stroke:#4c4c4c;stroke-width:1.5px"/></g></g><g id="patch_9" data-name="patch 9"><g style="clip-path:url(#clip-path)"><path d="M83.88,83.88h0L139.16,127a69.79,69.79,0,0,1-11.58,11.72Z" transform="translate(0.05 0.05)" style="fill:#ff6800;fill-opacity:0.6000000238418579;stroke:#4c4c4c;stroke-width:1.5px"/></g></g><g id="patch_10" data-name="patch 10"><path d="M162.73,83.88a78.8,78.8,0,1,0-6,30.17,78.87,78.87,0,0,0,6-30.17" transform="translate(0.05 0.05)" style="fill:none;stroke:#11557c;stroke-linecap:square;stroke-width:4px"/></g></g></g></svg>