<?xml version="1.0" encoding="utf-8"?>
<!-- Generator: Adobe Illustrator 26.0.0, SVG Export Plug-In . SVG Version: 6.00 Build 0)  -->
<svg version="1.1" id="图层_1" xmlns="http://www.w3.org/2000/svg" xmlns:xlink="http://www.w3.org/1999/xlink" x="0px" y="0px"
	 viewBox="0 0 279 228" style="enable-background:new 0 0 279 228;" xml:space="preserve">
<style type="text/css">
	.st0{fill:#FFFFFF;}
	.st1{fill:#E8E8E8;}
	.st2{fill:#31A9E1;}
	.st3{fill:#5D6D7E;}
	.st4{fill:#C49F74;}
</style>
<path class="st0" d="M20,36.1h90.6c2.6,0,3.9,2.1,3.9,6.2v143.8c0,4.2-1.3,6.2-3.9,6.2H20c-2.6,0-3.9-2.1-3.9-6.2V42.4
	C16.1,38.2,17.4,36.1,20,36.1z"/>
<path class="st1" d="M41.7,170.5h19.7v-25H41.7V170.5z M37.7,170.5v-25H25.9v-6.2h11.8v-25H25.9V108h11.8V83h3.9v25h19.7V83h4v25H81
	V83H85v25h15.8V83h3.9v93.8H26v-6.2H37.7z M41.7,114.2v25h19.7v-25H41.7z M65.3,170.5H81v-25H65.3V170.5z M65.3,139.2H81v-25H65.3
	V139.2z M85,114.2v25h15.8v-25H85z M85,170.5h15.8v-25H85V170.5z"/>
<path class="st2" d="M17.5,39.2h95.1v31.2H17.5V39.2z M72.3,54.9v5.2h18.3v-5.2H72.3z M94.3,54.9v5.2h7.3v-5.2H94.3z"/>
<path class="st3" d="M17.8,33h93.6c2.2,0,3.9,2.8,3.9,6.2v150c0,3.4-1.7,6.2-3.9,6.2H17.8c-2.2,0-3.9-2.8-3.9-6.2v-150
	C13.9,35.8,15.6,33,17.8,33z M17.8,39.2v150h93.6v-150H17.8z"/>
<path class="st0" d="M166.3,36.1h90.6c2.6,0,3.9,2.1,3.9,6.2v143.8c0,4.2-1.3,6.2-3.9,6.2h-90.6c-2.6,0-3.9-2.1-3.9-6.2V42.4
	C162.3,38.2,163.7,36.1,166.3,36.1z"/>
<path class="st1" d="M187.9,170.5h19.7v-25h-19.7V170.5z M184,170.5v-25h-11.8v-6.2H184v-25h-11.8V108H184V83h3.9v25h19.7V83h4v25
	h15.8V83h3.9v25H247V83h3.9v93.8h-78.7v-6.2H184z M187.9,114.2v25h19.7v-25H187.9z M211.6,170.5h15.8v-25h-15.8V170.5z M211.6,139.2
	h15.8v-25h-15.8V139.2z M231.2,114.2v25H247v-25H231.2z M231.2,170.5H247v-25h-15.8V170.5z"/>
<path class="st2" d="M163.8,39.2h95.1v31.2h-95.1V39.2z M218.6,54.9v5.2h18.3v-5.2H218.6z M240.6,54.9v5.2h7.3v-5.2H240.6z"/>
<path class="st3" d="M164.1,33h93.6c2.2,0,3.9,2.8,3.9,6.2v150c0,3.4-1.7,6.2-3.9,6.2h-93.6c-2.2,0-3.9-2.8-3.9-6.2v-150
	C160.2,35.8,161.9,33,164.1,33z M164.1,39.2v150h93.6v-150H164.1z"/>
<path class="st4" d="M133.6,121.1h-15.1v-7.6h15.1V98.5h7.5v15.1h15.1v7.6h-15.1v15.1h-7.5V121.1z"/>
</svg>
