<?xml version="1.0" encoding="utf-8"?>
<!-- Generator: Adobe Illustrator 26.0.0, SVG Export Plug-In . SVG Version: 6.00 Build 0)  -->
<svg version="1.1" id="图层_1" xmlns="http://www.w3.org/2000/svg" xmlns:xlink="http://www.w3.org/1999/xlink" x="0px" y="0px"
	 viewBox="0 0 300 300" style="enable-background:new 0 0 300 300;" xml:space="preserve">
<style type="text/css">
	.st0{fill:#FFD36A;}
	.st1{font-family:'Algerian';}
	.st2{font-size:110px;}
</style>
<path class="st0" d="M150,1.5C67.3,1.5,0,68.1,0,150c0,81.9,67.3,148.5,150,148.5S300,231.9,300,150C300,68.1,232.7,1.5,150,1.5z
	 M150,280.2c-72.5,0-131.5-58.4-131.5-130.2S77.5,19.8,150,19.8S281.5,78.2,281.5,150S222.5,280.2,150,280.2z M180.7,39.1
	c-2.4-0.6-5,0.8-5.7,3.2c-0.7,2.4,0.8,4.9,3.2,5.6c46.3,12.5,78.6,54.5,78.6,102.1c0,2.5,2.1,4.6,4.6,4.6c2.6,0,4.6-2,4.6-4.6
	C266.1,98.3,231,52.7,180.7,39.1z M150,44.2c2,0,4,0.1,6,0.2c0.1,0,0.2,0,0.3,0c2.4,0,4.5-1.9,4.6-4.3c0.1-2.5-1.8-4.7-4.4-4.8
	c-2.2-0.1-4.3-0.2-6.5-0.2c-2.6,0-4.6,2-4.6,4.6C145.4,42.1,147.4,44.2,150,44.2z M177.5,126.7l0.2,16.5c0.1,5.5,4.5,9.6,10.3,9.6
	c2.1,0,4.2-0.6,6.2-1.7l34.6-21.2c3.2-1.9,5-4.8,5-7.9c0-3.3-2.1-6.4-5.6-8.4l-34.5-20.4c-4.4-2.4-10.4-1.7-13.7,1.6
	c-1.8,1.8-2.8,4.2-2.7,6.8l0.2,15.9c-9.1,0.3-28.4,4.2-44.5,28.9c-7.1-18.1-17.5-30.2-31.1-36.1c-20.3-8.8-39.8,0-40.6,0.3
	c-2.3,1.1-3.3,3.8-2.2,6.1c1.1,2.3,3.8,3.3,6.1,2.2c0.2-0.1,16.5-7.4,33-0.3c12.6,5.5,22.1,17.9,28.3,37.1c0.1,0.4,0.3,0.8,0.4,1.3
	c-0.1,0.1-0.1,0.2-0.2,0.4c-24.6,50-60.4,37.8-61.9,37.3c-2.4-0.9-5.1,0.3-5.9,2.7c-0.9,2.4,0.3,5,2.7,5.9c0.2,0.1,5.9,2.1,14.4,2.1
	c14.6,0,37.6-5.9,55.5-37.3c13,25.1,34.3,28.5,44.9,28.5c0.4,0,0.7,0,1.1,0l-0.2,15.7c0,2.6,0.9,5,2.7,6.8c2,2,4.8,3.1,7.8,3.1
	c2.1,0,4.1-0.5,6-1.6l34.3-20.3c3.6-2,5.7-5.1,5.8-8.4c0-3.1-1.8-6-4.9-7.9l-34.7-21.3c-1.9-1.1-4-1.7-6.1-1.7
	c-5.8,0-10.2,4.1-10.3,9.6l-0.2,16.8c-8.2,0.5-29.4-1.4-40.6-29.8C151.5,130.8,169.8,127,177.5,126.7z M187.7,100.9
	c0.3,0,0.9,0.1,1.3,0.3l34.5,20.4c0.3,0.2,0.5,0.3,0.7,0.4c0,0-0.1,0.1-0.1,0.1l-34.6,21.2c-1.7,1-2.4,0.4-2.4-0.2l-0.5-41.8
	C186.6,101.1,187.1,100.9,187.7,100.9z M186.9,170.9c0-0.4,0.4-0.6,1-0.6c0.3,0,0.8,0.1,1.3,0.4l34.7,21.3c0,0,0,0,0.1,0
	c-0.2,0.1-0.4,0.3-0.8,0.5l-34.2,20.3c-1.5,0.8-2.3,0.4-2.7-0.3L186.9,170.9z"/>
<text transform="matrix(1 0 0 1 27.0154 299.0195)" class="st1 st2">M - K</text>
</svg>
