<?xml version="1.0" standalone="no"?><!DOCTYPE svg PUBLIC "-//W3C//DTD SVG 1.1//EN" "http://www.w3.org/Graphics/SVG/1.1/DTD/svg11.dtd"><svg t="1715945831393" class="icon" viewBox="0 0 1024 1024" version="1.1" xmlns="http://www.w3.org/2000/svg" p-id="14310" xmlns:xlink="http://www.w3.org/1999/xlink" width="200" height="200"><path d="M128 128h640v640H128z" fill="#FFFFFF" opacity=".303" p-id="14311"></path><path d="M768 96a32 32 0 0 1 32 32v32h-32V128H128v640h32v32H128a32 32 0 0 1-32-32V128a32 32 0 0 1 32-32h640z" fill="#5D6D7E" opacity=".303" p-id="14312"></path><path d="M192 192h640v640H192z" fill="#FFFFFF" opacity=".652" p-id="14313"></path><path d="M832 160a32 32 0 0 1 32 32v640a32 32 0 0 1-32 32H192a32 32 0 0 1-32-32V192a32 32 0 0 1 32-32h640zM192 832h640V192H192v640z" fill="#5D6D7E" opacity=".652" p-id="14314"></path><path d="M256 256h640v640H256z" fill="#FFFFFF" p-id="14315"></path><path d="M672 704v192h-192v-192h192z m224-224v192h-192v-192h192z m-224-224v192h-192V256h192z" fill="#5D6D7E" opacity=".3" p-id="14316"></path><path d="M928 896a32 32 0 0 1-32 32H256a32 32 0 0 1-32-32V256a32 32 0 0 1 32-32h640a32 32 0 0 1 32 32v640zM256 704v192h192v-192H256z m416 0h-192v192h192v-192z m32 0v192h192v-192h-192z m0-224v192h192v-192h-192z m-32 0h-192v192h192v-192z m224-224h-192v192h192V256z m-224 0h-192v192h192V256zM256 672h192v-192H256v192z m0-224h192V256H256v192z" fill="#5D6D7E" p-id="14317"></path></svg>