<?xml version="1.0" standalone="no"?><!DOCTYPE svg PUBLIC "-//W3C//DTD SVG 1.1//EN" "http://www.w3.org/Graphics/SVG/1.1/DTD/svg11.dtd"><svg t="1715948428769" class="icon" viewBox="0 0 1024 1024" version="1.1" xmlns="http://www.w3.org/2000/svg" p-id="28663" xmlns:xlink="http://www.w3.org/1999/xlink" width="200" height="200"><path d="M768 672a32 32 0 0 1 32 32v192a32 32 0 0 1-32 32H128a32 32 0 0 1-32-32v-192a32 32 0 0 1 32-32h640z m0-288a32 32 0 0 1 32 32v192a32 32 0 0 1-32 32H128a32 32 0 0 1-32-32v-192a32 32 0 0 1 32-32h640z m0-288a32 32 0 0 1 32 32v192a32 32 0 0 1-32 32H128a32 32 0 0 1-32-32V128a32 32 0 0 1 32-32h640z" fill="#FFFFFF" p-id="28664"></path><path d="M544.16 672v32H128v192h498.4l54.848 32H128a32 32 0 0 1-32-32v-192a32 32 0 0 1 32-32h416.16zM768 384a32 32 0 0 1 32 32v149.28l-32-18.656V416H128v192h470.976l-54.784 32H128a32 32 0 0 1-32-32v-192a32 32 0 0 1 32-32h640z m0-288a32 32 0 0 1 32 32v192a32 32 0 0 1-32 32H128a32 32 0 0 1-32-32V128a32 32 0 0 1 32-32h640z m0 32H128v192h640V128z" fill="#5D6D7E" p-id="28665"></path><path d="M688 480a16 16 0 0 1 2.88 31.744L688 512h-128a16 16 0 0 1-2.88-31.744L560 480h128z m0-288a16 16 0 0 1 2.88 31.744L688 224h-128a16 16 0 0 1-2.88-31.744L560 192h128z" fill="#95A1AF" p-id="28666"></path><path d="M736.096 528l192.096 112v208L736.096 960l-191.904-112V640z" fill="#27A2DF" opacity=".2" p-id="28667"></path><path d="M736.096 528l192.096 112v208L736.096 960l-191.904-112V640l191.904-112z m-0.032 37.024l-159.904 93.344v171.232l159.904 93.344 160.096-93.312v-171.296l-160.096-93.312z" fill="#27A2DF" p-id="28668"></path><path d="M675.392 649.504l60.704-36.576 128.16 75.744v70.656a16 16 0 0 1-31.744 2.88l-0.256-2.88-0.032-52.416-95.968-56.736-44.384 26.752a16 16 0 0 1-20.256-3.136l-1.696-2.336a16 16 0 0 1 3.136-20.256l2.336-1.696z" fill="#27A2DF" p-id="28669"></path></svg>