<?xml version="1.0" encoding="utf-8"?>
<!-- Generator: Adobe Illustrator 26.0.0, SVG Export Plug-In . SVG Version: 6.00 Build 0)  -->
<svg version="1.1" id="图层_1" xmlns="http://www.w3.org/2000/svg" xmlns:xlink="http://www.w3.org/1999/xlink" x="0px" y="0px"
	 viewBox="0 0 157.9 158.4" style="enable-background:new 0 0 157.9 158.4;" xml:space="preserve">
<style type="text/css">
	.st0{fill:#10A3F1;}
	.st1{fill:#FFBC08;stroke:#FFFFFF;stroke-width:10;stroke-miterlimit:10;}
</style>
<path class="st0" d="M146.5,51C130.2,12.4,85.8-5.8,47.1,10.6S-9.7,71.3,6.7,109.9s60.7,56.8,99.4,40.5
	c28.1-11.9,46.5-39.4,46.5-69.9C152.5,70.4,150.4,60.4,146.5,51z M79.9,50.9c8.8-0.2,17.5-1.5,26-3.8c0.1,0,0.2,0,0.4,0.2l0,0
	c3.2,9.7,5,19.9,5.3,30.2c0,0.1-0.1,0.2-0.2,0.2H79.9c-0.1,0-0.2-0.1-0.2-0.2V51.2C79.5,51,79.6,50.9,79.9,50.9L79.9,50.9z
	 M79.5,45.2V13.5c0-0.1,0.1-0.2,0.2-0.2l0,0l0,0c2.7,0.1,5.3,0.4,8,0.9c0.1,0,0.1,0,0.1,0.1c6.7,8.2,12.1,17.4,16.2,27.4
	c0,0.1,0,0.4-0.1,0.4l0,0l0,0c-7.9,2.1-15.9,3.2-24,3.4C79.8,45.4,79.6,45.3,79.5,45.2L79.5,45.2L79.5,45.2z M73.8,45.4
	c-8.1-0.2-16.1-1.5-23.9-3.6c-0.1,0-0.2-0.2-0.2-0.4l0,0c3.9-9.8,9.3-19.1,16.1-27.4l0.1-0.1c2.6-0.4,5.2-0.7,7.7-0.9
	c0.1,0,0.2,0.1,0.2,0.2l0,0l0,0v31.5C74,45.3,73.9,45.4,73.8,45.4L73.8,45.4z M74,51.2v26.3c0,0.1-0.1,0.2-0.2,0.2H42.5
	c-0.1,0-0.2-0.1-0.2-0.2c0.4-10.3,2.1-20.4,5.3-30.2c0-0.1,0.2-0.2,0.4-0.2c8.5,2.3,17.1,3.6,25.9,3.8C73.9,50.9,74,51,74,51.2
	L74,51.2L74,51.2z M36.5,77.8H10c-0.1,0-0.2-0.1-0.2-0.2l0,0l0,0c0.6-14.4,5.9-28.2,15-39.4c0.1-0.1,0.2-0.1,0.4-0.1
	c5.5,2.9,11.2,5.4,17.1,7.4c0.1,0,0.2,0.2,0.2,0.4l0,0l0,0c-3.4,10.3-5.3,21-5.5,31.8C36.7,77.5,36.6,77.7,36.5,77.8
	C36.5,77.7,36.5,77.7,36.5,77.8L36.5,77.8z M36.7,83.6c0.2,10.8,2.1,21.5,5.5,31.8c0,0.1,0,0.4-0.1,0.4c-5.9,2-11.7,4.4-17.1,7.4
	c-0.1,0-0.2,0-0.4-0.1c-9.1-11.2-14.4-24.9-15-39.3c0-0.1,0.1-0.2,0.2-0.4l0,0h26.5C36.6,83.3,36.7,83.4,36.7,83.6L36.7,83.6
	L36.7,83.6L36.7,83.6z M42.5,83.3h31.3c0.1,0,0.2,0.1,0.2,0.2v26.3c0,0.1-0.1,0.2-0.2,0.2l0,0c-8.7,0.2-17.4,1.5-25.9,3.8
	c-0.1,0-0.2,0-0.4-0.2l0,0c-3.2-9.7-5-19.9-5.3-30.2C42.2,83.4,42.4,83.3,42.5,83.3C42.6,83.3,42.6,83.3,42.5,83.3L42.5,83.3
	L42.5,83.3z M74,115.9v31.6c0,0.1-0.1,0.2-0.2,0.2l0,0l0,0c-2.6-0.1-5.2-0.4-7.7-0.9c-0.1,0-0.1,0-0.1-0.1
	c-6.7-8.2-12.1-17.5-16.1-27.4c0-0.1,0-0.4,0.1-0.4l0,0l0,0c7.9-2.1,15.8-3.2,23.9-3.4C73.9,115.7,74,115.8,74,115.9L74,115.9z
	 M79.9,115.7c8.1,0.2,16.2,1.3,24,3.4c0.1,0,0.2,0.2,0.2,0.4l0,0c-3.9,9.8-9.4,19.1-16.1,27.4L88,147c-2.6,0.4-5.3,0.7-8,0.9
	c-0.1,0-0.2-0.1-0.4-0.2l0,0v-31.5C79.6,115.7,79.8,115.6,79.9,115.7L79.9,115.7z M79.5,109.8V83.6c0-0.1,0.1-0.2,0.2-0.2h31.4
	c0.1,0,0.2,0.1,0.2,0.2c-0.2,10.3-2.1,20.4-5.3,30.2c0,0.1-0.2,0.2-0.4,0.2c-8.5-2.3-17.2-3.6-26-3.8C79.8,110,79.6,110,79.5,109.8
	C79.6,109.8,79.6,109.8,79.5,109.8L79.5,109.8L79.5,109.8z M117.3,83.4h26.5c0.1,0,0.2,0.1,0.2,0.2l0,0l0,0
	c-0.6,14.4-5.9,28.1-15,39.3c-0.1,0.1-0.2,0.1-0.4,0.1c-5.5-2.9-11.2-5.4-17.1-7.4c-0.1,0-0.2-0.2-0.2-0.4l0,0l0,0
	c3.4-10.3,5.3-21,5.5-31.8C117.1,83.6,117.2,83.4,117.3,83.4z M117.1,77.5c-0.2-10.8-2.2-21.5-5.5-31.8c0-0.1,0-0.4,0.1-0.4
	c5.9-2,11.7-4.4,17.1-7.4c0.1,0,0.2,0,0.4,0.1c9.1,11.2,14.4,24.9,15,39.3c0,0.1-0.1,0.2-0.2,0.4l0,0h-26.6
	C117.2,77.8,117.1,77.7,117.1,77.5L117.1,77.5L117.1,77.5z M124.9,34c-4.9,2.5-9.9,4.7-15.1,6.4c-0.1,0-0.4,0-0.4-0.1
	c-3.2-8.2-7.5-16.1-12.6-23.3c-0.1-0.1-0.1-0.2,0-0.4l0,0c0.1,0,0.2,0,0.2,0c10.5,3.3,20,9.2,27.7,17.1C125,33.6,125,33.7,124.9,34
	L124.9,34L124.9,34z M57,16.7c-5.2,7.2-9.3,15.1-12.5,23.3c-0.1,0.1-0.2,0.2-0.4,0.1c-5.2-1.7-10.2-3.8-15.1-6.4
	c-0.1-0.1-0.2-0.2-0.1-0.4l0,0c7.7-7.9,17.2-13.7,27.7-17.1c0.1-0.1,0.2-0.1,0.4,0C57.1,16.4,57.1,16.6,57,16.7L57,16.7z
	 M28.9,127.1c4.9-2.5,9.9-4.7,15.1-6.4c0.1,0,0.4,0,0.4,0.1c3.2,8.2,7.5,16.1,12.5,23.3c0.1,0.1,0.1,0.2,0,0.4l0,0
	c-0.1,0-0.2,0-0.2,0c-10.5-3.3-20-9.2-27.7-17.1C28.7,127.5,28.7,127.2,28.9,127.1L28.9,127.1z M96.9,144.3
	c5.2-7.2,9.3-15.1,12.5-23.3c0.1-0.1,0.2-0.2,0.4-0.1c5.2,1.7,10.2,3.8,15.1,6.3c0.1,0.1,0.2,0.2,0.1,0.4l0,0
	c-7.7,7.9-17.2,13.7-27.7,17.1c-0.1,0-0.2,0-0.4-0.1l0,0V144.3L96.9,144.3z"/>
<path class="st1" d="M116.8,63.3v23.4c-0.2,6.5-5.6,11.7-12.1,11.4C98.4,98,93.5,93,93.3,86.7V63.3H69.8
	c-6.5-0.2-11.7-5.6-11.4-12.1c0.1-6.3,5.2-11.2,11.4-11.4h23.4V16.3c0.2-6.5,5.6-11.7,12.1-11.4c6.3,0.1,11.2,5.2,11.4,11.4l0,0
	v23.4h23.4c6.5-0.2,11.9,4.9,12.1,11.4c0.2,6.5-4.9,11.9-11.4,12.1c-0.2,0-0.5,0-0.7,0L116.8,63.3L116.8,63.3z"/>
</svg>
