<svg id="图层_1" data-name="图层 1" xmlns="http://www.w3.org/2000/svg" viewBox="0 0 387.26 413.9"><g id="Layer_1" data-name="Layer 1"><polygon points="164.56 84.09 95.4 49.18 19.5 87.06 90.53 122.73 164.56 84.09" style="fill:#4dabcf"/><polygon points="196.26 100.09 268.77 136.69 193.54 174.47 122.4 138.74 196.26 100.09" style="fill:#4dabcf"/><polygon points="293.1 49.71 367.59 87.06 300.97 120.52 228.31 83.87 293.1 49.71" style="fill:#4dabcf"/><polygon points="261.04 33.62 193.98 0 127.64 33.1 196.74 67.95 261.04 33.62" style="fill:#4dabcf"/><polygon points="208.61 322.39 208.61 413.9 289.85 373.36 289.76 281.81 208.61 322.39" style="fill:#4dabcf"/><polygon points="289.73 249.86 289.64 159.27 208.61 199.55 208.61 290.17 289.73 249.86" style="fill:#4dabcf"/><polygon points="387.26 232.88 387.26 324.75 317.97 359.33 317.92 267.88 387.26 232.88" style="fill:#4dabcf"/><polygon points="387.26 200.76 387.26 110.74 317.84 145.25 317.9 236.02 387.26 200.76" style="fill:#4dabcf"/><path d="M236.3,242.6l-54.72-27.51V334s-66.92-142.39-73.12-155.18c-.8-1.65-4.09-3.46-4.93-3.9-12-6.3-47.16-24.11-47.16-24.11V360.89l48.64,26V277.08s66.21,127.23,66.88,128.62,7.32,14.8,14.42,19.51c9.46,6.26,50,30.64,50,30.64Z" transform="translate(-56.37 -43.05)" style="fill:#4d77cf"/></g></svg>