<svg id="图层_1" data-name="图层 1" xmlns="http://www.w3.org/2000/svg" viewBox="0 0 200 200"><path d="M20.61,24.82V175.41A3.59,3.59,0,0,0,24.2,179H174.79a3.59,3.59,0,0,0,3.59-3.59V24.82a3.59,3.59,0,0,0-3.59-3.59H24.2a3.58,3.58,0,0,0-3.59,3.59Z" style="fill:#3fabba"/><rect x="73.04" y="122.95" width="105.34" height="55.05" style="fill:#fff"/><rect x="22.32" y="22.94" width="156.06" height="93.21" style="fill:#fff"/><rect x="22.32" y="122.95" width="42.92" height="55.05" style="fill:#fff"/><path d="M35.45,58.07l1.13-2.59c.4-1,.81-2,1.24-2.89.52.92,1,1.9,1.5,2.89l1.53,2.59h5.7L41.47,50l4.78-8.54H40.89l-1,2.56c-.33.95-.73,1.89-1.06,2.84-.47-1-1-1.89-1.39-2.84l-1.35-2.56H30.34l4.78,8-5.07,8.65ZM58.63,57c0-3-1.24-4.85-3.65-4.85a3,3,0,0,0-3.21,2.76V55A2.87,2.87,0,0,0,54.61,58h.48c0,1.64-1.32,3.17-3.84,4l1.06,2.77A7.88,7.88,0,0,0,58.63,57ZM73.88,41.46,72,48.36c-.4,1.57-.77,3.1-1.1,4.67-.44-1.61-.76-3.17-1.27-4.67l-2.23-6.9H62l6.35,16.1-.21.84a2.63,2.63,0,0,1-2.78,2,4.49,4.49,0,0,1-1.09-.22l-1,4.09a7.77,7.77,0,0,0,2.44.33c3.94,0,5.73-2.12,7.3-6.35l5.7-16.64Zm8.65-.14H98V45H82.53Zm0,7.84H98v3.65H82.53Zm-34,29.05c0-5.25-3.86-6.64-8.5-6.64h-8V93.1h5.22V85.44h2.52l4,7.66h5.84l-4.82-8.61A6.44,6.44,0,0,0,48.55,78.21Zm-8.9,3.14H37.31V75.51h2.34c2.48,0,3.65.66,3.65,2.7S42.09,81.35,39.65,81.35Zm22.92-9.78H54.94V93.1h5.4V85.8H62.9c4.6,0,8.57-2.26,8.57-7.3S67.35,71.57,62.57,71.57Zm0,10.4H60.34V75.51H62.5c2.51,0,3.9.77,3.9,3S65,81.79,62.46,81.79Zm24,7c-3.06,0-5-2.52-5-6.83s2.3-6.75,5.11-6.75a5.27,5.27,0,0,1,3.65,1.71L93,73.8A9.26,9.26,0,0,0,86.47,71,10.43,10.43,0,0,0,76.16,81.55a7.89,7.89,0,0,0,.06,1,10.06,10.06,0,0,0,9.16,10.91c.34,0,.68,0,1,0a9,9,0,0,0,7.08-3.21L90.74,87A5.66,5.66,0,0,1,86.58,89Zm16.54-20.44a28.51,28.51,0,0,0,0,30.51l3.24-1.35a29.71,29.71,0,0,1,0-27.85Zm23.79,7.92h-5.36l-1,2.55c-.36,1-.76,1.9-1.09,2.85l-1.35-2.85-1.39-2.55H111l4.78,8-5.07,8.65h5.36l1.17-2.59c.4-1,.8-2,1.2-2.88.55.91,1,1.9,1.54,2.88l1.49,2.59h5.59L122,85ZM135.74,87a3,3,0,0,0-3.24,2.73,1.21,1.21,0,0,1,0,.19,2.88,2.88,0,0,0,2.84,2.93h.52c0,1.65-1.35,3.18-3.65,4.06l1,2.77a7.89,7.89,0,0,0,6.25-7.81C139.28,88.87,138,87,135.74,87Zm16.83-3.64c-.37,1.56-.73,3.1-1.06,4.67-.44-1.61-.8-3.18-1.28-4.67l-2.3-6.9h-5.29L149,92.59l-.22.88a2.7,2.7,0,0,1-2.77,2,4.71,4.71,0,0,1-1.13-.22L144,99.16a7.26,7.26,0,0,0,2.45.33c3.94,0,5.73-2.12,7.3-6.35l5.69-16.64H154.5ZM163.7,69.89a29.43,29.43,0,0,1,0,27.85L167,99.09a28.59,28.59,0,0,0,0-30.51Z" style="fill:#3fabba"/><path d="M22.34,15.75h155a6.46,6.46,0,0,1,6.46,6.46v155a6.46,6.46,0,0,1-6.46,6.46h-155a6.46,6.46,0,0,1-6.46-6.46v-155A6.46,6.46,0,0,1,22.34,15.75Zm0,6.46v155h155v-155Z" style="fill:#5d6d7e"/></svg>