<svg id="图层_1" data-name="图层 1" xmlns="http://www.w3.org/2000/svg" xmlns:xlink="http://www.w3.org/1999/xlink" viewBox="0 0 84.21 84.21"><defs><mask id="mask" x="8.46" y="0" width="31.5" height="40" maskUnits="userSpaceOnUse"><g transform="translate(0 0)"><g id="mask-4"><polygon id="path-3" points="8.46 0 39.95 0 39.95 40 8.46 40 8.46 0" style="fill:#fff;fill-rule:evenodd"/></g></g></mask><mask id="mask-2" x="0" y="44.21" width="40" height="31.5" maskUnits="userSpaceOnUse"><g transform="translate(0 0)"><g id="mask-6"><polygon id="path-5" points="0 75.7 0 44.21 40 44.21 40 75.7 0 75.7" style="fill:#fff;fill-rule:evenodd"/></g></g></mask><mask id="mask-3" x="44.21" y="44.21" width="31.5" height="40" maskUnits="userSpaceOnUse"><g transform="translate(0 0)"><g id="mask-8"><polygon id="path-7" points="75.7 84.16 44.21 84.16 44.21 44.21 75.7 44.21 75.7 84.16" style="fill:#fff;fill-rule:evenodd"/></g></g></mask></defs><g id="_001_home_v2" data-name="001_home_v2"><g id="VD1a_home_desktopshd_v4" data-name="VD1a home desktopshd v4"><g id="Page-1"><g id="Group-25"><g id="Group-14"><g style="mask:url(#mask)"><path id="Fill-12" d="M40,16.92V0L34.67,9.25A33.65,33.65,0,0,0,8.46,40h8.46A25.26,25.26,0,0,1,40,16.92" transform="translate(0 0)" style="fill:#4cb05c;fill-rule:evenodd"/></g></g><g id="Group-17"><g style="mask:url(#mask-2)"><path id="Fill-15" d="M16.92,44.21H0l9.25,5.28A33.65,33.65,0,0,0,40,75.7V67.25a25.28,25.28,0,0,1-23.08-23" transform="translate(0 0)" style="fill:#003a40;fill-rule:evenodd"/></g></g><path id="Fill-18" d="M67.25,40h17L75,34.67A33.65,33.65,0,0,0,44.21,8.46v8.46a25.28,25.28,0,0,1,23,23" transform="translate(0 0)" style="fill:#003a40;fill-rule:evenodd"/><g id="Group-22"><g style="mask:url(#mask-3)"><path id="Fill-20" d="M44.21,67.25v17L49.49,75A33.65,33.65,0,0,0,75.7,44.21H67.25a25.3,25.3,0,0,1-23,23" transform="translate(0 0)" style="fill:#4cb05c;fill-rule:evenodd"/></g></g><path id="Fill-23" d="M42.06,43.88a1.82,1.82,0,0,1,0-3.64,1.85,1.85,0,0,1,1.82,1.82,1.82,1.82,0,0,1-1.82,1.82Zm2.61-4.39L29.07,29.07l10.42,15.6L55.1,55.1Z" transform="translate(0 0)" style="fill:#003a40;fill-rule:evenodd"/></g><polygon id="Fill-26" points="39.49 44.67 35.98 39.44 20 42.1 35.98 44.72 29.07 55.1 39.39 48.18 42.06 64.16 44.72 48.18 39.49 44.67" style="fill:#4cb05c;fill-rule:evenodd"/><polygon id="Fill-27" points="48.18 39.44 55.1 29.07 44.72 35.98 42.06 20 39.44 35.98 44.67 39.49 48.18 44.72 64.16 42.06 48.18 39.44" style="fill:#4cb05c;fill-rule:evenodd"/></g></g></g></svg>