<svg id="图层_1" data-name="图层 1" xmlns="http://www.w3.org/2000/svg" viewBox="0 0 200 200"><path d="M25.71,179c12.93-3.31,22.13-9.44,27.44-18.51q2.87-4.87,5.5-10c8.51-16.34,15.07-33.38,21.11-53.29,2.26-7.47,9.9-35.34,11.68-40.81C95,45.62,97.91,41.24,101,41.24c2.93,0,5.88,3.82,9.42,12.93,2.49,6.42,12.63,39.22,13,40.37,6.71,20.51,13.52,37.51,22.21,54q3.24,6.12,6.79,12A40.89,40.89,0,0,0,176.2,179l1.58-7.11a34.53,34.53,0,0,1-20.26-15.58q-3.45-5.7-6.58-11.63c-8.46-16-15.11-32.61-21.69-52.71C129,91,118.76,57.85,116.14,51.12c-4.47-11.53-8.85-17.23-15.1-17.23-6.74,0-11,6.39-15.43,19.88-1.87,5.71-9.53,33.7-11.74,41-5.87,19.45-12.29,36.06-20.55,51.9-1.71,3.28-3.48,6.48-5.31,9.63-4.3,7.34-12.13,12.55-23.63,15.5Z" style="fill:#ff9f55"/><path d="M131.08,145.74c7.92,8.47,22.93,15.95,45.15,22.68l1.61-6.85c-21.3-6.45-35.5-13.53-42.47-21S117.71,112.71,103.86,80l-3.07-7.24-2.65,7.45q-12.78,36-35.62,60.4c-14.91,16-27.29,22.78-37,20.92l-1,7c12.06,2.32,26.1-5.41,42.3-22.75q21.5-23,34.41-55.67c12.73,29.43,22.6,47.9,29.86,55.67Z" style="fill:#27a2df"/><path d="M26,20.18H176a6.25,6.25,0,0,1,6.25,6.25v150a6.25,6.25,0,0,1-6.25,6.25H26a6.25,6.25,0,0,1-6.25-6.25v-150A6.25,6.25,0,0,1,26,20.18Zm0,6.25v150H176v-150Z" style="fill:#5d6d7e"/></svg>