<?xml version="1.0" encoding="utf-8"?>
<!-- Generator: Adobe Illustrator 26.0.0, SVG Export Plug-In . SVG Version: 6.00 Build 0)  -->
<svg version="1.1" id="图层_1" xmlns="http://www.w3.org/2000/svg" xmlns:xlink="http://www.w3.org/1999/xlink" x="0px" y="0px"
	 viewBox="0 0 300 300" style="enable-background:new 0 0 300 300;" xml:space="preserve">
<style type="text/css">
	.st0{fill:#428DEC;}
	.st1{fill:#42C5EC;}
</style>
<path class="st0" d="M206,116.1c-3.6,0-6.6-2.9-6.6-6.6c0,0,0,0,0,0c0-35.6-28.9-64.5-64.5-64.5S70.4,74,70.4,109.5
	c0,3.6-2.9,6.6-6.6,6.6c-3.6,0-6.6-2.9-6.6-6.6c0-42.8,34.8-77.6,77.6-77.6c42.8,0,77.6,34.8,77.6,77.6
	C212.5,113.1,209.6,116.1,206,116.1C206,116.1,206,116.1,206,116.1L206,116.1z"/>
<path class="st0" d="M236.7,211.6H62.4c-29.9,0-54.3-24.4-54.3-54.3S32.5,103,62.4,103c3.6,0,6.6,2.9,6.6,6.6c0,3.6-2.9,6.6-6.6,6.6
	c-22.7,0-41.2,18.5-41.2,41.2c0,22.7,18.5,41.2,41.2,41.2h174.2c22.7,0,41.2-18.5,41.2-41.2s-18.5-41.2-41.2-41.2
	c-3.6,0-6.6-2.9-6.6-6.6s2.9-6.6,6.6-6.6c29.9,0,54.3,24.4,54.3,54.3S266.6,211.6,236.7,211.6L236.7,211.6z"/>
<path class="st0" d="M236.7,116.1h-52.5c-3.6,0-6.6-2.9-6.6-6.6c0-3.6,2.9-6.6,6.6-6.6h52.5c3.6,0,6.6,2.9,6.6,6.6
	C243.2,113.1,240.3,116.1,236.7,116.1L236.7,116.1z"/>
<path class="st1" d="M54.2,268.6c-3.6,0-6.6-2.9-6.6-6.6c0-2,0.9-3.9,2.5-5.2l41.7-32.3c2.8-2.3,7-1.8,9.2,1.1
	c2.3,2.8,1.8,7-1.1,9.2c0,0-0.1,0.1-0.1,0.1l-41.7,32.3C57.1,268.1,55.7,268.6,54.2,268.6L54.2,268.6z"/>
<path class="st1" d="M115.1,268.6c-3.6,0-6.6-2.9-6.6-6.6c0-2,0.9-3.9,2.5-5.2l41.7-32.3c2.8-2.3,7-1.8,9.2,1.1s1.8,7-1.1,9.2
	c0,0-0.1,0.1-0.1,0.1l-41.7,32.3C118,268.1,116.6,268.6,115.1,268.6L115.1,268.6z"/>
<path class="st1" d="M176,268.6c-3.6,0-6.6-2.9-6.6-6.6c0-2,0.9-3.9,2.5-5.2l41.7-32.3c2.8-2.3,7-1.8,9.2,1.1s1.8,7-1.1,9.2
	c0,0-0.1,0.1-0.1,0.1L180,267.2C178.9,268.1,177.5,268.6,176,268.6L176,268.6z"/>
</svg>
