<?xml version="1.0" encoding="utf-8" standalone="no"?>
<!DOCTYPE svg PUBLIC "-//W3C//DTD SVG 1.1//EN"
  "http://www.w3.org/Graphics/SVG/1.1/DTD/svg11.dtd">
<svg xmlns:xlink="http://www.w3.org/1999/xlink" width="264.451673pt" height="280.512pt" viewBox="0 0 264.451673 280.512" xmlns="http://www.w3.org/2000/svg" version="1.1">
 <metadata>
  <rdf:RDF xmlns:dc="http://purl.org/dc/elements/1.1/" xmlns:cc="http://creativecommons.org/ns#" xmlns:rdf="http://www.w3.org/1999/02/22-rdf-syntax-ns#">
   <cc:Work>
    <dc:type rdf:resource="http://purl.org/dc/dcmitype/StillImage"/>
    <dc:date>2024-05-19T13:37:31.015269</dc:date>
    <dc:format>image/svg+xml</dc:format>
    <dc:creator>
     <cc:Agent>
      <dc:title>Matplotlib v3.8.4, https://matplotlib.org/</dc:title>
     </cc:Agent>
    </dc:creator>
   </cc:Work>
  </rdf:RDF>
 </metadata>
 <defs>
  <style type="text/css">*{stroke-linejoin: round; stroke-linecap: butt}</style>
 </defs>
 <g id="figure_1">
  <g id="patch_1">
   <path d="M 0 280.512 
L 264.451673 280.512 
L 264.451673 0 
L 0 0 
L 0 280.512 
z
" style="fill: none"/>
  </g>
  <g id="axes_1">
   <g id="PolyCollection_1">
    <path d="M 112.707829 113.385491 
L 97.629745 157.674188 
L 18.565985 198.019201 
L 18.565985 19.686708 
L 112.707829 113.385491 
z
" clip-path="url(#p4367369cf5)" style="fill: none; stroke: #5d6d7e; stroke-width: 5"/>
    <path d="M 112.707829 113.385491 
L 144.841392 90.282216 
L 204.140309 145.381883 
L 176.239099 189.105826 
L 145.467992 190.638601 
L 97.629745 157.674188 
L 112.707829 113.385491 
z
" clip-path="url(#p4367369cf5)" style="fill: none; stroke: #5d6d7e; stroke-width: 5"/>
    <path d="M 191.655556 19.296 
L 144.841392 90.282216 
L 112.707829 113.385491 
L 18.565985 19.686708 
L 18.565985 19.296 
L 191.655556 19.296 
z
" clip-path="url(#p4367369cf5)" style="fill: none; stroke: #5d6d7e; stroke-width: 5"/>
    <path d="M 245.885688 134.187861 
L 204.140309 145.381883 
L 144.841392 90.282216 
L 191.655556 19.296 
L 245.885688 19.296 
L 245.885688 134.187861 
z
" clip-path="url(#p4367369cf5)" style="fill: none; stroke: #5d6d7e; stroke-width: 5"/>
    <path d="M 143.479265 261.216 
L 145.467992 190.638601 
L 176.239099 189.105826 
L 245.885688 238.573457 
L 245.885688 261.216 
L 143.479265 261.216 
z
" clip-path="url(#p4367369cf5)" style="fill: none; stroke: #5d6d7e; stroke-width: 5"/>
    <path d="M 18.565985 198.019201 
L 97.629745 157.674188 
L 145.467992 190.638601 
L 143.479265 261.216 
L 18.565985 261.216 
L 18.565985 198.019201 
z
" clip-path="url(#p4367369cf5)" style="fill: none; stroke: #5d6d7e; stroke-width: 5"/>
    <path d="M 176.239099 189.105826 
L 204.140309 145.381883 
L 245.885688 134.187861 
L 245.885688 238.573457 
L 176.239099 189.105826 
z
" clip-path="url(#p4367369cf5)" style="fill: none; stroke: #5d6d7e; stroke-width: 5"/>
   </g>
   <g id="PathCollection_1">
    <path d="M 42.101446 78.783548 
C 45.349508 78.783548 48.464974 77.49308 50.7617 75.196354 
C 53.058426 72.899627 54.348895 69.784161 54.348895 66.5361 
C 54.348895 63.288038 53.058426 60.172572 50.7617 57.875846 
C 48.464974 55.579119 45.349508 54.288651 42.101446 54.288651 
C 38.853385 54.288651 35.737918 55.579119 33.441192 57.875846 
C 31.144466 60.172572 29.853997 63.288038 29.853997 66.5361 
C 29.853997 69.784161 31.144466 72.899627 33.441192 75.196354 
C 35.737918 77.49308 38.853385 78.783548 42.101446 78.783548 
z
" clip-path="url(#p4367369cf5)" style="fill: #c49f74"/>
    <path d="M 147.092052 141.631136 
C 150.340114 141.631136 153.45558 140.340667 155.752307 138.043941 
C 158.049033 135.747215 159.339501 132.631748 159.339501 129.383687 
C 159.339501 126.135625 158.049033 123.020159 155.752307 120.723433 
C 153.45558 118.426707 150.340114 117.136238 147.092052 117.136238 
C 143.843991 117.136238 140.728525 118.426707 138.431798 120.723433 
C 136.135072 123.020159 134.844604 126.135625 134.844604 129.383687 
C 134.844604 132.631748 136.135072 135.747215 138.431798 138.043941 
C 140.728525 140.340667 143.843991 141.631136 147.092052 141.631136 
z
" clip-path="url(#p4367369cf5)" style="fill: #c49f74"/>
    <path d="M 111.075144 67.231911 
C 114.323206 67.231911 117.438672 65.941442 119.735398 63.644716 
C 122.032125 61.34799 123.322593 58.232524 123.322593 54.984462 
C 123.322593 51.736401 122.032125 48.620934 119.735398 46.324208 
C 117.438672 44.027482 114.323206 42.737014 111.075144 42.737014 
C 107.827083 42.737014 104.711616 44.027482 102.41489 46.324208 
C 100.118164 48.620934 98.827696 51.736401 98.827696 54.984462 
C 98.827696 58.232524 100.118164 61.34799 102.41489 63.644716 
C 104.711616 65.941442 107.827083 67.231911 111.075144 67.231911 
z
" clip-path="url(#p4367369cf5)" style="fill: #c49f74"/>
    <path d="M 207.067081 67.036557 
C 210.315142 67.036557 213.430609 65.746088 215.727335 63.449362 
C 218.024061 61.152636 219.31453 58.03717 219.31453 54.789108 
C 219.31453 51.541047 218.024061 48.42558 215.727335 46.128854 
C 213.430609 43.832128 210.315142 42.541659 207.067081 42.541659 
C 203.81902 42.541659 200.703553 43.832128 198.406827 46.128854 
C 196.110101 48.42558 194.819632 51.541047 194.819632 54.789108 
C 194.819632 58.03717 196.110101 61.152636 198.406827 63.449362 
C 200.703553 65.746088 203.81902 67.036557 207.067081 67.036557 
z
" clip-path="url(#p4367369cf5)" style="fill: #c49f74"/>
    <path d="M 178.467023 226.853478 
C 181.715085 226.853478 184.830551 225.563009 187.127278 223.266283 
C 189.424004 220.969557 190.714472 217.85409 190.714472 214.606029 
C 190.714472 211.357968 189.424004 208.242501 187.127278 205.945775 
C 184.830551 203.649049 181.715085 202.35858 178.467023 202.35858 
C 175.218962 202.35858 172.103496 203.649049 169.806769 205.945775 
C 167.510043 208.242501 166.219575 211.357968 166.219575 214.606029 
C 166.219575 217.85409 167.510043 220.969557 169.806769 223.266283 
C 172.103496 225.563009 175.218962 226.853478 178.467023 226.853478 
z
" clip-path="url(#p4367369cf5)" style="fill: #c49f74"/>
    <path d="M 81.467814 241.865049 
C 84.715876 241.865049 87.831342 240.574581 90.128068 238.277854 
C 92.424795 235.981128 93.715263 232.865662 93.715263 229.6176 
C 93.715263 226.369539 92.424795 223.254072 90.128068 220.957346 
C 87.831342 218.66062 84.715876 217.370152 81.467814 217.370152 
C 78.219753 217.370152 75.104287 218.66062 72.80756 220.957346 
C 70.510834 223.254072 69.220366 226.369539 69.220366 229.6176 
C 69.220366 232.865662 70.510834 235.981128 72.80756 238.277854 
C 75.104287 240.574581 78.219753 241.865049 81.467814 241.865049 
z
" clip-path="url(#p4367369cf5)" style="fill: #c49f74"/>
    <path d="M 218.037696 179.491303 
C 221.285757 179.491303 224.401224 178.200834 226.69795 175.904108 
C 228.994676 173.607382 230.285145 170.491916 230.285145 167.243854 
C 230.285145 163.995793 228.994676 160.880326 226.69795 158.5836 
C 224.401224 156.286874 221.285757 154.996405 218.037696 154.996405 
C 214.789635 154.996405 211.674168 156.286874 209.377442 158.5836 
C 207.080716 160.880326 205.790247 163.995793 205.790247 167.243854 
C 205.790247 170.491916 207.080716 173.607382 209.377442 175.904108 
C 211.674168 178.200834 214.789635 179.491303 218.037696 179.491303 
z
" clip-path="url(#p4367369cf5)" style="fill: #c49f74"/>
   </g>
  </g>
 </g>
 <defs>
  <clipPath id="p4367369cf5">
   <rect x="7.2" y="7.2" width="250.051673" height="266.112"/>
  </clipPath>
 </defs>
</svg>
