<?xml version="1.0" encoding="utf-8"?>
<!-- Generator: Adobe Illustrator 26.0.0, SVG Export Plug-In . SVG Version: 6.00 Build 0)  -->
<svg version="1.1" id="图层_1" xmlns="http://www.w3.org/2000/svg" xmlns:xlink="http://www.w3.org/1999/xlink" x="0px" y="0px"
	 viewBox="0 0 200 200" style="enable-background:new 0 0 200 200;" xml:space="preserve">
<style type="text/css">
	.st0{fill:#1296DB;}
	.st1{opacity:0.5;fill:#1296DB;enable-background:new    ;}
</style>
<path class="st0" d="M199.2,123.9h-62.1V0h-14.3v123.9H-0.9v14.3h123.7V200h14.3v-61.8h62.1L199.2,123.9L199.2,123.9z"/>
<path class="st1" d="M-1,61.9L-1,61.9l0.1,14.3H-1V61.9z"/>
<path class="st1" d="M75.4,0H-0.9v200h200V0H75.4z M61,185.7H13.4V76.3H61V185.7z M61,61.9H13.4V14.4H61V61.9z M184.8,185.7H75.4
	V76.3h109.4V185.7z M184.8,61.9H75.4V14.4h109.4V61.9z"/>
<path class="st0" d="M108.7,109.7h43v42.8h-43C108.7,152.5,108.7,109.7,108.7,109.7z"/>
</svg>
