<?xml version="1.0" standalone="no"?><!DOCTYPE svg PUBLIC "-//W3C//DTD SVG 1.1//EN" "http://www.w3.org/Graphics/SVG/1.1/DTD/svg11.dtd"><svg t="1704455268598" class="icon" viewBox="0 0 1024 1024" version="1.1" xmlns="http://www.w3.org/2000/svg" p-id="4235" xmlns:xlink="http://www.w3.org/1999/xlink" width="200" height="200"><path d="M264.79 396.373a42.965 42.965 0 0 0-60.289 0 41.856 41.856 0 0 0 0 59.648L451.712 700.63c33.28 32.939 87.296 32.939 120.576 0l247.21-244.608a41.856 41.856 0 0 0 0-59.648 42.965 42.965 0 0 0-60.287 0L512 640.981 264.79 396.373z" fill="#333333" p-id="4236"></path><path d="M512 1024c282.752 0 512-229.248 512-512S794.752 0 512 0 0 229.248 0 512s229.248 512 512 512z m0-85.333C276.352 938.667 85.333 747.648 85.333 512S276.352 85.333 512 85.333 938.667 276.352 938.667 512 747.648 938.667 512 938.667z" fill="#333333" p-id="4237"></path></svg>