<?xml version="1.0" standalone="no"?><!DOCTYPE svg PUBLIC "-//W3C//DTD SVG 1.1//EN" "http://www.w3.org/Graphics/SVG/1.1/DTD/svg11.dtd"><svg t="1715876980982" class="icon" viewBox="0 0 1024 1024" version="1.1" xmlns="http://www.w3.org/2000/svg" p-id="36592" xmlns:xlink="http://www.w3.org/1999/xlink" width="200" height="200"><path d="M182.857143 73.142857m73.142857 0l585.142857 0q73.142857 0 73.142857 73.142857l0 731.428572q0 73.142857-73.142857 73.142857l-585.142857 0q-73.142857 0-73.142857-73.142857l0-731.428572q0-73.142857 73.142857-73.142857Z" fill="#D2D7E2" p-id="36593"></path><path d="M658.285714 950.857143v-219.428572h-219.428571v219.428572h-36.571429v-219.428572h-219.428571v-36.571428h219.428571v-182.857143h-219.428571v-36.571429h219.428571v-182.857142h-219.428571v-36.571429h219.428571v-182.857143h36.571429v182.857143h219.428571v-182.857143h36.571429v182.857143h219.428571v36.571429h-219.428571v182.857142h219.428571v36.571429h-219.428571v182.857143h219.428571v36.571428h-219.428571v219.428572z m0-256v-182.857143h-219.428571v182.857143z m0-219.428572v-182.857142h-219.428571v182.857142z" fill="#FFFFFF" p-id="36594"></path><path d="M694.857143 292.571429h219.428571v182.857142h-219.428571z" fill="#6D83AA" opacity=".402" p-id="36595"></path><path d="M438.857143 73.142857h219.428571v182.857143h-219.428571z" fill="#6D83AA" opacity=".402" p-id="36596"></path><path d="M475.428571 512h182.857143v182.857143h-182.857143z" fill="#6D83AA" opacity=".402" p-id="36597"></path><path d="M694.857143 731.428571h219.428571v146.285715a73.142857 73.142857 0 0 1-73.142857 73.142857h-146.285714v-219.428572z" fill="#6D83AA" opacity=".402" p-id="36598"></path><path d="M146.285714 402.322286h337.737143a33.133714 33.133714 0 0 1 27.977143 36.571428v365.714286a33.170286 33.170286 0 0 1-27.977143 36.571429H146.285714v-438.857143z" fill="#FFFFFF" p-id="36599"></path><path d="M39.643429 365.750857h396.141714a38.217143 38.217143 0 0 1 39.643428 36.571429v365.714285a38.217143 38.217143 0 0 1-39.643428 36.571429H39.606857a38.180571 38.180571 0 0 1-39.606857-36.571429v-365.714285a38.217143 38.217143 0 0 1 39.643429-36.571429z" fill="#3F72BE" p-id="36600"></path><path d="M273.92 564.48c22.857143-40.228571 7.643429-86.308571 201.508571-95.634286 0 0 1.609143 293.924571 0 310.198857-30.610286-71.094857-201.508571-214.564571-201.508571-214.564571z" fill="#CC945A" p-id="36601"></path><path d="M39.643429 365.750857h396.141714a38.217143 38.217143 0 0 1 39.643428 36.571429 322.048 322.048 0 0 1 0 45.275428 503.296 503.296 0 0 0-224.621714 117.869715c-151.332571 15.835429-233.069714-199.716571-211.163428-199.716572z" fill="#96BF5A" p-id="36602"></path><path d="M251.574857 556.982857a212.114286 212.114286 0 0 1 223.744-111.835428v37.339428a182.162286 182.162286 0 0 0-186.148571 81.810286c115.858286 28.233143 182.125714 106.057143 186.148571 218.514286 0 0-14.628571 27.428571-37.632 20.260571a224.109714 224.109714 0 0 0-201.910857-211.2C87.881143 572.854857 16.969143 491.117714 26.221714 363.885714h34.084572c-7.716571 106.057143 50.139429 174.774857 180.077714 191.488 3.766857 0.621714 7.533714 1.133714 11.190857 1.609143z" fill="#FEFFFF" p-id="36603"></path><path d="M38.912 402.322286a4.717714 4.717714 0 0 0-2.340571 0.987428v363.958857a4.973714 4.973714 0 0 0 3.035428 0.877715h396.178286A5.046857 5.046857 0 0 0 438.857143 767.268571v-363.958857a5.046857 5.046857 0 0 0-3.072-0.877714H38.912m0.694857-36.571429h396.178286a38.217143 38.217143 0 0 1 39.643428 36.571429v365.714286a38.217143 38.217143 0 0 1-39.643428 36.571428H39.606857a38.180571 38.180571 0 0 1-39.606857-36.571428v-365.714286A38.217143 38.217143 0 0 1 39.643429 365.714286z" fill="#274E93" p-id="36604"></path></svg>