<?xml version="1.0" encoding="utf-8"?>
<!-- Generator: Adobe Illustrator 26.0.0, SVG Export Plug-In . SVG Version: 6.00 Build 0)  -->
<svg version="1.1" id="图层_1" xmlns="http://www.w3.org/2000/svg" xmlns:xlink="http://www.w3.org/1999/xlink" x="0px" y="0px"
	 viewBox="0 0 210 211.8" style="enable-background:new 0 0 210 211.8;" xml:space="preserve">
<style type="text/css">
	.st0{fill:#FFFFFF;}
	.st1{fill:#808FA1;}
	.st2{opacity:0.153;fill:#808FA1;enable-background:new    ;}
	.st3{opacity:0.3;fill:#5D6D7E;enable-background:new    ;}
	.st4{fill:#5D6D7E;}
	.st5{fill:#3595FF;}
	.st6{fill:#EF633F;}
	.st7{fill:#30AD98;}
</style>
<path class="st0" d="M25,25h150v150H25V25z"/>
<path class="st1" d="M137.5,137.5V175H100v-37.5H137.5z M62.5,137.5V175H25v-37.5H62.5z M100,100v37.5H62.5V100H100z M62.5,62.5V100
	H25V62.5H62.5z M175,25v37.5h-37.5V25H175z"/>
<path class="st2" d="M175,137.5V175h-37.5v-37.5H175z M137.5,62.5V100H100V62.5H137.5z M100,25v37.5H62.5V25H100z"/>
<path class="st3" d="M100,137.5v37.7H62.5v-37.7H100z M175,100v37.5h-37.5V100H175z M62.5,100v37.5H25V100H62.5z M100,62.5V100H62.5
	V62.5H100z"/>
<path class="st4" d="M25,18.7h150c3.5,0,6.2,2.8,6.2,6.2v150c0,3.5-2.8,6.2-6.2,6.2H25c-3.5,0-6.2-2.8-6.2-6.2V25
	C18.8,21.5,21.5,18.7,25,18.7z M25,25v150h150V25H25z"/>
<g>
	<path class="st0" d="M180.7,128.8c2,0,3.7,1.7,3.7,3.7v10.5l13.1,0.7l-9.4,52.5c0,2-3.6,3.7-5.6,3.7H104c-2,0-5.8-4.6-5.8-6.8
		v-77.3c0-2,3.7-5.9,5.8-5.9h28.5c1.1,0,2.3,0.6,3,1.5l3.7,6l9.4-6c5,7.3,7.5,12.2,7.5,14.8s-2.5,3.4-7.5,2.4
		C148.7,128.8,180.7,128.8,180.7,128.8z"/>
	<path class="st5" d="M180.7,128.8h3.7v11.2h12c2,0,3.4,1.7,3,3.7l-10.6,52.5c-0.4,2-2.4,3.7-4.5,3.7h-82.4c-2,0-3.7-1.7-3.7-3.7
		v-82.5c0-2,1.7-3.7,3.7-3.7h15v3.7h-15.1v67.4l7.6-37.5c0.4-2,2.4-3.7,4.5-3.7h6.9l-10.1-17.3l3.3-1.9l11.1,19.2h55.5V128.8z
		 M102.8,196.4h81.7c0.2,0,0.7-0.4,0.8-0.7l10.4-51.7H114c-0.2,0-0.7,0.4-0.8,0.7L102.8,196.4z M162,132.6v-3.7h11.2v3.7H162z"/>
	<path class="st6" d="M118.1,120.4c3.5-5.8,9-7.6,16.4-5.4s11.7-1.6,12.9-11.5l12.6,21.8c-2.6,6.2-7.4,9-14.4,8.3
		c-7-0.7-12,2.2-14.8,8.6L118.1,120.4z M130.9,135.1c3.7-4,8.8-5.7,14.9-5.2c4.7,0.4,7.8-1,9.9-4.4l-7.2-12.5
		c-2.9,5.5-8.1,7.7-15.1,5.6c-5-1.5-8.4-0.8-10.8,2C122.5,120.6,130.9,135.1,130.9,135.1z"/>
	<path class="st7" d="M180.7,117.6h3.7c2.5,0,3.7,1.2,3.7,3.7v3.7c0,2.5-1.2,3.7-3.7,3.7h-3.7c-2.5,0-3.7-1.2-3.7-3.7v-3.7
		C176.9,118.8,178.2,117.6,180.7,117.6z"/>
</g>
</svg>
