<?xml version="1.0" encoding="utf-8"?>
<!-- Generator: Adobe Illustrator 26.0.0, SVG Export Plug-In . SVG Version: 6.00 Build 0)  -->
<svg version="1.1" id="图层_1" xmlns="http://www.w3.org/2000/svg" xmlns:xlink="http://www.w3.org/1999/xlink" x="0px" y="0px"
	 viewBox="0 0 211 210.8" style="enable-background:new 0 0 211 210.8;" xml:space="preserve">
<style type="text/css">
	.st0{fill:#FFFFFF;}
	.st1{opacity:0.498;fill:#5D6D7E;enable-background:new    ;}
	.st2{fill:#C49F74;fill-opacity:0.3;}
	.st3{fill:#C49F74;}
	.st4{fill:#3595FF;}
	.st5{fill:#EF633F;}
	.st6{fill:#30AD98;}
</style>
<path class="st0" d="M111.9,82.7L71.5,25h97.2c3.5,0,6.2,2.8,6.2,6.2l0,0v28.4L111.9,82.7z M25,114.6V31.2c0-3.5,2.8-6.2,6.2-6.2
	l0,0h22.4l44.1,63L25,114.6z M175,172.8l-54.7-78.1l54.7-20V172.8L175,172.8z M31.2,175c-3.5,0-6.2-2.8-6.2-6.2v-39.1l81.1-29.8
	l52.5,75.1H31.2z"/>
<path class="st1" d="M111.9,82.7L71.5,25h97.2c3.5,0,6.2,2.8,6.2,6.2l0,0v28.4L111.9,82.7z M25,114.6V31.2c0-3.5,2.8-6.2,6.2-6.2
	l0,0h22.4l44.1,63L25,114.6z M114.3,75.2l54.4-20v-24H83.5L114.3,75.2z M31.3,105.7L88,84.9L50.4,31.3H31.2L31.3,105.7z M175,172.8
	l-54.7-78.1l54.7-20V172.8L175,172.8z M168.8,153V83.6l-38.6,14.2L168.8,153z"/>
<path class="st2" d="M25,178.1l-3.1-44l83.1-30.4l52,74.4H25z"/>
<path class="st3" d="M25,181.2c-3.5,0-6.2-2.8-6.2-6.2v-43l87.4-32l56.8,81.2H25z M103.7,107.5L25,136.3V175h125.9L103.7,107.5
	L103.7,107.5z"/>
<path class="st0" d="M109.2,115.5H90.5V96.8h18.8v18.7H109.2z"/>
<path class="st3" d="M87.4,118.6v-25h25v25H87.4z M93.6,112.4h12.5V99.9H93.6V112.4z"/>
<g>
	<path class="st0" d="M181.7,129.8c2,0,3.7,1.7,3.7,3.7v10.4l12.9,0.7l-9.2,51.8c0,2-3.5,3.7-5.5,3.7H106c-2,0-5.7-4.6-5.7-6.7
		v-76.3c0-2,3.7-5.9,5.7-5.9h28.1c1.1,0,2.3,0.6,3,1.4l3.7,5.9l9.3-5.9c5,7.2,7.4,12.1,7.4,14.6s-2.5,3.4-7.4,2.4
		C150.1,129.8,181.7,129.8,181.7,129.8z"/>
	<path class="st4" d="M181.7,129.8h3.7v11.1h11.8c2,0,3.4,1.7,3,3.7l-10.4,51.8c-0.4,2-2.3,3.7-4.4,3.7H104c-2,0-3.6-1.7-3.6-3.7
		V115c0-2,1.7-3.7,3.7-3.7h14.8v3.7H104v66.6l7.5-36.9c0.4-2,2.3-3.7,4.4-3.7h6.8l-10-17.2l3.2-1.8l10.9,19h54.8V129.8z
		 M104.8,196.4h80.6c0.2,0,0.7-0.4,0.8-0.7l10.3-51h-80.6c-0.2,0-0.7,0.4-0.8,0.7L104.8,196.4z M163.2,133.5v-3.7h11.1v3.7H163.2z"
		/>
	<path class="st5" d="M119.9,121.4c3.5-5.7,8.8-7.5,16.2-5.3c7.3,2.2,11.6-1.6,12.7-11.3l12.5,21.5c-2.6,6.1-7.3,8.8-14.2,8.2
		c-6.9-0.6-11.8,2.2-14.6,8.4L119.9,121.4z M132.5,136c3.6-3.9,8.7-5.6,14.7-5.1c4.7,0.4,7.7-1,9.7-4.3l-7.1-12.3
		c-2.9,5.5-8,7.6-14.9,5.5c-4.9-1.4-8.3-0.8-10.7,2C124.3,121.6,132.5,136,132.5,136z"/>
	<path class="st6" d="M181.7,118.7h3.7c2.5,0,3.7,1.2,3.7,3.7v3.7c0,2.5-1.2,3.7-3.7,3.7h-3.7c-2.5,0-3.7-1.2-3.7-3.7v-3.7
		C178,119.9,179.2,118.7,181.7,118.7z"/>
</g>
</svg>
