<svg id="图层_1" data-name="图层 1" xmlns="http://www.w3.org/2000/svg" viewBox="0 0 200 200"><path d="M98.63,21.05h78.9V68.39H98.63Z" style="fill:#89a2f6"/><path d="M98.63,73.65h78.9V121H98.63Z" style="fill:#fcaf6d"/><path d="M98.63,126.24h78.9v52.6H98.63Z" style="fill:#00b6cb"/><path d="M22.37,23.68H90.74V176.21H22.37Z" style="fill:#fff"/><path d="M88.11,26.31V173.58H25V26.31H88.11m5.26-5.26H19.74V178.84H93.37Z" style="fill:#949394"/><path d="M40.78,173.58H46V26.31H40.78ZM67.08,26.31V173.58h5.26V26.31Z" style="fill:#a6a5a6"/><path d="M25,47.35v5.26H88.11V47.35Zm0,31.56H88.11V73.65H25Zm0,26.3H88.11V100H25Zm0,26.29H88.11v-5.26H25Zm0,26.3H88.11v-5.26H25Z" style="fill:#a6a5a6"/><path d="M56.45,120.83h57.8v37H56.45Z" style="fill:#fff"/><path d="M109.15,100v79l43.39-39.45Z" style="fill:#fff"/><path d="M61.82,126.14h52.43v26.4H61.82Zm52.43-16.09v58L146,139.39Z" style="fill:#ff806c"/></svg>