<?xml version="1.0" standalone="no"?><!DOCTYPE svg PUBLIC "-//W3C//DTD SVG 1.1//EN" "http://www.w3.org/Graphics/SVG/1.1/DTD/svg11.dtd"><svg t="1715951836549" class="icon" viewBox="0 0 1024 1024" version="1.1" xmlns="http://www.w3.org/2000/svg" p-id="44315" xmlns:xlink="http://www.w3.org/1999/xlink" width="200" height="200"><path d="M524.8 140.8h358.4v742.4h-358.4z" fill="#FFFFFF" p-id="44316"></path><path d="M870.4 153.6v716.8H537.6V153.6h332.8m25.6-25.6H512v768h384V128z" fill="#89A2F6" p-id="44317"></path><path d="M691.2 153.6h25.6v716.8h-25.6z" fill="#89A2F6" p-id="44318"></path><path d="M537.6 486.4h332.8v25.6H537.6z" fill="#89A2F6" p-id="44319"></path><path d="M140.8 140.8h332.8v742.4h-332.8z" fill="#FFFFFF" p-id="44320"></path><path d="M460.8 153.6v716.8H153.6V153.6h307.2m25.6-25.6H128v768h358.4V128z" fill="#949394" p-id="44321"></path><path d="M230.4 870.4h25.6V153.6H230.4v716.8z m128-716.8v716.8h25.6V153.6h-25.6z" fill="#A6A5A6" p-id="44322"></path><path d="M153.6 256v25.6h307.2v-25.6H153.6z m0 153.6h307.2v-25.6H153.6v25.6z m0 128h307.2v-25.6H153.6v25.6z m0 128h307.2v-25.6H153.6v25.6z m0 128h307.2v-25.6H153.6v25.6z" fill="#A6A5A6" p-id="44323"></path><path d="M281.088 613.632h281.344V793.6H281.088z" fill="#FFFFFF" p-id="44324"></path><path d="M537.6 512v384.512l211.2-192z" fill="#FFFFFF" p-id="44325"></path><path d="M307.2 639.488h255.232V768H307.2zM562.432 561.152v282.112L716.8 704z" fill="#FF806C" p-id="44326"></path></svg>