<?xml version="1.0" encoding="utf-8"?>
<!-- Generator: Adobe Illustrator 26.0.0, SVG Export Plug-In . SVG Version: 6.00 Build 0)  -->
<svg version="1.1" id="图层_1" xmlns="http://www.w3.org/2000/svg" xmlns:xlink="http://www.w3.org/1999/xlink" x="0px" y="0px"
	 viewBox="0 0 300 300" style="enable-background:new 0 0 300 300;" xml:space="preserve">
<style type="text/css">
	.st0{fill:#5D6D7E;}
	.st1{fill:#FF4E7D;}
</style>
<path class="st0" d="M273.1,113.7c0.1-0.5,0.2-1,0.2-1.4c0-3-2.5-5.5-5.5-5.5c-1.2,0-2.4,0.4-3.3,1.2l-0.3,0.4L248.7,131
	c-4.2-24.8-16.5-47.5-35.2-64.9c-21.3-19.8-49-30.7-78.1-30.7c-63.4,0-115,51.6-115,115s51.6,115,115,115c19.9,0,39.5-5.2,56.8-15.1
	c16.6-9.6,30.8-23.3,41-39.8c0.1-0.1,0.1-0.2,0.2-0.4c0.3-0.7,0.4-1.4,0.4-2.1c0-3-2.5-5.5-5.5-5.5c-1.6,0-3,0.5-4,1.6l-0.2,0.2
	l-0.5,0.8c-18.8,30-50.6,48.2-85.6,49C78.5,255.7,29.6,206.5,31.6,147C33.4,91.2,79.3,46.4,135.5,46.4c50.6,0,94,37.4,102.4,86.5
	l-24.1-14.6L213,118c-0.4-0.1-0.9-0.2-1.3-0.2c-3,0-5.5,2.5-5.5,5.5c0,1.2,0.4,2.3,1.1,3.3c0.1,0.1,0.2,0.1,0.2,0.2l0.7,0.4l32,19.7
	c1.7,1.1,3.8,1.8,5.6,1.8c3.1,0,5.3-1.5,7.1-4.2l19.9-30.2L273.1,113.7L273.1,113.7z"/>
<path class="st0" d="M134.8,265.5c-64.3,0-116.6-52.3-116.6-116.6c0-64.3,52.3-116.6,116.6-116.6c29.4,0,57.6,11,79.2,31.1
	c9.4,8.7,17.3,18.9,23.3,30.1c5.4,10,9.3,20.7,11.6,31.9l13.3-19.6l0.4-0.5l0.1-0.1c1.3-1,2.8-1.6,4.4-1.6c3.9,0,7.1,3.2,7.1,7.1
	c0,0.6-0.1,1.3-0.3,1.9l0,0.1l-0.5,0.9L253.7,144c-2.2,3.3-5,4.9-8.5,4.9c-2,0-4.4-0.8-6.5-2.1c-0.6-0.4-4.7-2.9-32-19.7l0,0
	l-0.8-0.5l-0.4-0.4l-0.1-0.1c-0.9-1.2-1.5-2.7-1.5-4.2c0-3.9,3.2-7.1,7.1-7.1c0.6,0,1.2,0.1,1.8,0.3l0.2,0.1l1,0.5l21,12.7
	c-9.7-46.8-52.1-81.7-100.2-81.7c-55.5,0-100.5,43.5-102.3,99c-0.9,28.3,9.6,55.1,29.7,75.3s46.7,31,75.1,30.3
	c34.4-0.8,65.9-18.9,84.3-48.3l0.6-0.9l0.3-0.4c1.3-1.4,3.1-2.2,5.2-2.2c3.9,0,7.1,3.2,7.1,7.1c0,0.9-0.2,1.8-0.5,2.6
	c-0.1,0.3-0.2,0.5-0.3,0.7c-10.3,16.7-24.7,30.6-41.6,40.3C174.9,260.2,155,265.5,134.8,265.5z M134.8,35.6
	C72.3,35.6,21.4,86.4,21.4,149s50.9,113.4,113.4,113.4c19.6,0,39-5.2,56-14.9c16.4-9.4,30.4-22.9,40.4-39.1l0-0.1l0.1-0.1
	c0.2-0.5,0.3-1,0.3-1.5c0-2.2-1.8-3.9-3.9-3.9c-1.2,0-2.1,0.4-2.8,1.1l-0.1,0.1l-0.5,0.8c-9.3,14.9-22.2,27.4-37.3,36
	c-15,8.6-32.2,13.4-49.7,13.8c-14.8,0.4-29.1-2.3-42.7-7.9c-13.1-5.4-24.8-13.3-34.8-23.3c-10-10.1-17.8-21.9-23.1-35
	c-5.5-13.6-8-28-7.6-42.7c0.9-27.4,12.3-53.1,32.1-72.3c19.8-19.3,45.9-29.9,73.4-29.9c24.8,0,48.9,9,68.1,25.2
	c19,16.2,31.8,38.4,35.9,62.7l0.2,1l-1.7,1.2l-0.9-0.5l-24.1-14.6l-0.6-0.3c-0.3-0.1-0.5-0.1-0.8-0.1c-2.2,0-3.9,1.8-3.9,3.9
	c0,0.8,0.2,1.5,0.7,2.2l0,0l0.6,0.4c0.8,0.5,31.9,19.6,32,19.7c1.6,1,3.4,1.6,4.8,1.6c2.4,0,4.2-1.1,5.8-3.5l19.8-30.1l0.2-0.4
	c0.1-0.3,0.1-0.6,0.1-0.8c0-2.2-1.8-3.9-3.9-3.9c-0.8,0-1.6,0.3-2.2,0.8l-0.1,0.1l-16.1,23.6l-2.2-0.5l-0.1-1.1
	c-4.2-24.7-16.2-46.8-34.7-64C190.8,46.3,163.5,35.6,134.8,35.6L134.8,35.6z"/>
<path class="st1" d="M121.8,78.7c-0.8-2.3-2.4-4.1-4.6-5.1c-2.2-1-4.7-1.1-6.9-0.2c-7.3,2.9-14.2,6.7-20.7,11.3
	c-9.1,6.4-17,14.3-23.4,23.3c-1.4,1.9-1.9,4.4-1.5,6.7c0.5,2.4,1.8,4.4,3.9,5.7l0,0c1.4,0.8,2.9,1.3,4.6,1.3h0.2
	c2.7-0.1,5.2-1.4,6.8-3.6c5.4-7.4,11.9-13.9,19.4-19.3c5.3-3.8,11.1-6.9,17.1-9.4C121.1,87.8,123.3,83.1,121.8,78.7z"/>
</svg>
