<?xml version="1.0" encoding="utf-8"?>
<!-- Generator: Adobe Illustrator 26.0.0, SVG Export Plug-In . SVG Version: 6.00 Build 0)  -->
<svg version="1.1" id="图层_1" xmlns="http://www.w3.org/2000/svg" xmlns:xlink="http://www.w3.org/1999/xlink" x="0px" y="0px"
	 viewBox="0 0 300 300" style="enable-background:new 0 0 300 300;" xml:space="preserve">
<style type="text/css">
	.st0{fill:#428DEC;}
	.st1{fill:#42C5EC;}
</style>
<path class="st0" d="M117.7,79.5c16.4,18,45.4,54,45.4,77.4c0,26.6-15.6,39.9-45.4,39.9S72.3,183.6,72.3,157
	C71.5,133.5,101.2,97.5,117.7,79.5 M117.7,68.6c0,0-53.2,53.2-53.2,88.4s24.3,47.7,53.2,47.7s53.2-12.5,53.2-47.7
	S117.7,68.6,117.7,68.6L117.7,68.6z"/>
<path class="st1" d="M238.9,156c0,17.2-11.7,23.5-26.6,23.5c-14.9,0-26.6-6.3-26.6-23.5s26.6-43,26.6-43S238.9,138.8,238.9,156z"/>
<path class="st1" d="M218.4,234.7c0,8.6-5.5,11-12.5,11s-12.5-3.1-12.5-11s12.5-21.1,12.5-21.1S218.4,226.1,218.4,234.7z"/>
<path class="st1" d="M88.3,229.7c0,8.6-5.5,11-12.5,11s-12.5-3.1-12.5-11c0-7.8,12.5-21.1,12.5-21.1S88.3,221.1,88.3,229.7z"/>
<path class="st0" d="M28.5,114.7c-0.8,0-0.8,0-1.6,0c-1.6-0.8-2.3-3.1-1.6-5.5L38.6,81c0.8-2.3,3.1-3.1,4.7-1.6
	c1.6,0.8,3.1,3.1,1.6,5.5l-12.5,27.4C31.6,113.9,30.1,114.7,28.5,114.7z M55.1,58.4c-0.8,0-0.8,0-1.6,0c-1.6-1.6-2.3-3.9-1.6-5.5
	l13.3-28.2c0.8-1.6,3.1-3.1,5.5-1.6c1.6,0.8,3.1,3.1,1.6,5.5L59,56.1C58.2,57.6,56.7,58.4,55.1,58.4z"/>
<path class="st0" d="M30.1,257.1c-0.8,0-0.8,0-1.6,0c-2.3-0.8-3.1-3.1-1.6-5.5l3.1-7c0.8-2.3,3.1-3.1,4.7-2.3
	c2.3,0.8,3.1,3.1,1.6,5.5l-3.1,7C33.2,256.3,31.6,257.1,30.1,257.1z M46.5,221.1c-0.8,0-0.8,0-1.6,0c-1.6-0.8-3.1-3.1-1.6-5.5
	l13.3-28.2c0.8-2.3,3.1-3.1,5.5-1.6c1.6,0.8,3.1,3.1,1.6,5.5l-13.3,27.4C49.6,220.3,48.1,221.1,46.5,221.1z"/>
<path class="st0" d="M121.6,60c-0.8,0-0.8,0-1.6,0c-1.6-0.8-3.1-3.1-1.6-5.5l13.3-28.2c0.8-1.6,3.1-3.1,5.5-1.6
	c1.6,0.8,3.1,3.1,1.6,5.5l-13.3,28.2C124.7,59.2,123.1,60,121.6,60z"/>
<path class="st0" d="M87.9,276.7c-0.8,0-0.8,0-1.6,0c-1.6-0.8-3.1-3.1-1.6-5.5l2.3-5.5c0.8-2.3,3.1-3.1,5.5-1.6
	c1.6,0.8,3.1,3.1,1.6,5.5l-2.3,5.5C91.1,275.9,89.5,276.7,87.9,276.7z M103.6,243c-0.8,0-0.8,0-1.6,0c-1.6-0.8-3.1-3.1-1.6-5.5
	l13.3-28.2c0.8-2.3,3.1-3.1,5.5-1.6c1.6,0.8,3.1,3.1,1.6,5.5l-13.3,28.2C106.7,242.2,105.2,243,103.6,243z"/>
<path class="st0" d="M163,115.5c-0.8,0-0.8,0-1.6,0c-2.3-0.8-3.1-3.1-1.6-5.5l12.5-27.4c0.8-2.3,3.1-3.1,5.5-1.6
	c2.3,0.8,3.1,3.1,1.6,5.5L167,113.9C166.2,114.7,164.6,115.5,163,115.5z M188.9,60c-0.8,0-0.8,0-1.6,0c-2.3-0.8-3.1-3.1-1.6-5.5
	L199,26.3c0.8-2.3,3.1-3.1,5.5-2.3s3.1,3.1,1.6,5.5l-13.3,28.2C192,59.2,190.4,60,188.9,60z"/>
<path class="st0" d="M155.2,277.4c-0.8,0-0.8,0-1.6,0c-2.3-0.8-3.1-3.1-1.6-5.5l12.5-27.4c0.8-2.3,3.1-3.1,5.5-1.6
	c2.3,0.8,3.1,3.1,1.6,5.5l-12.5,27.4C158.4,276.7,156.8,277.4,155.2,277.4z M181,221.1c-0.8,0-0.8,0-1.6,0c-2.3-0.8-3.1-3.1-1.6-5.5
	l13.3-28.2c0.8-2.3,3.1-3.1,5.5-1.6c2.3,0.8,3.1,3.1,1.6,5.5l-13.3,27.4C184.2,220.3,182.6,221.1,181,221.1z"/>
<path class="st0" d="M230.3,117.1c-0.8,0-0.8,0-1.6,0c-2.3-0.8-3.1-3.1-1.6-5.5l13.3-28.2c0.8-2.3,3.1-3.1,5.5-1.6
	c0.8,0,1.6,2.3,0.8,3.9l-13.3,28.2C233.4,115.5,231.9,117.1,230.3,117.1z M256.9,60c-0.8,0-0.8,0-1.6,0c-2.3-0.8-3.1-3.1-1.6-5.5
	L267,26.3c0.8-2.3,3.1-3.1,5.5-1.6c2.3,0.8,3.1,3.1,1.6,5.5l-13.3,28.2C259.3,59.2,258.5,60,256.9,60z"/>
<path class="st0" d="M227.2,275.1c-0.8,0-0.8,0-1.6,0c-2.3-0.8-3.1-3.1-1.6-5.5l13.3-28.2c0.8-2.3,3.1-3.1,5.5-1.6
	c2.3,0.8,3.1,3.1,1.6,5.5l-13.3,27.4C230.3,274.3,228.8,275.1,227.2,275.1z M253.8,218c-0.8,0-0.8,0-1.6,0c-2.3-0.8-3.1-3.1-1.6-5.5
	l13.3-28.2c0.8-2.3,3.1-3.1,5.5-1.6c2.3,0.8,3.1,3.1,1.6,5.5l-13.3,28.2C256.9,217.2,255.4,218,253.8,218z"/>
</svg>
