<?xml version="1.0" encoding="utf-8"?>
<!-- Generator: Adobe Illustrator 26.0.0, SVG Export Plug-In . SVG Version: 6.00 Build 0)  -->
<svg version="1.1" id="图层_1" xmlns="http://www.w3.org/2000/svg" xmlns:xlink="http://www.w3.org/1999/xlink" x="0px" y="0px"
	 viewBox="0 0 200 200" style="enable-background:new 0 0 200 200;" xml:space="preserve">
<style type="text/css">
	.st0{fill:#5D6D7E;}
</style>
<path class="st0" d="M86.3,159.5c5.7,0,10.7,4.4,10.7,10.7c0,5.7-4.4,10.7-10.7,10.7c-5.7,0-10.7-5-10.7-10.7S80,159.5,86.3,159.5z
	 M142.5,137.7c8.1,0,14.4,6.3,14.4,14.4s-6.3,14.4-14.4,14.4c-7.4,0-14.4-6.3-14.4-14.4C128.1,143.8,134.2,137.7,142.5,137.7z
	 M44.4,125.1c6.8,0,13.1,6.3,13.1,13.1c0,7.4-6.3,13.1-13.1,13.1c-7.4,0-13.1-6.3-13.1-13.1C31.4,130.8,37.7,125.1,44.4,125.1z
	 M96.9,85.9c14.4,0,26.2,11.8,26.2,26.2s-11.1,26.2-26.2,26.2c-14.4,0-26.2-11.8-26.2-26.2S82.6,85.9,96.9,85.9z M164.3,85.9
	c7.4,0,13.1,6.3,13.1,13.1s-5.7,13.1-13.1,13.1s-13.1-6.3-13.1-13.1C151.2,91.5,157.3,85.9,164.3,85.9z M28.3,75.9
	c3.1,0,5.7,2.4,5.7,5.7c0,3.1-2.4,5.7-5.7,5.7c-3.1,0-5.7-2.6-5.7-5.7C22.6,78.4,25.2,75.9,28.3,75.9z M71.9,36.6
	c6.8,0,11.8,5.7,11.8,11.8c0,6.8-5.7,11.8-11.8,11.8c-6.3,0-11.1-5-11.1-11.3S65.1,36.6,71.9,36.6z M143.6,19.2c11.3,0,20,8.7,20,20
	s-9.4,19.9-20,19.9c-11.1,0-20-8.7-20-20S132.5,19.2,143.6,19.2z"/>
</svg>
