<svg id="Layer_1" data-name="Layer 1" xmlns="http://www.w3.org/2000/svg" xmlns:xlink="http://www.w3.org/1999/xlink" viewBox="0 0 530.78 505.16"><defs><clipPath id="clip-path" transform="translate(-27.43 -27.3)"><circle cx="280.01" cy="279.88" r="252.58" style="fill:none"/></clipPath></defs><path id="circle" d="M280,27.3C140.52,27.3,27.43,140.38,27.43,279.88h0A252.68,252.68,0,0,0,57.74,399.77a21.47,21.47,0,0,1,4.2,1.51c4.9,2.26,9.53,5.51,12.27,10.16a16.4,16.4,0,0,1,2.36,7.65,13.15,13.15,0,0,1-2,7.63A252.58,252.58,0,0,0,280,532.46c139.5,0,252.58-113.08,252.58-252.58S419.51,27.3,280,27.3Z" transform="translate(-27.43 -27.3)" style="fill:#0054a6"/><path id="tongue" d="M513.57,184.93l12.89-6,8.71-23.8,9.14,3.2-7.85,21.29,21.76,7.5L554.93,196l-24.29-8.48-13.4,6.16" transform="translate(-27.43 -27.3)" style="fill:#0054a6;fill-rule:evenodd"/><g style="clip-path:url(#clip-path)"><path id="snake" d="M373.91,313c-17.4-23.79-51.78-37.63-81.27-44.12s-47.44-11.52-61.77-19.28c-16.37-8.85-29.23-35-24.21-57.6,7.89-35.52,39.61-61.08,75.84-56a65.73,65.73,0,0,1,43.56,25.63l40.12,52.7c22.93,29.54,48.71,38.32,76.75,24.38l13.65-6.45c1.13-.53,2.51-1.59,4.73-.88s3.32,2.62,4.57,4.87,2.56,4.31,4.91,4.87,5.62.18,7.15-1.28c10.39-9.91,31.48-30.09,31.48-30.09,5.7-4.88,4-9.36,4-9.36l-7.85-17.88s-2.15-4.29-9.57-3.3l-43.67,4a7.24,7.24,0,0,0-5.78,4.63,6.85,6.85,0,0,0-.2,4.5l1.57,5a5,5,0,0,1-.12,3.29,4.85,4.85,0,0,1-2.74,2.77l-12.34,5.22c-14.23,4.83-27.62,2.74-37.42-9.26l-11.21-14.89-31.92-42.35a98.09,98.09,0,0,0-65-38.21c-54-7.56-104.2,29.86-112,83.59-4,27.08-.24,50,20.22,73.38s60.25,32.31,94.72,40.21c3.68.87,14.06,3.44,20.2,5.65,5.67,2.06,18.75,6.88,29.37,15.57h0A59.62,59.62,0,0,1,356.22,373a60.89,60.89,0,0,1-68.75,51.29,60.13,60.13,0,0,1-39.93-23.44L209.22,350a51.13,51.13,0,0,0-71.49-10l-80,59.74c3.39,9.65,7.68,19.24,16.84,27l82.52-61.87a19,19,0,0,1,25.81,4.22l40.53,54.48a92.91,92.91,0,0,0,59.31,33.33c51.09,7.15,98.52-28.24,105.94-79.06A92,92,0,0,0,373.91,313" transform="translate(-27.43 -27.3)" style="fill:#fff;fill-rule:evenodd"/></g></svg>