<?xml version="1.0" encoding="utf-8"?>
<!-- Generator: Adobe Illustrator 26.0.0, SVG Export Plug-In . SVG Version: 6.00 Build 0)  -->
<svg version="1.1" id="图层_1" xmlns="http://www.w3.org/2000/svg" xmlns:xlink="http://www.w3.org/1999/xlink" x="0px" y="0px"
	 viewBox="0 0 254.6 280.5" style="enable-background:new 0 0 254.6 280.5;" xml:space="preserve">
<style type="text/css">
	.st0{fill:none;}
	.st1{fill:none;stroke:#5D6D7E;stroke-width:8;stroke-linejoin:round;}
	.st2{fill:none;stroke:#B2B2B2;stroke-width:4;stroke-linejoin:round;stroke-opacity:0.7;}
</style>
<path class="st0" d="M0,280.5h254.6V0H0V280.5z"/>
<g id="PolyCollection_1">
	<rect x="7.2" y="7.2" class="st0" width="240.2" height="266.1"/>
	<path class="st1" d="M183.5,255.6l-81.1-2.3L18.7,89.4l69.8-70.1l127.1,83.8l-37.7,40.5l58.6,37.4L183.5,255.6z"/>
</g>
<g id="LineCollection_1">
	<rect x="7.2" y="7.2" class="st0" width="240.2" height="266.1"/>
	<path class="st2" d="M236.5,181l-8.9,22.4l-9.2,1.7l7.3,11.3l-23.8,2.4l0.6,16.9l-18.9,19.9l-13.4,5.6l-8.3-8.5l-21.8-0.9
		l-15.4-15.2l-4.3,9.9l-18,6.8l-3.1-6l11-12.3l-12.4-5.2l-3.6,7.9l-18.9,3.7l-17.2-39.9l14.4-12.6l-31.8-17.8l5.3-14.8l19-5.6
		l0.6-35.6l-17.2,7.6l-16.3-8.5l0-12.3l-14.1-5.4l0.6-7.2l17.9-0.4L39,72.2l13.4-3.8L53,46.3L67.2,49l9.1,13.7l22.4-8.3l-2.8-17.7
		l-19.3-8.7l12-8.6l24.8,12l8.8,14.2l21.6,1.9l5,14.5l20.7-0.7L158.3,85l12.7,1.5l7.1,21.6l15.9,0.1l6.5-11l15.2,5.9l2.2,10.3
		l-6.7,7.1l-23.6-6.2l6.1,11.4l-15.7,17.9l23.3,15.4l-3.7,17.7l26.3-3.1L236.5,181"/>
</g>
</svg>
