<?xml version="1.0" encoding="utf-8"?>
<!-- Generator: Adobe Illustrator 26.0.0, SVG Export Plug-In . SVG Version: 6.00 Build 0)  -->
<svg version="1.1" id="图层_1" xmlns="http://www.w3.org/2000/svg" xmlns:xlink="http://www.w3.org/1999/xlink" x="0px" y="0px"
	 viewBox="0 0 300 300" style="enable-background:new 0 0 300 300;" xml:space="preserve">
<style type="text/css">
	.st0{fill:#A774FF;}
	.st1{enable-background:new    ;}
	.st2{font-family:'Algerian';}
	.st3{font-size:120px;}
	.st4{fill:#474747;}
	.st5{font-size:72px;}
</style>
<g>
	<path class="st0" d="M246.5,216.9c2.6-0.3,5.2-0.6,7.5-1.1c-1.8-1.6-3.6-3.6-5-5.7c0-2.4,0.3-4.2,0.3-6.6c-2.3,0.5-4.8,1.2-7.3,2
		c-2.6-0.9-4.8-2.4-7.6-3c0.6,2.8,0.4,4.2,0.7,6.8c-1.6,1.8-3.7,3.2-5,5.1c2.5,0.4,5.1,1.4,7.6,1.8c1.2,2.4,3,4,4.1,5.9
		C243.7,221.1,244.8,218.2,246.5,216.9L246.5,216.9z"/>
	<path class="st0" d="M276.9,106.1c4.1,11.4,6.7,26.3,7.2,38.2c0.8,24.9-4.6,45.2-13.5,63.7c0.8,0.5,1.3,1.7,2.1,2.9
		c1.1-0.5,1.5-2.2,2-3.1c0.5-1.3,1.2-2.4,1.6-3.7c1.2-2.4,2.1-5,3.3-7.4c1.8-5.2,3.6-10.4,4.9-15.9c2.3-10.8,4.2-22.8,3.4-35.6
		c-0.4-12.2-3.3-28.5-7.4-40.3c-4.2-12.4-9.8-22.8-16-32.1c-0.5,1.3-1.5,2.2-2,3.1C268.4,85,273.2,95.3,276.9,106.1z"/>
	<path class="st0" d="M34.3,74.8c-7.1,10.9-12.7,22.4-16.1,34.9c1.1-0.5,1.9-1.1,2.8-0.6c0.2-0.3,0.5-0.8,1-0.9
		c3.7-11.1,8.8-21.3,14.7-31.4C36,76.4,35.6,75.3,34.3,74.8L34.3,74.8z"/>
	<path class="st0" d="M196.8,21.6c0.1,0.5,1.2,0,0.8,0.5c0.1,0.5-0.8,0.7-0.7,1.1c11.6,4.8,22.6,10.5,32.3,17.6
		c1.4-0.3,3-0.4,4.4-0.7c-2.1-2.2-5.4-3.9-8-6c-2.8-1.8-5.9-3.8-8.8-5.4c-6.2-3.3-12.2-6.4-19.1-8.6
		C197.5,20.5,196.6,20.7,196.8,21.6z"/>
	<path class="st0" d="M204.4,248.7c1.2,2.4,3,4,4.1,5.9c1.9-1.1,2.7-4.2,4.7-5.3c2.6-0.3,5.2-0.6,7.5-1.1c-1.8-1.6-3.6-3.6-5-5.7
		c0-2.4,0.3-4.2,0.3-6.6c-2.3,0.5-4.8,1.2-7.3,2c-2.6-0.9-4.8-2.4-7.6-3c0.3,2.6,0.1,4.1,0.7,6.8c-1.6,1.8-3.7,3.2-5,5.1
		C199.5,247.1,201.9,248.3,204.4,248.7L204.4,248.7z"/>
	<path class="st0" d="M100.7,24.7c13.4-5.2,29.7-8.8,44.8-9.3s28.7,1.3,41,5c1.3-0.7,2.9-1.3,4-2.5c-2-0.5-4.2-1.5-6.3-1.3
		c-2-1.3-4.6-1.4-6.7-2c-2.5-0.4-4.8-1.2-7.5-1.3c-5-0.9-10.1-1-15.4-1.4c-10.9-0.4-22.3,0.5-34.5,3.3c-37,8.4-61,27.3-78.8,49.6
		c-0.2,0.3-0.1,0.7-0.1,0.7c-0.9,0.2-1,0.9-1.4,1.5c0.4,0.6,0.6,1.6,0.7,2c-0.6,0.4-1.6,0.6-2,0.7c-0.4-0.6,0.8-0.7,0.3-1
		c-0.8,0.7-1.6,1.8-2.1,2.6c-0.5,0.8-1.7,2-1.4,2.7c1.3,0.5,0.9-1.4,1.3-2c1.5,0.2,2.1-0.2,3.6,0c2.5-2,3.8-5.1,5.8-7
		c1.6-2.5,3.8-4.7,6.1-6.8c4.4-4.3,8.7-9,14-12.8C75.5,36.9,86.8,30,100.7,24.7z"/>
	<path class="st0" d="M40.4,69.7c0.3,0.2,0.7,0.8,0.5,1.1C40.2,70.7,40.1,70.2,40.4,69.7z"/>
	<path class="st0" d="M235.4,45.4c9,7.5,17.6,16.3,24.8,26.6c0.5-0.1,0.8,0.5,1.5,0.2c-0.4-0.6-1.3-0.5-1.7-1.1
		c1.3-0.7,2.1-0.2,3.1,0.1c0.4-1.8-2-1.3-2.5-1.6c-0.2,0.3-0.5,0.8-1,0.9c-0.1-0.5-0.8-0.5-0.7-1.3c1-0.9,1.7-0.1,2.9-0.1
		c-0.3-0.2,0.2-0.3,0.4-0.6c-7.3-9.6-15.2-18.8-24.1-25.8c-0.6,0.4-0.5,1.3-0.5,2c0.3,0.2,1,0.3,0.6,0.4c-0.3-0.2,0.1,0.5-0.4,0.6
		C236.6,45.4,236.2,45.5,235.4,45.4L235.4,45.4z"/>
	<path class="st0" d="M50.4,209.4c1.2,2.4,3,4,4.1,5.9c1.9-1.1,2.7-4.2,4.7-5.3c2.6-0.3,5.2-0.6,7.5-1.1c-1.8-1.6-3.6-3.6-5-5.7
		c0-2.4,0.3-4.2,0.3-6.6c-2.3,0.5-4.8,1.2-7.3,2c-2.6-0.9-4.8-2.4-7.6-3c0.6,2.8,0.4,4.2,0.7,6.8c-1.6,1.8-3.7,3.2-5,5.1
		C45.5,207.8,47.6,208.8,50.4,209.4L50.4,209.4z"/>
	<path class="st0" d="M189,9.7c0.6,0.4,1.1,0.7,1,1.5c1.2,0,1.7-1.3,2.5-2c-2-0.5-3.6-1.2-6.1-1.6c-1.6,1.8-3.8,2.7-4.8,4.8
		c1.5,0.2,2.5,0.4,3.8,0.9C186.7,12.2,187.6,10.8,189,9.7z"/>
	<path class="st0" d="M238.1,39.5c2.3-0.5,4.9-0.8,6.9-1.4c-4-4.2-8.5-7.2-12.9-10.1c-0.3-0.2-1.2,0-1.5-0.2
		c-0.1-0.5,0.2-0.3,0.1-0.7c-8.4-5.5-16.8-10.2-25.7-13.7c-0.4,0.6-2,0.7-2.9,1.3c-0.2,0.3,0.3,1.4-0.2,1.5
		c-1.1,0.5-1.1-0.7-2.5-0.4c-0.6,0.4-1,0.9-1.7,1.3C212.4,22.7,225.8,30.3,238.1,39.5z"/>
	<path class="st0" d="M195.5,16.3c0.2-0.3,0-1.2-0.3-1.4c-0.2,0.3-0.8,0.7-0.7,1.1C194.9,16,195,16.4,195.5,16.3z"/>
	<path class="st0" d="M245.1,78c-1.7,1.3-2.6,3.9-4.1,5.7c-2.6,0.3-5.1,1.1-7.4,1.5c1.8,1.6,3.8,3.3,5.4,5.1
		c0.2,2.1-0.1,4.3,0.1,6.5c2.5-0.8,5-1.5,7.2-2.5c2.8,0.6,5.2,1.8,8,2.4c-0.8-2.5-0.6-4-1.2-6.7c1.6-1.8,3.7-3.2,4.7-5.3
		c-2.7-0.2-5.3-1.1-7.8-1.5C248.3,81.7,246.7,79.9,245.1,78z"/>
	<path class="st0" d="M195.4,19.5c-1.3-0.5-2.4-1.2-3.3-1c-0.4,0.6-0.9,1.4-1.6,1.8c-0.7-0.1-1.1,0.5-1.3,0.7
		c1.3,0.5,2.3,0.7,3.8,0.9C193.3,20.9,194.9,20.3,195.4,19.5z"/>
	<path class="st0" d="M192.3,15.1c0,0,0.1-0.7-0.5-1.1c0.5-1.3,2.6-1.5,2-3.1l-0.8-0.5c-0.6,1.6-2.6,2.7-3.5,4.1
		C190.8,14.9,191.7,15.4,192.3,15.1z"/>
	<path class="st0" d="M151.2,263.6c1.2,2.4,3,4,4.1,5.9c1.9-1.1,2.7-4.2,4.7-5.3c2.6-0.3,5.2-0.6,7.5-1.1c-1.8-1.6-3.6-3.6-5-5.7
		c0-2.4,0.3-4.2,0.3-6.6c-2.3,0.5-4.8,1.2-7.3,2c-2.6-0.9-4.8-2.4-7.6-3c0.5,2.3,0.3,3.8,0.7,6.8c-1.6,1.8-3.7,3.2-5,5.1
		C146.3,262,148.4,263,151.2,263.6L151.2,263.6z"/>
	<path class="st0" d="M193,48.6c1.8,1.6,3.8,3.3,5.4,5.1c0.2,2.1-0.1,4.3,0.1,6.5c2.5-0.8,5-1.5,7.2-2.5c2.8,0.6,5.2,1.8,8,2.4
		c-0.8-2.5-0.6-4-1.2-6.7c1.6-1.8,3.7-3.2,4.7-5.3c-3.1-0.1-5.5-0.8-8-1.2c-1.4-2.1-3.2-3.7-4.6-5.8c-1.7,1.3-2.6,3.9-4.1,5.7
		C197.8,47.4,195.2,47.7,193,48.6L193,48.6z"/>
	<path class="st0" d="M260.9,74c0,0,0.3-1-0.2-0.9l-0.2,0.3C260.8,73.6,260.9,74,260.9,74z"/>
	<path class="st0" d="M90.4,249.2c1.2,2.4,3,4,4.1,5.9c1.9-1.1,2.7-4.2,4.7-5.3c2.6-0.3,5.2-0.6,7.5-1.1c-1.8-1.6-3.6-3.6-5-5.7
		c0-2.4,0.3-4.2,0.3-6.6c-2.3,0.5-4.8,1.2-7.3,2c-2.6-0.9-4.8-2.4-7.6-3c0.3,2.6,0.3,3.8,0.7,6.8c-1.6,1.8-3.7,3.2-5,5.1
		C85.5,247.6,87.8,248.3,90.4,249.2L90.4,249.2z"/>
	<path class="st0" d="M133.8,230.6c-12-2.3-22.2-7.4-31.7-13.6c-0.3,1-0.8,1.9-0.5,3.2c8.8,6.6,19.1,11,30.7,13.4
		C132.8,232.8,133.5,231.6,133.8,230.6L133.8,230.6z"/>
	<path class="st0" d="M156.6,235.3c-0.8-0.5-1.4-2.1-1.1-3.1c-5.5,0.4-10.4,0-15.3-0.4l-0.2,0.3c-0.7,1.1-2.1,1.4-2.7,2.2
		C142.9,235.5,149.8,236,156.6,235.3z"/>
	<path class="st0" d="M51.3,101.1c2.5-0.8,5-1.5,7.2-2.5c2.8,0.6,5.2,1.8,8,2.4c-0.8-2.5-0.6-4-1.2-6.7c1.6-1.8,3.7-3.2,4.7-5.3
		c-2.7-0.2-5.3-1.1-7.8-1.5c-1.4-2.1-3.2-3.7-4.6-5.8c-1.7,1.3-2.6,3.9-4.1,5.7c-2.8,0.6-5.5,1.1-7.6,1.8c1.8,1.6,3.8,3.3,5.4,5.1
		C51.4,96.8,51.1,99,51.3,101.1z"/>
	<path class="st0" d="M108.7,284c-41.3-13.6-73.1-40.4-91.5-87.2c-1.2,2.4-2.7,4.2-3.8,7.1c3.1,8,6.8,15.2,11.1,22
		s8.5,13.2,13.7,18.6c0.8,0.5,2-0.7,2.9-0.1c0.3,1.4,0.9,3,0.1,4.1c2.2,2.7,4.8,4.8,7.1,7.4c1.4,0.9,2.4,2.4,3.8,3.3s2.2,2.7,4,3
		c0.6-0.4,0-1.2,0.4-1.8c1.6-0.6,3.1-1.1,3.8-0.3c-0.4,0.6-0.2,1.5-0.8,1.9c-1.5-0.2-2.3,0.5-3.2,0.7c4.1,3.5,8.4,6.7,12.8,9.6
		c0.5-0.8,2-0.7,2.9-1.3c1.5,1.4,3.3,2.2,4.7,4.3l-0.7,1.1c3.6,2.4,7.6,4.2,11.1,6.1c0.6-0.4,0.5-0.1,1.2,0c0.5-0.8,0.5-2,1.6-2.5
		c1,0.3,2,1.3,2.1,2.2c-1.1,0.5-0.7,1.1-1.3,2c4.5,2.2,9.3,4.1,14.1,5.3c0.2-1.5,1.5-2.2,1.7-3.2c0.3,0.2,0.6,0.4,1.5,0.2
		C108.4,285.7,107.9,284.6,108.7,284L108.7,284z"/>
	<path class="st0" d="M70.7,182.1c0.7,3.2,2.4,5.5,3.6,7.9c0.8-0.7,1.8-1.6,2.4-2.4c-0.9-2.2-2.1-4.1-3.3-6.5
		C73,180.4,71.2,180.8,70.7,182.1L70.7,182.1z"/>
	<path class="st0" d="M102.1,63.9c-0.8-2.5-0.6-4-1.2-6.7c1.6-1.8,3.7-3.2,4.7-5.3c-2.7-0.2-5.3-1.1-7.8-1.5
		c-1.4-2.1-3.2-3.7-4.6-5.8c-1.7,1.3-2.6,3.9-4.1,5.7c-2.6,0.3-5.1,1.1-7.4,1.5c1.8,1.6,3.8,3.3,5.4,5.1c0.2,2.1-0.1,4.3,0.1,6.5
		c2.5-0.8,5-1.5,7.2-2.5C97.1,62.3,99.3,63.3,102.1,63.9z"/>
	<path class="st0" d="M98.7,217.2c0.5-0.8,0.5-1.3,0.5-2c-8.1-6.5-15.3-14.4-21.2-24.3c-0.8,0.7-1.9,1.1-2.2,2.1
		c5.9,9.9,13.1,17.8,21.4,24.4C97.7,216.9,98.4,217,98.7,217.2z"/>
	<path class="st0" d="M89,92.8c2.3-2.9,5.1-5.4,7.8-7.6l0.5-0.8c0.3,0.2,0.5-0.1,0.9-0.2c5.3-4.5,11.8-8.2,19.1-11.4
		c0.5-1.3,1.3-2,1.7-3.2c-0.3-0.2-0.6-0.4-1.3-0.5c-8.2,3.4-15.5,7.8-22.3,13.3c0.1,0.5,0.2,0.9,0,1.2c-2.3,2.9-5.1,5.4-8,7.9
		c-0.5,0.1-1.2,0-1.6,0.6c-0.2,0.3-0.1-0.5-0.3-0.2c-3.4,3.4-6.2,7.1-8.8,11l-3.6,6c-1.2,2.4-2.7,4.2-2.9,6.9c0.5,1.1,1,1.5,2.4,1.2
		c1.3-2,2.2-4.5,3.5-6.5c-2.5-2.8-0.1-7.2,3.6-6c0.7-1.1,1.9-2.3,2.4-3.6c1.3-0.7,2.1-2.6,3.3-3.8C86.5,95.5,87.6,93.8,89,92.8z"/>
	<path class="st0" d="M198.9,217.6C198.9,217.6,198.7,217.4,198.9,217.6C198.5,217.7,198.5,217.7,198.9,217.6
		c-3.8,2.7-8.2,4.6-11.3,6.9c-0.4,0.6-0.7-0.1-1.4,0.3c-7.7,3.3-15.7,5.7-24.1,6.9c0.1,0.5,0.5,1.1,0.1,1.7c0.1,0.5-0.9,1.4-0.6,1.6
		c15.2-2,27.8-7.7,37.5-14C199.4,219.9,199.3,218.2,198.9,217.6z"/>
	<path class="st0" d="M219.4,202.7c2.3-2.9,4.5-6.2,6.2-9.5c1.1-1.7,2-3.1,2.8-4.9c0.8-1.9,2.2-3.3,2.2-5.7c-0.6-0.4-0.9-1-1.9-0.8
		c0,0-0.2,0.3-0.5,0.1c-2,3.1-3.2,6.7-5.2,9.7s-4,6.1-6.3,9c-4.6,5.8-10,11-16.3,15.6c0.8,0.5,1.5,1.4,1.7,2.3
		C209,213.8,214.4,208.6,219.4,202.7L219.4,202.7z"/>
	<path class="st0" d="M268.7,235.9l7.7-11.7c-0.2-0.9,0.2-1.5,0.5-2c-0.8-2.5-2-3.7-3.3-5.3c-8.1,15.4-19.1,28.5-32.5,40.4
		c1,1.5,2.3,3.1,3.4,4.6c8.8-7.4,16.5-15.5,22.8-24.5c0.5-0.1-0.4-0.6,0.3-1C267.8,236.1,268,236.2,268.7,235.9L268.7,235.9z"/>
	<path class="st0" d="M225.8,114c0.6,0.4,0.8,0.5,1.5,0.2c0.6-0.4,1-0.9,1.1-1.7c-1.3-4.1-3.2-7.3-5.7-10.1c-0.3,1-1.3,2-1.8,2.8
		C222.7,108,224.2,111,225.8,114L225.8,114z"/>
	<path class="st0" d="M269.3,211.2c0.8,0.5,0.7,2,1.7,2.3c0.4-0.6,1.1-0.5,1.3-0.7c-0.9-1-1.2-2.4-2.2-3.4
		C269.8,209.9,269.4,210.4,269.3,211.2z"/>
	<path class="st0" d="M195.7,79.1c7.2,4.8,13.8,10.6,20,17.5c0.7,0.1,2.1-0.2,3.2-0.7c-6.3-8.1-13.1-14.6-21.4-19.6
		C196.7,77,196,78.1,195.7,79.1z"/>
	<path class="st0" d="M135.9,35.4c1.8,1.6,3.8,3.3,5.4,5.1c0.2,2.1-0.1,4.3,0.1,6.5c2.5-0.8,5-1.5,7.2-2.5c2.8,0.6,5.2,1.8,8,2.4
		c-0.8-2.5-0.6-4-1.2-6.7c1.6-1.8,3.7-3.2,4.7-5.3c-2.7-0.2-5.3-1.1-7.8-1.5c-1.4-2.1-3.2-3.7-4.6-5.8c-1.7,1.3-2.6,3.9-4.1,5.7
		C140.7,34.2,137.9,34.8,135.9,35.4z"/>
	<path class="st0" d="M142.5,63.7c-1-0.3-2.3-0.7-3.3,0.2c0.6,0.4-1.6,1.8-1.8,0.4l1.8-0.4c-1.1-0.7-3.6,0-4.7,0.5
		c-0.1-0.5-0.6-0.4-1-0.3c-3.9,1-7.6,1.8-10.7,2.9c0.2,0.9,0,2.4-0.3,3.4c4.2-1.6,9.1-2.4,13.5-3.5c0.2-0.3-0.6-0.4-0.4-0.6
		c0.5-0.1,1.2,0,1.6-0.6l-0.6-0.4c0.7,0.1,1.6-0.6,1.8-0.4c-1.1,0.5-1,0.9-1.6,1.8c20.6-2.8,36.3,1.1,50.4,7.6
		c1.7-0.1,2.4-1.2,2.9-2.1c-13.2-6.7-27.7-10.6-46.2-9.2C143.3,63,143.4,63.5,142.5,63.7z"/>
	<path class="st0" d="M158,43.6c0.2-0.3,0.1-0.7,0.1-0.7l-0.2,0.3C157.9,43.1,158,43.6,158,43.6z"/>
	<path class="st0" d="M115.5,282.8c12.5,3.4,26.3,4.9,41.5,4.1c-0.1-0.5-0.3-1.4,0.2-1.5l0.8,0.5l-0.4-1.8c0.5-0.1,0.9,1,0.8,0.5
		c-0.3-0.2-0.1-0.5-0.2-0.9c-14.8,0.7-29.8-0.8-44-4.6c-1.1,0.5-1.8,0.8-2.9,1.3c-0.1-0.5,0.5-1.3-0.1-1.7c-2.2-1.5-5.5-2-8.2-3.4
		c-2.9-1.1-5.5-2-8.2-3.4c-5.3-2.3-10.4-4.8-15.1-7.9c-9.7-5.9-18.6-13-26.6-21.4c-16-16.9-29-37.8-35.3-69
		c-0.1-0.5-0.2-2.1-0.6-2.8c-1.1-0.7-2.4,0-3-0.3c0.6-1.6,1.8-2.8,2.5-4.4c-2.3-20.2-0.3-37.3,4.2-53.1c-0.9-1-1.2-2.4-2.1-2.9
		l-1.4,0.3c0.1,0.5,0.7,0.1,0.6,0.4c-0.5,0.1-0.6,0.4-1,0.9c-5,17.9-7.4,38.6-3.2,62.5c6,31.5,20.2,54.3,36.8,71.6
		c17,17.2,37.7,29.5,61.7,36.5c0.8-0.7,2.6-1.5,3.5-0.5C116.4,282.6,115,282.9,115.5,282.8z"/>
	<path class="st0" d="M9.1,154.4c-0.2-13.7,1.1-26,3.8-37.4c5.4-22.8,15.8-42.3,29.9-58.9S75.3,27.6,100,17.9
		c12.3-4.7,26.8-8,40.8-8.7s26.4,0.6,38.1,2.7c2.4-1.2,3.7-3.2,4.2-5.2c-17.7-4-37.9-5.4-60.7-1.1c-29.2,5.6-51.1,18.3-68.9,33.3
		c-0.1,3.1-2,5.5-6.1,5.6c-2.6,2.7-5.6,5.5-7.9,8.4c0.1,0.5,0.8,0.5,0.2,0.9c-0.3-0.2-0.1-0.5-0.4-0.6c-5.9,6.5-10.9,13.6-15.2,20.7
		C21.7,77.5,19.8,81,18,85c-1.9,3.5-3.9,7.8-5,11.9c1.1-0.5,1.7-1.3,2.8-1.8c0.3,1.4-1,2.1-1.8,2.8l-1.5,2.2c-0.4,0.6-1-0.3-1.4,0.3
		c-1.1,2.9-2.2,5.7-3,8.8c1.8,0.4,3.3,1,5.8,0.2c-0.5,1.3-1.6,0.6-2.1,1.4c0.5-0.1,1.3-0.7,1.7-0.1c-0.7,1.1-1.3,2-1.3,3.2
		c-0.5,0.8-1.4,0.3-2.5,0.8c-0.5,0.8-1.2,1.2-2.6,1.5c-4.7,18.1-5.5,39.4-1.1,63.1c0.8,3.7,1.8,7.6,3,11.2c0.6,1.6,0.9,3.4,1.8,5.2
		c0.2,0.9,0.4,1.8,1,2.7c0.1,0.5,0.2,0.9,0.5,1.1l0.1,0.5c-0.2,0.3,0.2,0.9,0.3,0.2c-0.3-0.2,0.7,0.1,0.9-0.2c1.2-1.2,2-3.1,3.8-3.9
		C12.6,183.8,9.8,168,9.1,154.4z"/>
	<path class="st0" d="M177.7,6.3c0.1,0.5-0.2,0.3-0.4,0.6c-0.2,0.3-0.3-0.2-0.1-0.5C177.3,6.4,177.7,6.3,177.7,6.3z"/>
	<path class="st0" d="M176.5,6.3c0.1,0.5-0.4,0.6-0.5,0.8l-0.2-0.9C176.1,6.4,176.1,6.4,176.5,6.3z"/>
	<path class="st0" d="M12.8,108.2c0,0-0.3-0.2-0.1-0.5l1.4-0.3C14,108.1,13.3,108.1,12.8,108.2z"/>
	<path class="st0" d="M10.9,188.2c-0.5,2,0.9,5.4,1.3,6.5c-0.5,0.1-0.7-0.1-0.6,0.4c-0.7-2-0.8-4.9-1.4-6.9
		C10.5,187.6,10.6,188,10.9,188.2L10.9,188.2z"/>
	<path class="st0" d="M239.3,254.5c13-11.4,23.8-24.7,32-39.6c-0.3-0.2-1.3-0.5-0.7-0.8c-1.2,0-1.4-0.9-2-1.3
		c-18.2,31.9-46.3,58.9-94.7,69c-0.5,0.8-0.6,1.6-1.5,2.2c-0.3-0.2-0.7-0.1-1-0.3c-0.6-0.4-0.4-0.6-0.3-1.4c-1.8,0.4-4,0.6-6.1,0.8
		c-0.8,0.7-1.8,1.6-1.8,0.4c0,0,0.7,0.1,0.6-0.4c-1.4,0.3-2.9,0.1-4.2,0.4c-0.1,0.7-0.3,1-0.4,1.8c-0.7-0.1-0.3,1-0.5,1.3
		s-0.6-0.4-0.2,0.3c6.7,0,15.8-1.6,23.2-3.1c23.9-5.4,42.4-16,57.4-28.5C239.4,254.9,238.9,254.6,239.3,254.5
		C238.6,254.4,238.7,254.8,239.3,254.5L239.3,254.5z"/>
	<path class="st0" d="M160.9,285.9c0.2-0.3,0.5-0.1,1.1-0.5C161.6,286,161.3,285.8,160.9,285.9z"/>
	<path class="st0" d="M161.6,284.8c0.2-0.3,1.4-0.3,1.8-0.4C162.8,284.8,162.2,285.2,161.6,284.8z"/>
	<path class="st0" d="M216.8,266.4c-0.1-0.5,0.6-0.4,1.1-0.5c0.1,0.5-0.4,0.6-0.7,1.1C216.9,266.8,217.2,266.3,216.8,266.4z"/>
	<path class="st0" d="M215,270.8c-0.3-0.2-0.3-0.2-0.4-0.6c0.5-0.1,0.3,0.2,0.7,0.1C215.7,270.4,214.9,270.4,215,270.8L215,270.8z"
		/>
	<path class="st0" d="M244.1,45.5c0.8,0.5,1.2,1.2,2,1.7c1.5,1.4,2.7,2.6,3.9,3.8c2.5,2.8,5.2,5.4,7.5,8.1c5,5.7,9.2,12,13.3,18.7
		c7.9,13.5,14.6,29.9,17.6,49.1c5.2,34.5-2.1,62.1-13.1,85.5c1.5,1.4,2.4,3.6,3.7,5.2c2.2-3.3,3.7-7.5,5.5-10.8
		c-0.4,0.6-1,0.9-1.7,0.1l1.8-0.4c0.5-1.3,2.2-3.3,1.3-4.4c0.5-0.1,0.9-0.2,1.1-0.5c6.1-15.9,9.9-34.6,9.7-55.4
		c-0.5-21.1-6.7-45.1-15.2-61.8c-2.9-5.9-6.2-11.2-9.2-16.4c-1.5-2.6-3.5-5.1-5.1-7.4c-0.7-1.3-1.7-2.3-2.9-3.5
		c-0.9-1-1.8-2.8-2.8-3c0.1-0.7-0.5-1.1-0.7-1.3c-0.1-0.5-0.7-0.1-1.3-0.5c0.2-0.3,0.6-0.4,0.3-1c-2.8-3-5.7-6.5-9.1-9.2
		c0.6,0.4-0.2,0.3-1.1,0.5c-0.5,0.1-0.8-0.5-1.3-0.5c-1.3,0.7-3.3,0.2-4.9,0.8c0,0-0.4,0.6-0.5,0.1c-0.5,0.1,0.6,0.4,0.7,0.8
		C243.5,44.7,244,45,244.1,45.5L244.1,45.5z"/>
	<path class="st0" d="M283.8,205.5c0.1,0.5-0.1,0.7-0.7,1.1l-1.1-0.7C282.6,205.5,283.4,205.6,283.8,205.5z"/>
	<path class="st0" d="M283.1,204.2l-0.5,0.8c-0.5,0.1-0.7-0.1-1-0.3C281.9,204.2,282.4,204.6,283.1,204.2z"/>
	<path class="st0" d="M282.3,202.9l-0.5,0.8c-0.5,0.1-0.6-0.4-0.8-0.5C281.1,202.9,281.9,203,282.3,202.9z"/>
	<path class="st0" d="M258.6,52.6c-0.4,0.6-0.2,0.3-0.5,0.1C258.4,52.9,258.6,52.6,258.6,52.6z"/>
	<path class="st0" d="M238.4,259.5c0.7,0.1,0.7,0.8,1.7,1.1c-0.2-0.9-0.4-1.8-0.3-2.6c-7.7,6.9-17.2,12.2-27.1,18.1
		c-13.2,6.1-27.6,11-44.5,13.1c-4.2,0.4-8,0.7-11.5,1.2c-0.5,0.1-0.4,0.6-0.4,0.6s-0.1-0.5-0.3-0.2c0.3,0.2,0,1.2-0.4,1.8
		c-0.3-0.2-0.3-1.4-0.4-1.8c-15.2,0.8-28.2-1.4-40.6-4.3c-0.5,0.8-2,0.7-1.7,2c0.9-0.2,3.9-2.2,4.9-0.8c-1.3,2-5.2,1.8-6.4,3.7
		c1.6,0.6,3.3,1,5.1,1.4c0.6-0.4,2.4-1.2,3-0.4c0.6,0.4-0.3,1-0.2,1.5c14.9,3.4,31.7,4.5,50.2,1.9c14.5-2,27.9-6,39.1-11
		c-0.4-0.6-0.9-1-1.1-1.9c0.5-1.3,1.6-1.8,2-3.1l1.4-0.3c-0.1,0.7,0.4,1.8,1.1,1.9c1-0.9,1-2.1,1.8-2.8c1.1,0.7,2.5,0.4,3.8,0.9
		c1.2-1.2,1.6-2.5,2.6-3.9c0.3-1,0.5-2,1.6-2.5c1.4,0.9-0.3,3-0.5,4.4c6.7-3.6,12.6-7.7,18.2-12C238.7,264,236.9,261.2,238.4,259.5
		L238.4,259.5z"/>
</g>
<text transform="matrix(1 0 0 1 51.6505 184.4531)" class="st1"><tspan x="0" y="0" class="st2 st3">S</tspan><tspan x="66.6" y="0" class="st4 st2 st5">NHT</tspan></text>
</svg>
