<?xml version="1.0" encoding="utf-8"?>
<!-- Generator: Adobe Illustrator 26.0.0, SVG Export Plug-In . SVG Version: 6.00 Build 0)  -->
<svg version="1.1" id="图层_1" xmlns="http://www.w3.org/2000/svg" xmlns:xlink="http://www.w3.org/1999/xlink" x="0px" y="0px"
	 viewBox="0 0 300 300" style="enable-background:new 0 0 300 300;" xml:space="preserve">
<style type="text/css">
	.st0{fill:#428DEC;}
	.st1{fill:#42C5EC;}
</style>
<path class="st0" d="M150,259.9c16.7,0,26,2,40.1,7.6l1.9,0.8c11.8,4.7,17.8,6.3,29.7,6.4h1.8h73.6v14.8h-73.6
	c-16.7,0-26-2-40.1-7.6l-1.9-0.8c-12.4-5-18.4-6.4-31.6-6.4c-12.6,0-18.6,1.3-29.9,5.8l-1.7,0.7c-14.6,5.9-23.8,8.2-39.9,8.4h-2.1
	H2.8v-14.8h73.6c12.6,0,18.6-1.3,29.9-5.8l1.7-0.7C123.2,262.1,132.5,259.9,150,259.9z"/>
<path class="st0" d="M150,211.3c16.7,0,26,2.2,40.1,8.1l1.9,0.8c11.8,5,17.8,6.7,29.7,6.8h1.8h73.6v15.8h-73.6
	c-16.7,0-26-2.2-40.1-8.1l-1.9-0.8c-12.4-5.3-18.4-6.8-31.6-6.8c-12.6,0-18.6,1.4-29.9,6.2l-1.7,0.8c-14.6,6.3-23.8,8.7-39.9,8.9
	h-2.1H2.8v-15.8h73.6c12.6,0,18.6-1.4,29.9-6.2l1.7-0.8C123.2,213.7,132.5,211.3,150,211.3z"/>
<rect x="44.9" y="185.2" class="st0" width="21" height="21"/>
<rect x="239.4" y="186.2" class="st0" width="21" height="21"/>
<polygon class="st0" points="55.4,75.7 100,120.3 85.1,135.2 65.9,116 65.9,164.2 44.9,164.2 44.9,115.9 25.7,135.2 10.8,120.3 "/>
<polygon class="st0" points="249.9,76.7 294.5,121.3 279.6,136.2 260.4,116.9 260.4,165.2 239.4,165.2 239.3,117 220.1,136.2 
	205.3,121.3 "/>
<path class="st1" d="M150,160c-23.8,0-42.9-23.5-42.9-54.5c0-36.8,39.8-97,42.9-97s42.9,60.1,42.9,97C192.9,157.6,150,160,150,160z"
	/>
</svg>
