<?xml version="1.0" encoding="utf-8"?>
<!-- Generator: Adobe Illustrator 26.0.0, SVG Export Plug-In . SVG Version: 6.00 Build 0)  -->
<svg version="1.1" id="图层_1" xmlns="http://www.w3.org/2000/svg" xmlns:xlink="http://www.w3.org/1999/xlink" x="0px" y="0px"
	 viewBox="0 0 300 300" style="enable-background:new 0 0 300 300;" xml:space="preserve">
<style type="text/css">
	.st0{fill:#428DEC;}
	.st1{fill:#42C5EC;}
</style>
<path class="st0" d="M288,281.2c-2.5-2.6-5-5.1-7.7-7.5h0.2V11.2h-15v30H243v15h22.5v15H243v15h22.5v15H243v15h22.5v15H243v15h22.5
	v15H243v15h22.5v15H243v15h22.5v15H243v15h22.5v30c-12,0.4-22.3,14.7-30,15c-8,0.5-11.2-15-22.5-15c-12.7,0-21.1,15-30,15
	c-8.9,0-16-15-30-15c-14,0-24.1,15-30,15c-8.2-0.9-17.1-15-30-15c-11.6,0-23.2,14.8-30,15s-18.4-15-30-15c-15.6,0-21.7,13.8-22.5,15
	c-8.7,12.2,2,21.4,7.5,15c5.2-5.3,8.7-14.1,15-15s18.4,15,30,15c10.3,0,21.8-15,30-15s18,15,30,15c10.3-0.2,17.8-14.3,30-15
	c8.4-0.5,13.3,15,30,15c10.6,0,21.3-14.5,30-15c8.7-0.5,11.9,14.2,23.5,14.2c13,0,19.2-14,29-14.2c9.8-0.2,10.1,11.5,22.5,15
	C293.1,297,295.7,288.3,288,281.2L288,281.2z"/>
<path class="st0" d="M18,258.8c5.2-5.3,8.7-14.1,15-15s18.4,15,30,15c10.3,0,21.8-15,30-15s18,15,30,15c10.3-0.2,17.8-14.3,30-15
	c8.4-0.5,13.3,15,30,15c10.6,0,21.3-14.5,30-15c10.5,0.2,9.6,13.1,22.5,15c13.8,0.2,13.8-15.3,0-15c-8,0.5-11.2-15-22.5-15
	c-12.7,0-21.1,15-30,15c-8.9,0-16-15-30-15c-14,0-24.1,15-30,15c-8.2-0.9-17.1-15-30-15c-11.6,0-23.2,14.8-30,15s-18.4-15-30-15
	c-15.6,0-21.7,13.8-22.5,15C1.8,255.9,12.5,265.2,18,258.8z"/>
<path class="st1" d="M117.7,207.7c-37.4,0-67.5-29.1-67.5-67.5c0-45.6,62.6-120,67.5-120s67.5,74.4,67.5,120
	C185.2,204.6,117.7,207.7,117.7,207.7z"/>
</svg>
