<svg id="图层_1" data-name="图层 1" xmlns="http://www.w3.org/2000/svg" viewBox="0 0 275.33 274.01"><path d="M27,28.23h95.15v95.15H27Z" style="fill:#fff"/><path d="M88.8,94.83v28.55H60.26V94.83Zm33.34-33.34V90H93.56V61.53ZM88.8,28.19V56.77H60.26V28.23Z" style="fill:#5d6d7e;isolation:isolate;opacity:0.30000001192092896"/><path d="M126.86,123.38a4.75,4.75,0,0,1-4.75,4.75H27a4.76,4.76,0,0,1-4.76-4.75V28.23A4.76,4.76,0,0,1,27,23.47h95.15a4.76,4.76,0,0,1,4.75,4.76ZM27,94.83v28.55H55.5V94.83Zm61.84,0H60.26v28.55H88.8Zm4.76,0v28.55h28.55V94.83Zm0-33.34V90h28.55V61.53Zm-4.76,0H60.26V90H88.8Zm33.34-33.3H93.56V56.77h28.55Zm-33.34,0H60.26V56.77H88.8ZM27,90.07H55.5V61.53H27Zm0-33.3H55.5V28.23H27Z" style="fill:#5d6d7e"/><path d="M246.94,123.38H151.79V28.23h95.15Z" style="fill:#fff"/><path d="M213.64,94.83v28.55H185.09V94.83ZM180.3,61.49V90H151.79V61.53Zm33.34-33.3V56.77H185.09V28.23Z" style="fill:#5d6d7e;isolation:isolate;opacity:0.30000001192092896"/><path d="M147,28.23a4.76,4.76,0,0,1,4.76-4.76h95.15a4.76,4.76,0,0,1,4.76,4.76v95.15a4.76,4.76,0,0,1-4.76,4.75H151.79a4.77,4.77,0,0,1-4.76-4.75Zm71.37,66.6v28.55h28.54V94.83Zm-33.34,28.55h28.55V94.83H185.09Zm-33.3-28.55v28.55h28.55V94.83Zm0-33.34V90h28.55V61.53ZM185.06,90h28.55V61.53H185.09ZM151.79,56.77h28.55V28.23H151.79Zm33.3,0h28.55V28.23H185.09Zm61.85,4.76H218.4V90.07h28.54Zm0-33.3H218.4V56.77h28.54Z" style="fill:#5d6d7e"/><path d="M27,152h95.15v95.15H27Z" style="fill:#fff"/><path d="M88.8,218.57v28.54H60.26V218.57Zm33.34-33.34v28.58H93.56V185.26ZM88.8,151.93v28.55H60.26V152Z" style="fill:#5d6d7e;isolation:isolate;opacity:0.30000001192092896"/><path d="M126.86,247.11a4.76,4.76,0,0,1-4.75,4.76H27a4.76,4.76,0,0,1-4.76-4.76V152A4.76,4.76,0,0,1,27,147.21h95.15a4.75,4.75,0,0,1,4.75,4.75ZM27,218.57v28.54H55.5V218.57Zm61.84,0H60.26v28.54H88.8Zm4.76,0v28.54h28.55V218.57Zm0-33.34v28.58h28.55V185.26Zm-4.76,0H60.26v28.58H88.8Zm33.34-33.3H93.56v28.55h28.55Zm-33.34,0H60.26v28.55H88.8ZM27,213.81H55.5V185.26H27Zm0-33.34H55.5V152H27Z" style="fill:#5d6d7e"/><path d="M246.94,247.11H151.79V152h95.15Z" style="fill:#fff"/><path d="M185.09,180.51V152h28.55v28.55Zm-33.3,33.34V185.26h28.55v28.55Zm33.3,33.3V218.57h28.55v28.54Z" style="fill:#5d6d7e;isolation:isolate;opacity:0.30000001192092896"/><path d="M147,152a4.77,4.77,0,0,1,4.76-4.75h95.15A4.76,4.76,0,0,1,251.7,152v95.15a4.76,4.76,0,0,1-4.76,4.76H151.79a4.76,4.76,0,0,1-4.76-4.76Zm99.91,28.55V152H218.4v28.55Zm-61.85,0h28.55V152H185.09Zm-4.75,0V152H151.79v28.55Zm0,33.34V185.26H151.79v28.55Zm4.75,0h28.55V185.26H185.09Zm-33.3,33.3h28.55V218.57H151.79Zm33.3,0h28.55V218.57H185.09Zm61.85-61.85H218.4v28.51h28.54Zm0,33.34H218.4v28.55h28.54Z" style="fill:#5d6d7e"/></svg>