<?xml version="1.0" encoding="utf-8"?>
<!-- Generator: Adobe Illustrator 26.0.0, SVG Export Plug-In . SVG Version: 6.00 Build 0)  -->
<svg version="1.1" id="图层_1" xmlns="http://www.w3.org/2000/svg" xmlns:xlink="http://www.w3.org/1999/xlink" x="0px" y="0px"
	 viewBox="0 0 200 200" style="enable-background:new 0 0 200 200;" xml:space="preserve">
<style type="text/css">
	.st0{fill:#FFFFFF;}
	.st1{fill:#A9B4C0;}
	.st2{fill:#27A2DF;}
	.st3{fill:#30AD98;}
	.st4{fill:#5D6D7E;}
</style>
<path class="st0" d="M28.1,21.9h143.8c4.2,0,6.2,2.1,6.2,6.2v143.8c0,4.2-2.1,6.2-6.2,6.2H28.1c-4.2,0-6.2-2.1-6.2-6.2V28.1
	C21.9,24,24,21.9,28.1,21.9z"/>
<path class="st1" d="M64.7,181.2c-1.4-1.8-2.2-4-2.2-6.2c0-8.3,1.6-22.9,4.6-43.8c4.4-27.2,12.3-35.9,23.7-26.2
	c17.1,14.5,48.5,46.5,22.8,69.7c-2.8,2.6-5.6,4.7-8.4,6.5H64.7z M109.5,170.1c9.3-8.4,9.9-18.2,3.3-30.6c-5.3-9.9-14.7-20.1-26-29.8
	c-5.9-5-9.8-0.8-13.5,22.4c-3.1,20.5-4.6,34.9-4.6,42.8h34.7C105.5,173.6,107.5,172,109.5,170.1z"/>
<path class="st1" d="M50.4,181.2c-2.6-7.3-6.3-17.7-6.6-18.8c-3.5-12.6-5.7-30.8-6.6-54.7c22.2-39.1,42.1-50.7,59.6-34.7
	c10.3,9.4,21.3,19.1,31.7,34.7c16.3,24.4,64,34.7,40,58.1c-5.9,5.7-12.3,10.8-19.1,15.4H50.4z M147.5,175
	c5.9-4.1,11.5-8.6,16.6-13.6c7.2-7,6.3-10.8-3.3-18.5c-2.3-1.8-4.6-3.6-7.1-5.2c-1-0.7-6.5-4.5-8.1-5.7
	c-10.9-7.7-17.5-13.5-22.3-20.8c-4-6-8.5-11.6-13.4-16.8c-4.7-5-6.6-6.9-17.4-16.7c-13.3-12.1-29-3.3-49.1,31.6
	c0.9,22.6,3,39.8,6.3,51.5c0.1,0.4,1.7,4.8,4.5,12.6l0,0l0.6,1.6L147.5,175L147.5,175z"/>
<path class="st2" d="M25,106.2h-6.2V81c34.2-43.7,63.3-54.5,87.5-32.3c4,3.7,7.4,6.2,10.4,8.3c-1.3,1.6-2.3,3.5-3,5.5
	c-5.4-3.7-7.2-5.2-11.6-9.2c-20.5-18.8-45.4-10-77,29.8V106.2z M175,106.2v-7.2c-15.8,4.1-28.2,1.2-36.5-11.3c-0.3-0.5-0.6-1-1-1.4
	c2-0.7,3.8-1.8,5.5-3.1l0.7,1.1c8.6,13,22.8,11.7,37.5,6.2v15.7H175z"/>
<path class="st3" d="M131.2,90.6c12.1,0,21.9-9.8,21.9-21.9s-9.8-21.9-21.9-21.9s-21.9,9.8-21.9,21.9S119.2,90.6,131.2,90.6z
	 M131.2,84.4c-8.6,0-15.6-7-15.6-15.6s7-15.6,15.6-15.6s15.6,7,15.6,15.6S139.9,84.4,131.2,84.4z"/>
<path class="st4" d="M25,18.8h150c3.5,0,6.2,2.8,6.2,6.2v150c0,3.5-2.8,6.2-6.2,6.2H25c-3.5,0-6.2-2.8-6.2-6.2V25
	C18.8,21.5,21.5,18.8,25,18.8z M25,25v150h150V25H25z"/>
</svg>
