<svg id="图层_1" data-name="图层 1" xmlns="http://www.w3.org/2000/svg" viewBox="0 0 200 200"><path d="M81.25,18.75l26.07,41.71L125.24,50l56.25,32.81v65.63l-56.25,32.81L69,148.44V118.75H18.75Z" style="fill:#fff"/><path d="M81.25,18.75l26.07,41.71L125.24,50l56.25,32.81v65.63l-56.25,32.81L69,148.44V118.75H18.75Zm44,38.48-14.61,8.53,33.12,53H75.24v26.09l50,29.17,50-29.17V86.4Zm-44-26.7L30,112.5H69V82.81l32.93-19.2Zm24,38.38-30,17.49v26.1h57.23L105.23,68.91Z" style="fill:#5d6d7e"/><path d="M81.25,30.53s-52.46,82-51.23,82c1.77,0,39,0,39,0V82.81l32.93-19.2" style="fill:#c49f74"/><polygon points="110.75 65.81 125.37 57.28 175.37 86.45 175.37 144.89 125.37 174.06 75.37 144.89 75.37 118.8 143.87 118.8 110.75 65.81" style="fill:#c49f74"/></svg>