<svg id="图层_1" data-name="图层 1" xmlns="http://www.w3.org/2000/svg" viewBox="0 0 153.89 185.33"><path d="M17,15H136.67c3.47,0,5.2,2.09,5.2,6.25V165c0,4.16-1.73,6.25-5.2,6.25H17c-3.47,0-5.2-2.09-5.2-6.25V21.26C11.75,17.14,13.48,15,17,15Z" style="fill:#fff"/><path d="M45.58,149.39h26v-25h-26Zm-5.21,0v-25H24.81v-6.25H40.37v-25H24.81V86.89H40.37v-25h5.21v25h26v-25h5.23v25H97.63v-25h5.18v25h20.82v-25h5.2v93.75h-104v-6.25Zm5.21-56.25v25h26v-25Zm31.23,56.25H97.63v-25H76.81Zm0-31.25H97.63v-25H76.81Zm26-25v25h20.82v-25Zm0,56.25h20.82v-25H102.81Z" style="fill:#e8e8e8"/><path d="M13.61,18.14H139.27V49.39H13.61Zm72.5,15.62V39h24.16V33.76Zm29,0V39h9.7V33.76Z" style="fill:#31a9e1"/><path d="M14.05,11.89H137.72c2.85,0,5.15,2.8,5.15,6.25v150c0,3.45-2.3,6.25-5.15,6.25H14.05c-2.85,0-5.16-2.8-5.16-6.25v-150C8.89,14.69,11.2,11.89,14.05,11.89Zm0,6.25v150H137.72v-150Z" style="fill:#5d6d7e"/></svg>