<?xml version="1.0" encoding="utf-8"?>
<!-- Generator: Adobe Illustrator 26.0.0, SVG Export Plug-In . SVG Version: 6.00 Build 0)  -->
<svg version="1.1" id="图层_1" xmlns="http://www.w3.org/2000/svg" xmlns:xlink="http://www.w3.org/1999/xlink" x="0px" y="0px"
	 viewBox="0 0 315.5 309.6" style="enable-background:new 0 0 315.5 309.6;" xml:space="preserve">
<style type="text/css">
	.st0{fill:#DBDBDB;}
	.st1{fill:#FFC835;}
	.st2{enable-background:new    ;}
	.st3{font-family:'Algerian';}
	.st4{font-size:120px;}
	.st5{fill:#474747;}
	.st6{font-size:36px;}
</style>
<path class="st0" d="M293.4,307.3H22.1c-6.2-0.1-12-4.1-15.2-10.7c-3.4-6.8-4.1-15.2-1.9-22.8l46.5-156.4
	c2.4-9.1,9.3-15.3,17.1-15.5H77c5.4,0.5,9.5,6.3,9.1,12.9c-0.4,6-4.2,10.7-9.1,11.2h-8.5L21.8,282.7v0.4h271.6v-0.4l-46.2-156.3H239
	c-5.4-0.5-9.5-6.3-9.1-12.9c0.4-6,4.2-10.7,9.1-11.2h8c7.7,0.2,14.5,6.2,17,15.1l46.5,156.4c2.2,7.6,1.5,16-1.9,22.8
	C305.4,303.1,299.6,307.2,293.4,307.3z"/>
<path class="st1" d="M145.1,232c0,0-17.9-47.6,0.3-125.4C163.1,26.3,136.9,3,136.9,3c4.6,29.9,2.8,60.8-5.3,89.6
	C115.6,148.2,145.2,232,145.1,232L145.1,232z M108,232c0,0-18.7-47.6,0.4-125.4C126.7,26.3,99.4,3,99.4,3c4.8,30,2.8,60.9-5.7,89.6
	C77.2,148.2,107.9,232,108,232L108,232z M182.6,232c0,0-18.7-47.6,0.4-125.4C201.4,26.3,174.1,3,174.1,3c4.8,30,2.8,60.9-5.7,89.6
	C152,148.2,182.6,232,182.6,232z M219.9,232c0,0-18.7-47.6,0.4-125.4C238.7,26.3,211.4,3,211.4,3c4.7,30,2.7,61-5.8,89.6
	C189.2,148.2,219.8,232,219.9,232L219.9,232z"/>
<text transform="matrix(1 0 0 1 3.9635 282.6837)" class="st2"><tspan x="0" y="0" class="st3 st4">t</tspan><tspan x="69.4" y="0" class="st5 st3 st6">hornthwaite</tspan></text>
</svg>
