<svg id="图层_1" data-name="图层 1" xmlns="http://www.w3.org/2000/svg" viewBox="0 0 168.77 197"><path d="M19,24.36H133.61l22.66,21.39V174.36H19Z" style="fill:#fff"/><path d="M162.52,155.61v18.75a6.25,6.25,0,0,1-6.25,6.25H25a6.25,6.25,0,0,1-6.25-6.25v-12.5H25v12.5H156.27V155.61ZM131.9,18.11l30.62,31.37v56.13h-6.25V52l-27-27.66H25V43.11H18.77V24.36A6.25,6.25,0,0,1,25,18.11Z" style="fill:#5b6b7a"/><path d="M168.77,105.61v50H50v-50ZM62.85,142.5H56v6.86h6.86ZM125,49.36v50H6.27v-50ZM19,86.25H12.08v6.86h6.86V86.25Z" style="fill:#5a6978"/><path d="M27,117.36l.43.36,16.19,16.14L27.46,150.05a3.12,3.12,0,0,1-4.78-4l.36-.44L31.68,137H28.05A34.42,34.42,0,0,1,.64,123.36a3.14,3.14,0,1,1,5-3.79A28.21,28.21,0,0,0,26.52,130.7h5.19l-8.65-8.65a3.11,3.11,0,0,1-.36-4l.36-.43A3.12,3.12,0,0,1,27,117.36Z" style="fill:#2f98cf"/><text transform="translate(33.19 93.11) scale(1.06 1)" style="isolation:isolate;font-size:50px;fill:#fff;font-family:ArialMT, Arial">TIF</text><g style="isolation:isolate"><text transform="translate(62.85 147.65) scale(1.06 1)" style="isolation:isolate;font-size:50px;fill:#fff;font-family:ArialMT, Arial">D</text><text transform="translate(101.13 147.65) scale(1.06 1)" style="isolation:isolate;font-size:50px;fill:#fff;font-family:ArialMT, Arial;letter-spacing:-0.12917342973241788em">A</text><text transform="translate(132.54 147.65) scale(1.06 1)" style="isolation:isolate;font-size:50px;fill:#fff;font-family:ArialMT, Arial;letter-spacing:-0.03606832447060951em">T</text></g></svg>