<svg id="图层_1" data-name="图层 1" xmlns="http://www.w3.org/2000/svg" viewBox="0 0 192 189"><path d="M81.75,71.23H175.5a6.25,6.25,0,0,1,6.25,6.25h0v93.75a6.25,6.25,0,0,1-6.25,6.25H81.75a6.25,6.25,0,0,1-6.25-6.25V77.48a6.25,6.25,0,0,1,6.25-6.25ZM119.25,65h-50v56.25h-50A6.25,6.25,0,0,1,13,115h0V21.23A6.25,6.25,0,0,1,19.25,15H113a6.25,6.25,0,0,1,6.25,6.25Z" style="fill:#fff"/><path d="M156.75,77.48H175.5V96.23H156.75Zm-75,25H100.5v18.75H81.75Zm25-25H125.5V96.23H106.75Zm0,25H125.5v18.75H106.75Zm0,25H125.5v18.75H106.75Zm25-50H150.5V96.23H131.75Zm0,25H150.5v18.75H131.75Zm0,25H150.5v18.75H131.75Zm-25,25H125.5v18.75H106.75Zm-25-75H100.5V96.23H81.75ZM69.25,65v43.39C55.5,105,59.9,78.67,48.94,67.71Q37.21,56,25.5,20.84V15h90.62Q98.27,47.14,95.81,61.85c-.17,1.07-.35,2.11-.54,3.13Zm36.38-43.75H32.23C39.5,42.49,46.65,56.59,53.36,63.29,58.19,68.13,60.5,74,63,84.42V58.73h27.1C92,49.73,97.18,37.29,105.63,21.23Z" style="fill:#30ad98"/><path d="M92.64,61.85l.09-.51c1.58-9.51,7.62-23.86,18.11-43.24H28.62v2.23C36.24,43.08,43.81,58.17,51.15,65.5c4.29,4.3,6.44,9.75,8.76,19.63l.68,2.94c1.85,8,3.36,12.52,5.54,15V61.85Z" style="fill:#deeadd"/><path d="M159.88,51.06V29.33Q152.5,19.75,144.25,15V11.23a2.1,2.1,0,0,1,2.08-2.12,2,2,0,0,1,1.17.34,73.32,73.32,0,0,1,18,16.92l.63.83V51.07l8.83-8a3.35,3.35,0,0,1,4.54,0,2.84,2.84,0,0,1,.14,4,1.37,1.37,0,0,1-.17.17L163,62.24l-16.51-15a2.85,2.85,0,0,1-.19-4l.16-.16a3.35,3.35,0,0,1,4.54,0l8.83,8Z" style="fill:#27a2df"/><path d="M81.75,71.23H175.5a6.25,6.25,0,0,1,6.25,6.25h0v93.75a6.25,6.25,0,0,1-6.25,6.25H81.75a6.25,6.25,0,0,1-6.25-6.25V77.48a6.25,6.25,0,0,1,6.25-6.25Zm0,6.25v93.75H175.5V77.48ZM119.25,65h-50v56.25h-50A6.25,6.25,0,0,1,13,115h0V21.23A6.25,6.25,0,0,1,19.25,15H113a6.25,6.25,0,0,1,6.25,6.25ZM113,58.73V21.23H19.25V115H63V58.73Z" style="fill:#5d6d7e"/></svg>