<svg id="图层_1" data-name="图层 1" xmlns="http://www.w3.org/2000/svg" viewBox="0 0 192 189"><path d="M81.88,65.53h93.74a6.25,6.25,0,0,1,6.26,6.25h0v93.75a6.25,6.25,0,0,1-6.26,6.25H81.88a6.25,6.25,0,0,1-6.26-6.25V71.78a6.25,6.25,0,0,1,6.26-6.25Zm37.5-6.25h-50v56.25h-50a6.25,6.25,0,0,1-6.26-6.25h0V15.53a6.25,6.25,0,0,1,6.26-6.25h93.74a6.25,6.25,0,0,1,6.26,6.25Z" style="fill:#fff"/><path d="M156.88,71.78h18.74V90.53H156.88Zm-75,25h18.74v18.75H81.88Zm25-25h18.74V90.53H106.88Zm0,25h18.74v18.75H106.88Zm0,25h18.74v18.75H106.88Zm25-50h18.74V90.53H131.88Zm0,25h18.74v18.75H131.88Zm0,25h18.74v18.75H131.88Zm-25,25h18.74v18.75H106.88Zm-25-75h18.74V90.53H81.88Zm-12.5-12.5v43.39C55.62,99.32,60,73,49.06,62Q37.33,50.3,25.62,15.14V9.28h90.63Q98.4,41.44,95.93,56.15c-.17,1.07-.35,2.11-.54,3.13Zm36.37-43.75H32.35c7.27,21.26,14.43,35.36,21.14,42.06,4.82,4.84,7.13,10.69,9.59,21.13V53h27.1C92.11,44,97.31,31.59,105.75,15.53Z" style="fill:#30ad98"/><path d="M92.76,56.15l.09-.51c1.58-9.51,7.62-23.86,18.11-43.24H28.75v2.23C36.37,37.38,43.94,52.47,51.28,59.8c4.29,4.3,6.44,9.75,8.76,19.63l.68,2.94c1.85,8,3.36,12.52,5.54,15V56.15Z" style="fill:#deeadd"/><path d="M47.51,135.05v22.39q7.4,9.57,15.61,14.34v3.83a2.1,2.1,0,0,1-2.1,2.11h0a2.1,2.1,0,0,1-1.17-.36,74.39,74.39,0,0,1-18-17l-.64-.84V135l-9,8.15a3.38,3.38,0,0,1-4.39.14,2.46,2.46,0,0,1-.4-3.46,2.37,2.37,0,0,1,.27-.28l16.7-15,16.29,14a3,3,0,0,1,.35,4.23l0,0-.13.15a3.36,3.36,0,0,1-4.64.13Z" style="fill:#27a2df"/><path d="M81.88,65.53h93.74a6.25,6.25,0,0,1,6.26,6.25h0v93.75a6.25,6.25,0,0,1-6.26,6.25H81.88a6.25,6.25,0,0,1-6.26-6.25V71.78a6.25,6.25,0,0,1,6.26-6.25Zm0,6.25v93.75h93.74V71.78Zm37.5-12.5h-50v56.25h-50a6.25,6.25,0,0,1-6.26-6.25h0V15.53a6.25,6.25,0,0,1,6.26-6.25h93.74a6.25,6.25,0,0,1,6.26,6.25ZM113.12,53V15.53H19.38v93.75H63.12V53Z" style="fill:#5d6d7e"/></svg>