<?xml version="1.0" encoding="utf-8"?>
<!-- Generator: Adobe Illustrator 26.0.0, SVG Export Plug-In . SVG Version: 6.00 Build 0)  -->
<svg version="1.1" id="图层_1" xmlns="http://www.w3.org/2000/svg" xmlns:xlink="http://www.w3.org/1999/xlink" x="0px" y="0px"
	 viewBox="0 0 200 200" style="enable-background:new 0 0 200 200;" xml:space="preserve">
<style type="text/css">
	.st0{fill:#5D6D7E;}
</style>
<path class="st0" d="M178.9,41.1l-38.2-10.6l-1.5-0.2L61.7,47.2L23.3,36.8c-0.4-0.1-0.7-0.1-1.1-0.1c-1.3,0-2.5,0.4-3.5,1.2
	c-1.3,1-2,2.6-2,4.3v103.5c0,2.6,1.8,4.8,4.4,5.4l39.5,10.6l1.3,0.2l54.2-11.8l0.7-0.9l-0.1-0.8c-0.1-0.6-0.2-1.1-0.2-1.7
	c0-1.8,0.2-3.6,0.6-5.3l0.2-1.2l-51.3,11.2v4.9h-8.3v-5.2l-31.5-8.7V46.9l31.5,8.8v-3.1h8.3v3.2l69.8-15.2V37h8.3v4.2l29.9,8.5
	l0,89.8c1.2,3.4,1.8,6.5,1.8,9.6c0,0.7,0,1.5-0.1,2.2c-0.1,0.9-0.3,1.7-0.6,2.9l-0.2,0.8l1.9,0.4c0.4,0.1,0.8,0.1,1.2,0.1
	c1.3,0,2.5-0.4,3.4-1.2c1.3-1,2-2.6,2-4.3V46.5C183.3,43.9,181.5,41.7,178.9,41.1L178.9,41.1z"/>
<path class="st0" d="M146.1,124.7c-12.2,0-22,9.7-22,21.8c0,0.9,0.1,1.8,0.3,2.7c0.2,1,0.5,2,0.8,3c0.4,1.1,0.8,2.2,1.3,3.3
	c0.5,1.2,1.1,2.3,1.6,3.5c0.6,1.2,1.3,2.4,1.9,3.6c0.7,1.2,1.4,2.4,2.1,3.6c0.7,1.2,1.5,2.4,2.2,3.6c0.7,1.2,1.5,2.3,2.2,3.4
	c0.7,1.1,1.4,2.1,2.2,3.2c0.7,1,1.4,2,2,2.9c0.6,0.8,1.2,1.7,1.8,2.5l1.5,2c0.4,0.5,0.9,1,1.5,1.2c0.4,0.1,0.8,0.1,1.2-0.1
	c0.5-0.3,0.9-0.6,1.3-1.1c0.2-0.3,0.5-0.6,0.7-1c0.6-0.8,1.1-1.5,1.7-2.3l2-2.7c0.7-1,1.4-2,2.1-3.1c0.7-1.1,1.5-2.2,2.2-3.3
	c0.8-1.2,1.5-2.3,2.2-3.5c0.7-1.2,1.5-2.4,2.2-3.6c0.7-1.2,1.4-2.4,2-3.6c0.6-1.2,1.2-2.4,1.8-3.6c0.5-1.1,1-2.3,1.5-3.4
	c0.4-1,0.8-2.1,1.1-3.2c0.3-0.9,0.5-1.9,0.6-2.9c0-0.4,0.1-0.9,0.1-1.3C168.1,134.4,158.2,124.7,146.1,124.7L146.1,124.7z
	 M145.8,155.7c-5.2,0-9.4-4.1-9.4-9.3c0-5.1,4.2-9.3,9.4-9.3c5.2,0,9.4,4.1,9.4,9.3C155.2,151.6,151,155.7,145.8,155.7z M143.5,92.7
	c9.4,0,17.1-7.7,17.1-17.1s-7.7-17.1-17.1-17.1s-17.1,7.7-17.1,17.1c0,4.1,1.5,7.8,3.9,10.7l-21.7,18.4c-2.8-3-6.8-4.9-11.3-4.9
	c-5.9,0-11,3.4-13.7,8.2L68.1,96.4c1.4-2.2,2.2-4.8,2.2-7.6c0-8.1-6.6-14.6-14.6-14.6S41,80.8,41,88.8s6.6,14.6,14.6,14.6
	c2.2,0,4.3-0.5,6.2-1.4l20,15c0.8,7.9,7.4,14,15.5,14c8.6,0,15.7-7,15.7-15.6c0-1.1-0.1-2.2-0.4-3.3L137,91.4
	C139,92.2,141.2,92.7,143.5,92.7L143.5,92.7z M55.7,95.2c-3.5,0-6.4-2.8-6.4-6.4s2.8-6.4,6.4-6.4c3.5,0,6.4,2.8,6.4,6.4
	S59.2,95.2,55.7,95.2z M97.3,122.8c-4.1,0-7.4-3.3-7.4-7.4c0-4.1,3.3-7.4,7.4-7.4c4.1,0,7.4,3.3,7.4,7.4
	C104.7,119.5,101.4,122.8,97.3,122.8z M143.5,66.7c4.9,0,8.9,4,8.9,8.8c0,4.9-4,8.8-8.9,8.8c-4.9,0-8.9-4-8.9-8.8
	C134.7,70.7,138.6,66.7,143.5,66.7z"/>
<path class="st0" d="M57.6,52.6v15.2c3,0.3,5.8,1.2,8.3,2.5V52.6L57.6,52.6L57.6,52.6z M65.9,156.3v-43l-5.2-3.9
	c-1,0.3-2,0.3-3.1,0.4v46.5H65.9z M135.7,101.1v17.2c2.6-0.9,5.4-1.5,8.3-1.7V99.3c-0.1,0-0.3,0-0.4,0c-1.7,0-3.4-0.2-5-0.5
	L135.7,101.1L135.7,101.1z M135.7,37v16.3c2.5-0.9,5.1-1.4,7.8-1.4c0.1,0,0.3,0,0.4,0V37H135.7z"/>
</svg>
