<?xml version="1.0" encoding="utf-8"?>
<!-- Generator: Adobe Illustrator 26.0.0, SVG Export Plug-In . SVG Version: 6.00 Build 0)  -->
<svg version="1.1" id="图层_1" xmlns="http://www.w3.org/2000/svg" xmlns:xlink="http://www.w3.org/1999/xlink" x="0px" y="0px"
	 viewBox="0 0 200 200" style="enable-background:new 0 0 200 200;" xml:space="preserve">
<style type="text/css">
	.st0{fill:#5D6D7E;}
</style>
<path class="st0" d="M78.8,103.4l42.9-7l6-51.4L75.1,67.7c-0.3,0.1-0.6,0.2-0.8,0.3L78.8,103.4L78.8,103.4z M79,111.7l-4.6,44.9
	l53.3-10.9l-5.8-41.1L79,111.7z M166.5,97.7l5.5-46.9l-35.8-7.6L130,96L166.5,97.7L166.5,97.7z M166.3,106l-36.1-1.7l5.7,40.5
	c0.1,0,0.3,0,0.4,0l35.3,5.2L166.3,106L166.3,106z M32.9,102.8l37.6,1.2L66,68L28.3,55.9L32.9,102.8z M33,111L28,152.5l38,4.6
	l4.6-44.9L33,111L33,111z M24.8,46.2L69,60.3c1,0.3,2,0.3,2.9-0.1l59.2-25.7c0.8-0.3,1.6-0.4,2.5-0.3l43.8,9.3
	c2.1,0.4,3.5,2.4,3.2,4.5l-6.4,54.2c0,0.3,0,0.7,0,1l6.2,51.2c0.3,2.3-1.3,4.3-3.6,4.6c-0.4,0-0.7,0-1.1,0l-40.7-6
	c-0.5-0.1-1-0.1-1.4,0l-62.5,12.8c-0.4,0.1-0.9,0.1-1.3,0L23,160.2c-2.3-0.3-3.9-2.3-3.6-4.6l5.6-47.7c0-0.3,0-0.6,0-0.9l-5.5-56.6
	c-0.2-2.3,1.4-4.3,3.7-4.5C23.8,45.9,24.3,46,24.8,46.2L24.8,46.2z"/>
</svg>
