<?xml version="1.0" encoding="utf-8"?>
<!-- Generator: Adobe Illustrator 26.0.0, SVG Export Plug-In . SVG Version: 6.00 Build 0)  -->
<svg version="1.1" id="图层_1" xmlns="http://www.w3.org/2000/svg" xmlns:xlink="http://www.w3.org/1999/xlink" x="0px" y="0px"
	 viewBox="0 0 200 200" style="enable-background:new 0 0 200 200;" xml:space="preserve">
<style type="text/css">
	.st0{fill:#FFFFFF;}
	.st1{fill:#CFCFCF;}
	.st2{fill:#5D6D7E;}
	.st3{fill:#27A2DF;}
</style>
<path class="st0" d="M18.8,18.7h162.5v144.1L175,175l-15.7,6.2H18.8V18.7z"/>
<path class="st1" d="M120.4,175L120.4,175h22v6.2H18.8V18.7h162.5v95.3c-2-1.4-4.1-2.6-6.2-3.6V25H25v150H120.4z M137.5,110.5
	c-2.2,1-4.3,2.2-6.2,3.6V25h6.2V110.5z"/>
<path class="st2" d="M56.2,18.7H100v162.5H56.2V18.7z M62.5,25v150h31.2V25H62.5z"/>
<path class="st3" d="M132,143.7h11.7v6.2h-25v-25h6.2v18.8h0.6c3.5-16.9,20-27.8,37-24.3c14.5,3,24.9,15.7,24.9,30.5
	c0,17.3-14,31.2-31.2,31.2V175c13.8,0,25-11.2,25-25c0-13.8-11.2-25-25-25C144.8,125,134.9,132.7,132,143.7z"/>
</svg>
