<?xml version="1.0" encoding="utf-8"?>
<!-- Generator: Adobe Illustrator 26.0.0, SVG Export Plug-In . SVG Version: 6.00 Build 0)  -->
<svg version="1.1" id="图层_1" xmlns="http://www.w3.org/2000/svg" xmlns:xlink="http://www.w3.org/1999/xlink" x="0px" y="0px"
	 viewBox="0 0 200 200" style="enable-background:new 0 0 200 200;" xml:space="preserve">
<style type="text/css">
	.st0{fill:#FFFFFF;}
	.st1{opacity:0.498;fill:#5D6D7E;enable-background:new    ;}
	.st2{fill:#C49F74;fill-opacity:0.3;}
	.st3{fill:#C49F74;}
</style>
<path class="st0" d="M111.9,82.7L71.5,25h97.2c3.5,0,6.2,2.8,6.2,6.2v28.4L111.9,82.7z M25,114.6V31.2c0-3.5,2.8-6.2,6.2-6.2h22.4
	l44.1,62.9L25,114.6L25,114.6z M175,172.8l-54.7-78.1l54.7-20V172.8L175,172.8z M31.2,175c-3.5,0-6.2-2.8-6.2-6.2v-39.1l81.1-29.7
	l52.5,75.1L31.2,175z"/>
<path class="st1" d="M111.9,82.7L71.5,25h97.2c3.5,0,6.2,2.8,6.2,6.2v28.4L111.9,82.7z M25,114.6V31.2c0-3.5,2.8-6.2,6.2-6.2h22.4
	l44.1,62.9L25,114.6L25,114.6z M114.3,75.2l54.4-20l0-24l-85.2,0L114.3,75.2L114.3,75.2z M31.3,105.7L88,84.9L50.4,31.3H31.2
	L31.3,105.7z M175,172.8l-54.7-78.1l54.7-20L175,172.8L175,172.8z M168.8,153V83.6l-38.6,14.2L168.8,153z"/>
<path class="st2" d="M25,178.1l-3.1-44l83.1-30.4l52,74.4H25z"/>
<path class="st3" d="M25,181.2c-3.5,0-6.2-2.8-6.2-6.2v-43l87.4-32l56.8,81.2H25z M103.7,107.5L25,136.3l0,38.6l125.9,0L103.7,107.5
	L103.7,107.5z"/>
<path class="st0" d="M109.2,115.5H90.5V96.8h18.8V115.5z"/>
<path class="st3" d="M87.4,118.6v-25h25v25C112.4,118.6,87.4,118.6,87.4,118.6z M93.6,112.4h12.5V99.9H93.6
	C93.6,99.9,93.6,112.4,93.6,112.4z"/>
</svg>
