<?xml version="1.0" encoding="utf-8"?>
<!-- Generator: Adobe Illustrator 26.0.0, SVG Export Plug-In . SVG Version: 6.00 Build 0)  -->
<svg version="1.1" id="图层_1" xmlns="http://www.w3.org/2000/svg" xmlns:xlink="http://www.w3.org/1999/xlink" x="0px" y="0px"
	 viewBox="0 0 222.8 236.2" style="enable-background:new 0 0 222.8 236.2;" xml:space="preserve">
<style type="text/css">
	.st0{fill:none;}
	.st1{fill:none;stroke:#5D6D7E;stroke-width:8;stroke-linejoin:round;}
</style>
<path class="st0" d="M0,236.2h222.8V0H0V236.2z"/>
<g id="PolyCollection_1">
	<rect x="7.2" y="7.2" class="st0" width="208.4" height="221.8"/>
	<path class="st1" d="M95.1,95.7l-12.6,36.9l-65.9,33.6V17.6L95.1,95.7z"/>
	<rect x="7.2" y="7.2" class="st0" width="208.4" height="221.8"/>
	<path class="st1" d="M95.1,95.7l26.8-19.3l49.4,45.9l-23.3,36.4l-25.6,1.3l-39.9-27.5L95.1,95.7z"/>
	<rect x="7.2" y="7.2" class="st0" width="208.4" height="221.8"/>
	<path class="st1" d="M160.9,17.3l-39,59.2L95.1,95.7L16.7,17.6v-0.3H160.9z"/>
	<rect x="7.2" y="7.2" class="st0" width="208.4" height="221.8"/>
	<path class="st1" d="M206.1,113l-34.8,9.3l-49.4-45.9l39-59.2h45.2V113z"/>
	<rect x="7.2" y="7.2" class="st0" width="208.4" height="221.8"/>
	<path class="st1" d="M120.8,218.9l1.7-58.8l25.6-1.3l58,41.2v18.9H120.8z"/>
	<rect x="7.2" y="7.2" class="st0" width="208.4" height="221.8"/>
	<path class="st1" d="M16.7,166.2l65.9-33.6l39.9,27.5l-1.7,58.8H16.7V166.2z"/>
	<rect x="7.2" y="7.2" class="st0" width="208.4" height="221.8"/>
	<path class="st1" d="M148.1,158.8l23.3-36.4l34.8-9.3v87L148.1,158.8z"/>
</g>
</svg>
