<svg id="图层_1" data-name="图层 1" xmlns="http://www.w3.org/2000/svg" viewBox="0 0 152.73 152.73"><path d="M170.37,70.27a76.66,76.66,0,1,0,6,29.73A76,76,0,0,0,170.37,70.27ZM103,70.12a112.81,112.81,0,0,0,26.29-3.85.28.28,0,0,1,.35.19A106.81,106.81,0,0,1,135,96.91a.31.31,0,0,1-.29.3H103a.3.3,0,0,1-.29-.3V70.41A.29.29,0,0,1,103,70.12Zm-.29-5.86V32.34a.29.29,0,0,1,.31-.29,68.89,68.89,0,0,1,8,.82.4.4,0,0,1,.17.1A105.59,105.59,0,0,1,127.5,60.62a.3.3,0,0,1-.2.4A106.53,106.53,0,0,1,103,64.53.26.26,0,0,1,102.7,64.26Zm-5.86.29A105.54,105.54,0,0,1,72.73,61a.3.3,0,0,1-.19-.4A105.86,105.86,0,0,1,88.81,33a.24.24,0,0,1,.17-.1,65.81,65.81,0,0,1,7.86-.82.3.3,0,0,1,.31.29V64.26A.34.34,0,0,1,96.84,64.55Zm.29,5.86V96.93a.31.31,0,0,1-.29.3H65.29a.31.31,0,0,1-.29-.3,107.05,107.05,0,0,1,5.39-30.45.29.29,0,0,1,.35-.19,112.35,112.35,0,0,0,26.1,3.85A.26.26,0,0,1,97.13,70.41Zm-38,26.8H32.34a.3.3,0,0,1-.29-.32A67.73,67.73,0,0,1,47.19,57.17a.29.29,0,0,1,.37-.08,111.49,111.49,0,0,0,17.28,7.4.28.28,0,0,1,.18.37,112.32,112.32,0,0,0-5.61,32.07A.27.27,0,0,1,59.14,97.21Zm.27,5.86A111,111,0,0,0,65,135.14a.3.3,0,0,1-.18.37,109.6,109.6,0,0,0-17.28,7.4.3.3,0,0,1-.37-.08,67.52,67.52,0,0,1-15.14-39.72.3.3,0,0,1,.29-.32H59.12a.27.27,0,0,1,.29.28Zm5.88-.28H96.84a.31.31,0,0,1,.29.3v26.52a.28.28,0,0,1-.29.29,112.37,112.37,0,0,0-26.12,3.85.28.28,0,0,1-.35-.2A106.68,106.68,0,0,1,65,103.11a.31.31,0,0,1,.31-.32Zm31.84,33v31.92a.3.3,0,0,1-.31.29,65.81,65.81,0,0,1-7.86-.82.4.4,0,0,1-.17-.1,106,106,0,0,1-16.27-27.66.29.29,0,0,1,.19-.39,106.43,106.43,0,0,1,24.13-3.51A.27.27,0,0,1,97.13,135.74Zm5.86-.29a106.78,106.78,0,0,1,24.3,3.51.3.3,0,0,1,.19.4A105.59,105.59,0,0,1,111.19,167a.24.24,0,0,1-.17.1,68.89,68.89,0,0,1-8,.82.29.29,0,0,1-.31-.29v-31.9A.31.31,0,0,1,103,135.45Zm-.29-5.86V103.07a.3.3,0,0,1,.29-.3h31.72a.31.31,0,0,1,.29.3,105.54,105.54,0,0,1-5.39,30.45.29.29,0,0,1-.35.19A112.81,112.81,0,0,0,103,129.86a.26.26,0,0,1-.27-.27Zm38.16-26.8h26.78a.3.3,0,0,1,.29.32,67.65,67.65,0,0,1-15.14,39.72.29.29,0,0,1-.37.08,109.5,109.5,0,0,0-17.28-7.38.28.28,0,0,1-.18-.37,112.32,112.32,0,0,0,5.61-32.07.3.3,0,0,1,.29-.3Zm-.27-5.86A111.62,111.62,0,0,0,135,64.86a.3.3,0,0,1,.18-.37,111.22,111.22,0,0,0,17.28-7.4.3.3,0,0,1,.37.08A67.53,67.53,0,0,1,168,96.89a.3.3,0,0,1-.29.32H140.86a.27.27,0,0,1-.27-.28Zm7.91-44a107.64,107.64,0,0,1-15.24,6.39.3.3,0,0,1-.37-.18A111.6,111.6,0,0,0,120.2,35.59a.29.29,0,0,1,.33-.45,67.91,67.91,0,0,1,28,17.28A.3.3,0,0,1,148.5,52.89ZM79.8,35.59A110.7,110.7,0,0,0,67.11,59.1a.32.32,0,0,1-.37.18A105.25,105.25,0,0,1,51.5,52.91a.3.3,0,0,1-.07-.47,68.14,68.14,0,0,1,28-17.28A.28.28,0,0,1,79.8,35.59ZM51.5,147.11a107.64,107.64,0,0,1,15.24-6.39.3.3,0,0,1,.37.18A111.6,111.6,0,0,0,79.8,164.41a.29.29,0,0,1-.33.45,67.91,67.91,0,0,1-28-17.28A.3.3,0,0,1,51.5,147.11Zm68.7,17.3a111,111,0,0,0,12.69-23.49.32.32,0,0,1,.37-.18,105.25,105.25,0,0,1,15.24,6.37.3.3,0,0,1,.07.47,68.14,68.14,0,0,1-28,17.28.29.29,0,0,1-.33-.45Z" transform="translate(-23.63 -23.63)" style="fill:#10a3f1"/></svg>