<svg id="图层_1" data-name="图层 1" xmlns="http://www.w3.org/2000/svg" viewBox="0 0 279 228"><path d="M23,36.11h90.55c2.62,0,3.93,2.09,3.93,6.25V186.11c0,4.16-1.31,6.25-3.93,6.25H23c-2.63,0-3.94-2.09-3.94-6.25V42.37C19.05,38.25,20.36,36.11,23,36.11Z" style="fill:#fff"/><path d="M44.65,170.5H64.33v-25H44.65Zm-3.94,0v-25H28.94v-6.25H40.71v-25H28.94V108H40.71V83h3.94v25H64.33V83h4v25H84V83H88v25h15.75V83h3.94v93.75H29V170.5Zm3.94-56.25v25H64.33v-25ZM68.28,170.5H84v-25H68.28Zm0-31.25H84v-25H68.28Zm19.68-25v25h15.75v-25Zm0,56.25h15.75v-25H88Z" style="fill:#e8e8e8"/><path d="M20.46,39.25h95.09V70.5H20.46ZM75.32,54.87v5.24H93.6V54.87Zm21.94,0v5.24h7.34V54.87Z" style="fill:#31a9e1"/><path d="M20.79,33h93.58c2.16,0,3.9,2.8,3.9,6.25v150c0,3.45-1.74,6.25-3.9,6.25H20.79c-2.15,0-3.9-2.8-3.9-6.25v-150C16.89,35.8,18.64,33,20.79,33Zm0,6.25v150h93.58v-150Z" style="fill:#5d6d7e"/><circle cx="177.44" cy="90.59" r="13.69" style="fill:#c49f74"/><circle cx="238.49" cy="147.86" r="13.69" style="fill:#c49f74"/><circle cx="177.44" cy="149.14" r="13.69" style="fill:#c49f74"/><circle cx="224.72" cy="59.88" r="13.69" style="fill:#c49f74"/><path d="M76.16,148h55V183.1h-55Z" style="fill:#fff"/><path d="M126.26,128.1v75.1l41.25-37.5Z" style="fill:#fff"/><path d="M81.26,153h49.85v25.1H81.26Zm49.85-15.3v55.1l30.15-27.2Z" style="fill:#ff806c"/></svg>